{"glyphs":{"0":{"ha":845,"x_min":77,"x_max":821,"o":"m 378 -16 q 216 28 283 -16 q 113 155 149 73 q 77 351 77 237 q 91 503 77 418 q 136 674 105 588 q 218 832 168 760 q 342 948 269 904 q 514 993 416 993 q 678 949 610 993 q 784 823 747 905 q 821 627 821 741 q 806 474 821 559 q 760 303 791 389 q 676 145 728 218 q 551 28 625 73 q 378 -16 477 -16 m 383 83 q 507 125 454 83 q 596 233 559 166 q 654 375 632 299 q 685 521 675 450 q 695 640 695 591 q 646 825 695 756 q 507 893 596 893 q 385 852 437 893 q 298 745 334 811 q 242 603 263 679 q 212 457 221 528 q 203 337 203 387 q 249 152 203 221 q 383 83 294 83 z "},"1":{"ha":465,"x_min":133,"x_max":524,"o":"m 195 0 l 359 770 q 245 703 298 729 q 133 661 193 676 l 158 778 q 227 807 190 789 q 316 865 264 826 q 443 977 368 904 l 524 977 l 317 0 l 195 0 z "},"2":{"ha":787,"x_min":-28,"x_max":786,"o":"m -28 0 l -6 102 l 395 374 q 585 536 511 451 q 659 729 659 621 q 634 829 659 793 q 568 879 608 865 q 481 893 527 893 q 375 870 420 893 q 296 800 329 848 q 242 678 264 753 l 122 719 q 200 859 144 798 q 331 957 255 921 q 491 993 407 993 q 596 977 544 993 q 691 929 648 962 q 760 845 734 896 q 786 724 786 794 q 761 596 786 656 q 692 483 736 536 q 591 383 648 429 q 469 296 534 336 l 146 90 l 113 106 l 684 106 l 662 0 l -28 0 z "},"3":{"ha":777,"x_min":27,"x_max":768,"o":"m 363 -16 q 186 21 260 -16 q 73 126 113 58 q 27 288 33 194 l 159 327 q 180 194 157 248 q 249 112 203 140 q 361 83 295 83 q 488 117 439 83 q 559 201 536 151 q 583 302 583 252 q 564 387 583 347 q 503 452 545 427 q 388 477 460 477 l 301 477 l 323 583 l 459 583 q 593 627 541 583 q 645 745 645 671 q 595 855 645 817 q 471 893 546 893 q 373 870 412 893 q 308 810 334 848 q 263 729 283 773 l 151 781 q 230 888 182 840 q 342 965 277 937 q 486 993 406 993 q 605 974 553 993 q 694 920 657 954 q 749 843 730 886 q 768 750 768 799 q 740 640 768 688 q 660 560 711 591 q 543 521 609 529 q 636 467 599 505 q 691 382 673 430 q 710 286 710 334 q 691 187 710 239 q 632 88 673 134 q 524 13 591 42 q 363 -16 458 -16 z "},"4":{"ha":789,"x_min":12,"x_max":761,"o":"m 433 0 l 494 286 l 502 323 l 624 899 l 631 821 l 124 321 l 88 358 l 751 358 l 728 251 l 12 251 l 37 370 l 658 977 l 761 977 l 554 0 l 433 0 z "},"5":{"ha":778,"x_min":23,"x_max":783,"o":"m 347 -16 q 178 25 252 -16 q 63 135 103 66 q 32 286 23 203 l 162 326 q 169 203 152 258 q 229 116 185 149 q 345 83 273 83 q 483 124 428 83 q 567 228 538 165 q 595 357 595 290 q 568 469 595 426 q 497 532 541 512 q 404 552 453 552 q 292 520 336 552 q 219 438 248 488 l 106 463 l 251 977 l 783 977 l 760 870 l 330 870 l 224 504 l 195 507 q 257 582 220 549 q 342 634 294 615 q 448 654 391 654 q 584 620 523 654 q 683 521 646 585 q 720 366 720 456 q 692 221 720 290 q 614 99 665 152 q 496 15 564 45 q 347 -16 429 -16 z "},"6":{"ha":804,"x_min":71,"x_max":810,"o":"m 370 -16 q 209 25 275 -16 q 106 144 142 66 q 71 331 71 222 q 86 489 71 401 q 132 666 100 577 q 214 828 163 754 q 338 948 265 903 q 509 993 411 993 q 664 953 597 993 q 769 853 731 913 q 810 733 807 793 l 684 700 q 664 792 682 747 q 608 865 646 836 q 508 893 570 893 q 399 864 446 893 q 320 787 353 835 q 264 683 287 739 q 227 570 241 626 q 201 469 212 514 l 185 481 q 308 602 234 562 q 465 643 381 643 q 590 613 527 643 q 694 522 652 584 q 736 362 736 460 q 712 225 736 293 q 641 103 688 158 q 526 16 594 49 q 370 -16 458 -16 m 383 83 q 489 110 445 83 q 561 179 533 136 q 603 270 589 221 q 616 363 616 319 q 562 499 616 456 q 428 542 507 542 q 299 503 353 542 q 215 402 245 465 q 186 269 186 340 q 243 130 186 176 q 383 83 301 83 z "},"7":{"ha":712,"x_min":73,"x_max":810,"o":"m 73 0 q 237 327 151 179 q 427 608 322 475 q 666 870 531 740 l 138 870 l 161 977 l 810 977 l 791 885 q 621 688 703 790 q 467 476 539 586 q 332 247 394 366 q 222 0 271 128 l 73 0 z "},"8":{"ha":782,"x_min":31,"x_max":773,"o":"m 342 -16 q 177 14 247 -16 q 68 100 106 45 q 31 229 31 155 q 65 368 31 301 q 161 480 100 434 q 302 538 222 527 q 198 604 235 556 q 161 720 161 651 q 207 862 161 800 q 327 958 253 924 q 486 993 401 993 q 623 966 557 993 q 731 886 689 939 q 772 754 773 833 q 741 642 771 691 q 660 561 711 592 q 545 520 609 530 q 667 438 627 496 q 707 300 707 380 q 684 182 707 239 q 615 81 661 125 q 501 10 569 36 q 342 -16 433 -16 m 351 93 q 477 120 426 93 q 555 195 528 148 q 582 300 582 241 q 530 431 582 382 q 390 480 479 480 q 262 447 314 480 q 183 363 210 414 q 156 258 156 312 q 205 139 156 185 q 351 93 255 93 m 459 582 q 603 630 559 582 q 646 743 646 679 q 598 856 646 818 q 478 893 549 893 q 376 871 421 893 q 306 811 332 849 q 280 724 280 773 q 324 623 280 665 q 459 582 368 582 z "},"9":{"ha":809,"x_min":43,"x_max":786,"o":"m 354 -16 q 194 24 264 -16 q 84 124 124 64 q 43 245 45 184 l 169 276 q 185 179 163 222 q 253 112 208 136 q 355 87 297 87 q 470 116 422 87 q 549 194 517 146 q 601 299 581 242 q 633 413 621 356 q 657 514 646 469 l 664 496 q 558 375 627 425 q 394 326 489 326 q 261 358 324 326 q 159 454 199 391 q 120 612 120 518 q 145 752 120 684 q 219 874 171 820 q 337 961 268 929 q 492 993 406 993 q 652 952 587 993 q 752 836 718 912 q 786 650 786 760 q 774 492 786 581 q 732 315 762 404 q 654 151 703 226 q 531 30 605 75 q 354 -16 457 -16 m 430 433 q 556 471 503 433 q 638 572 610 510 q 667 705 667 635 q 611 845 667 798 q 473 891 554 891 q 370 865 413 891 q 299 796 326 838 q 258 705 271 753 q 245 611 245 656 q 299 476 245 519 q 430 433 352 433 z "},"A":{"ha":937,"x_min":-72,"x_max":853,"o":"m -72 0 l 559 977 l 666 977 l 853 0 l 732 0 l 583 838 l 69 0 l -72 0 m 227 318 l 248 421 l 750 421 l 728 318 l 227 318 z "},"Á":{"ha":937,"x_min":-72,"x_max":853,"o":"m -72 0 l 559 977 l 666 977 l 853 0 l 732 0 l 583 838 l 69 0 l -72 0 m 227 318 l 248 421 l 750 421 l 728 318 l 227 318 m 666 1054 l 595 1101 l 742 1322 l 838 1257 l 666 1054 z "},"Ă":{"ha":937,"x_min":-72,"x_max":875,"o":"m -72 0 l 559 977 l 666 977 l 853 0 l 732 0 l 583 838 l 69 0 l -72 0 m 227 318 l 248 421 l 750 421 l 728 318 l 227 318 m 621 1094 q 473 1144 523 1094 q 427 1276 423 1194 l 526 1303 q 546 1215 519 1248 q 633 1181 573 1181 q 725 1213 692 1181 q 776 1296 759 1244 l 875 1270 q 781 1142 844 1190 q 621 1094 717 1094 z "},"Ǎ":{"ha":937,"x_min":-72,"x_max":863,"o":"m -72 0 l 559 977 l 666 977 l 853 0 l 732 0 l 583 838 l 69 0 l -72 0 m 227 318 l 248 421 l 750 421 l 728 318 l 227 318 m 783 1321 l 863 1259 l 702 1080 l 563 1080 l 470 1275 l 566 1321 l 642 1149 l 783 1321 z "},"Â":{"ha":937,"x_min":-72,"x_max":853,"o":"m -72 0 l 559 977 l 666 977 l 853 0 l 732 0 l 583 838 l 69 0 l -72 0 m 227 318 l 248 421 l 750 421 l 728 318 l 227 318 m 521 1080 l 440 1141 l 602 1321 l 741 1321 l 833 1126 l 738 1080 l 662 1252 l 521 1080 z "},"Ä":{"ha":937,"x_min":-72,"x_max":892,"o":"m -72 0 l 559 977 l 666 977 l 853 0 l 732 0 l 583 838 l 69 0 l -72 0 m 227 318 l 248 421 l 750 421 l 728 318 l 227 318 m 495 1099 q 432 1124 456 1099 q 408 1184 408 1149 q 440 1258 408 1226 q 515 1289 472 1289 q 578 1264 554 1289 q 602 1204 602 1240 q 571 1131 602 1163 q 495 1099 539 1099 m 785 1099 q 722 1124 746 1099 q 698 1184 698 1149 q 730 1258 698 1226 q 805 1289 762 1289 q 868 1264 844 1289 q 892 1204 892 1240 q 860 1131 892 1163 q 785 1099 829 1099 z "},"Ạ":{"ha":937,"x_min":-72,"x_max":853,"o":"m -72 0 l 559 977 l 666 977 l 853 0 l 732 0 l 583 838 l 69 0 l -72 0 m 227 318 l 248 421 l 750 421 l 728 318 l 227 318 m 362 -308 q 299 -283 323 -308 q 275 -223 275 -258 q 307 -150 275 -181 q 382 -118 339 -118 q 445 -143 421 -118 q 469 -203 469 -168 q 438 -276 469 -244 q 362 -308 406 -308 z "},"À":{"ha":937,"x_min":-72,"x_max":853,"o":"m -72 0 l 559 977 l 666 977 l 853 0 l 732 0 l 583 838 l 69 0 l -72 0 m 227 318 l 248 421 l 750 421 l 728 318 l 227 318 m 593 1055 l 414 1257 l 515 1323 l 667 1101 l 593 1055 z "},"Ā":{"ha":937,"x_min":-72,"x_max":936,"o":"m -72 0 l 559 977 l 666 977 l 853 0 l 732 0 l 583 838 l 69 0 l -72 0 m 227 318 l 248 421 l 750 421 l 728 318 l 227 318 m 339 1158 l 357 1243 l 936 1243 l 918 1158 l 339 1158 z "},"Ą":{"ha":937,"x_min":-72,"x_max":853,"o":"m -72 0 l 559 977 l 666 977 l 853 0 l 732 0 l 583 838 l 69 0 l -72 0 m 227 318 l 248 421 l 750 421 l 728 318 l 227 318 m 756 -281 q 675 -265 713 -281 q 613 -218 637 -250 q 589 -142 589 -187 q 639 -39 589 -79 q 760 20 689 1 l 796 12 l 795 0 l 853 0 q 753 -50 798 -14 q 709 -132 709 -85 q 730 -179 709 -163 q 783 -195 751 -195 q 826 -188 802 -195 l 843 -264 q 756 -281 802 -281 z "},"Å":{"ha":937,"x_min":-72,"x_max":853,"o":"m -72 0 l 559 977 l 666 977 l 853 0 l 732 0 l 583 838 l 69 0 l -72 0 m 227 318 l 248 421 l 750 421 l 728 318 l 227 318 m 625 1035 q 525 1070 564 1035 q 486 1167 486 1105 q 506 1249 486 1210 q 564 1313 526 1288 q 656 1337 602 1337 q 756 1302 717 1337 q 795 1205 795 1267 q 775 1123 795 1162 q 716 1060 754 1084 q 625 1035 678 1035 m 632 1110 q 682 1126 665 1110 q 707 1164 700 1143 q 713 1201 713 1185 q 696 1245 713 1230 q 650 1261 679 1261 q 587 1232 606 1261 q 567 1173 567 1202 q 585 1127 567 1143 q 632 1110 602 1110 z "},"Ǻ":{"ha":937,"x_min":-72,"x_max":914,"o":"m -72 0 l 559 977 l 666 977 l 853 0 l 732 0 l 583 838 l 69 0 l -72 0 m 227 318 l 248 421 l 750 421 l 728 318 l 227 318 m 625 1035 q 525 1070 564 1035 q 486 1167 486 1105 q 506 1249 486 1210 q 564 1313 526 1288 q 656 1337 602 1337 q 756 1302 717 1337 q 795 1205 795 1267 q 775 1123 795 1162 q 716 1060 754 1084 q 625 1035 678 1035 m 632 1110 q 682 1126 665 1110 q 707 1164 700 1143 q 713 1201 713 1185 q 696 1245 713 1230 q 650 1261 679 1261 q 587 1232 606 1261 q 567 1173 567 1202 q 585 1127 567 1143 q 632 1110 602 1110 m 742 1377 l 671 1424 l 818 1646 l 914 1580 l 742 1377 z "},"Ã":{"ha":937,"x_min":-72,"x_max":892,"o":"m -72 0 l 559 977 l 666 977 l 853 0 l 732 0 l 583 838 l 69 0 l -72 0 m 227 318 l 248 421 l 750 421 l 728 318 l 227 318 m 722 1109 q 660 1123 684 1109 q 622 1155 637 1137 q 591 1187 606 1173 q 554 1200 576 1200 q 505 1177 524 1200 q 470 1113 487 1154 l 389 1143 q 454 1256 409 1218 q 565 1295 498 1295 q 629 1281 606 1295 q 667 1249 652 1267 q 696 1216 682 1230 q 730 1202 709 1202 q 777 1223 759 1202 q 812 1278 795 1243 l 892 1246 q 828 1144 871 1179 q 722 1109 784 1109 z "},"Æ":{"ha":1238,"x_min":-52,"x_max":1312,"o":"m -52 0 l 616 977 l 1312 977 l 1291 873 l 774 873 l 768 571 l 1164 571 l 1143 468 l 766 468 l 758 103 l 1138 103 l 1116 0 l 635 0 l 646 318 l 300 318 l 89 0 l -52 0 m 369 421 l 651 421 l 669 935 l 707 930 l 369 421 z "},"Ǽ":{"ha":1238,"x_min":-52,"x_max":1312,"o":"m -52 0 l 616 977 l 1312 977 l 1291 873 l 774 873 l 768 571 l 1164 571 l 1143 468 l 766 468 l 758 103 l 1138 103 l 1116 0 l 635 0 l 646 318 l 300 318 l 89 0 l -52 0 m 369 421 l 651 421 l 669 935 l 707 930 l 369 421 m 967 1054 l 897 1101 l 1043 1322 l 1139 1257 l 967 1054 z "},"B":{"ha":865,"x_min":28,"x_max":857,"o":"m 28 0 l 235 977 l 575 977 q 716 955 652 977 q 819 888 781 933 q 857 772 857 843 q 823 650 857 706 q 732 558 789 593 q 602 518 674 522 l 604 521 q 739 451 688 503 q 789 303 789 400 q 753 155 789 224 q 646 43 718 86 q 466 0 574 0 l 28 0 m 170 102 l 469 102 q 584 138 539 102 q 650 224 629 173 q 671 321 671 275 q 618 439 671 399 q 469 479 564 479 l 250 479 l 170 102 m 272 581 l 544 581 q 645 607 605 581 q 706 672 686 632 q 726 753 726 711 q 682 846 726 819 q 571 874 638 874 l 334 874 l 272 581 z "},"C":{"ha":958,"x_min":81,"x_max":958,"o":"m 478 -16 q 269 35 359 -16 q 130 181 180 85 q 81 411 81 277 q 114 623 81 519 q 212 810 148 726 q 370 943 277 893 q 585 993 464 993 q 767 955 686 993 q 897 849 847 918 q 958 688 947 781 l 826 656 q 760 823 817 756 q 586 890 702 890 q 420 844 490 890 q 303 727 349 799 q 235 571 257 654 q 212 411 212 488 q 246 241 212 315 q 341 127 280 168 q 486 87 403 87 q 654 145 581 87 q 773 328 728 203 l 905 290 q 725 59 831 134 q 478 -16 618 -16 z "},"Ć":{"ha":958,"x_min":81,"x_max":958,"o":"m 478 -16 q 269 35 359 -16 q 130 181 180 85 q 81 411 81 277 q 114 623 81 519 q 212 810 148 726 q 370 943 277 893 q 585 993 464 993 q 767 955 686 993 q 897 849 847 918 q 958 688 947 781 l 826 656 q 760 823 817 756 q 586 890 702 890 q 420 844 490 890 q 303 727 349 799 q 235 571 257 654 q 212 411 212 488 q 246 241 212 315 q 341 127 280 168 q 486 87 403 87 q 654 145 581 87 q 773 328 728 203 l 905 290 q 725 59 831 134 q 478 -16 618 -16 m 649 1054 l 578 1101 l 725 1322 l 821 1257 l 649 1054 z "},"Č":{"ha":958,"x_min":81,"x_max":958,"o":"m 478 -16 q 269 35 359 -16 q 130 181 180 85 q 81 411 81 277 q 114 623 81 519 q 212 810 148 726 q 370 943 277 893 q 585 993 464 993 q 767 955 686 993 q 897 849 847 918 q 958 688 947 781 l 826 656 q 760 823 817 756 q 586 890 702 890 q 420 844 490 890 q 303 727 349 799 q 235 571 257 654 q 212 411 212 488 q 246 241 212 315 q 341 127 280 168 q 486 87 403 87 q 654 145 581 87 q 773 328 728 203 l 905 290 q 725 59 831 134 q 478 -16 618 -16 m 766 1321 l 846 1259 l 685 1080 l 546 1080 l 453 1275 l 549 1321 l 625 1149 l 766 1321 z "},"Ç":{"ha":958,"x_min":81,"x_max":958,"o":"m 478 -16 q 269 35 359 -16 q 130 181 180 85 q 81 411 81 277 q 114 623 81 519 q 212 810 148 726 q 370 943 277 893 q 585 993 464 993 q 767 955 686 993 q 897 849 847 918 q 958 688 947 781 l 826 656 q 760 823 817 756 q 586 890 702 890 q 420 844 490 890 q 303 727 349 799 q 235 571 257 654 q 212 411 212 488 q 246 241 212 315 q 341 127 280 168 q 486 87 403 87 q 654 145 581 87 q 773 328 728 203 l 905 290 q 725 59 831 134 q 478 -16 618 -16 m 452 -281 q 378 -272 418 -281 q 307 -240 338 -263 l 341 -170 q 383 -192 359 -181 q 444 -202 408 -202 q 493 -194 467 -202 q 521 -159 518 -186 q 496 -121 524 -134 q 397 -105 469 -107 l 400 -79 l 429 28 l 522 28 l 520 14 l 500 -69 l 469 -44 q 590 -90 562 -57 q 614 -165 618 -123 q 571 -246 609 -211 q 452 -281 533 -281 z "},"Ĉ":{"ha":958,"x_min":81,"x_max":958,"o":"m 478 -16 q 269 35 359 -16 q 130 181 180 85 q 81 411 81 277 q 114 623 81 519 q 212 810 148 726 q 370 943 277 893 q 585 993 464 993 q 767 955 686 993 q 897 849 847 918 q 958 688 947 781 l 826 656 q 760 823 817 756 q 586 890 702 890 q 420 844 490 890 q 303 727 349 799 q 235 571 257 654 q 212 411 212 488 q 246 241 212 315 q 341 127 280 168 q 486 87 403 87 q 654 145 581 87 q 773 328 728 203 l 905 290 q 725 59 831 134 q 478 -16 618 -16 m 504 1080 l 423 1141 l 585 1321 l 724 1321 l 817 1126 l 721 1080 l 645 1252 l 504 1080 z "},"Ċ":{"ha":958,"x_min":81,"x_max":958,"o":"m 478 -16 q 269 35 359 -16 q 130 181 180 85 q 81 411 81 277 q 114 623 81 519 q 212 810 148 726 q 370 943 277 893 q 585 993 464 993 q 767 955 686 993 q 897 849 847 918 q 958 688 947 781 l 826 656 q 760 823 817 756 q 586 890 702 890 q 420 844 490 890 q 303 727 349 799 q 235 571 257 654 q 212 411 212 488 q 246 241 212 315 q 341 127 280 168 q 486 87 403 87 q 654 145 581 87 q 773 328 728 203 l 905 290 q 725 59 831 134 q 478 -16 618 -16 m 623 1099 q 560 1124 584 1099 q 536 1184 536 1149 q 568 1258 536 1226 q 643 1289 600 1289 q 706 1264 682 1289 q 730 1204 730 1240 q 698 1131 730 1163 q 623 1099 667 1099 z "},"D":{"ha":949,"x_min":27,"x_max":920,"o":"m 27 0 l 235 977 l 540 977 q 754 925 670 977 q 879 783 838 874 q 920 570 920 691 q 899 401 920 484 q 838 246 879 319 q 734 118 796 174 q 588 32 671 63 q 398 0 504 0 l 27 0 m 170 103 l 397 103 q 576 145 502 103 q 697 257 650 188 q 767 408 745 326 q 789 568 789 490 q 761 724 789 654 q 670 833 733 793 q 502 873 607 873 l 334 873 l 170 103 z "},"Ð":{"ha":949,"x_min":3,"x_max":920,"o":"m 27 0 l 235 977 l 540 977 q 754 925 670 977 q 879 783 838 874 q 920 570 920 691 q 899 401 920 484 q 838 246 879 319 q 734 118 796 174 q 588 32 671 63 q 398 0 504 0 l 27 0 m 170 103 l 397 103 q 576 145 502 103 q 697 257 650 188 q 767 408 745 326 q 789 568 789 490 q 761 724 789 654 q 670 833 733 793 q 502 873 607 873 l 334 873 l 170 103 m 3 437 l 26 540 l 502 540 l 479 437 l 3 437 z "},"Ď":{"ha":949,"x_min":27,"x_max":920,"o":"m 27 0 l 235 977 l 540 977 q 754 925 670 977 q 879 783 838 874 q 920 570 920 691 q 899 401 920 484 q 838 246 879 319 q 734 118 796 174 q 588 32 671 63 q 398 0 504 0 l 27 0 m 170 103 l 397 103 q 576 145 502 103 q 697 257 650 188 q 767 408 745 326 q 789 568 789 490 q 761 724 789 654 q 670 833 733 793 q 502 873 607 873 l 334 873 l 170 103 m 732 1321 l 812 1259 l 651 1080 l 512 1080 l 419 1275 l 515 1321 l 591 1149 l 732 1321 z "},"Đ":{"ha":949,"x_min":3,"x_max":920,"o":"m 27 0 l 235 977 l 540 977 q 754 925 670 977 q 879 783 838 874 q 920 570 920 691 q 899 401 920 484 q 838 246 879 319 q 734 118 796 174 q 588 32 671 63 q 398 0 504 0 l 27 0 m 170 103 l 397 103 q 576 145 502 103 q 697 257 650 188 q 767 408 745 326 q 789 568 789 490 q 761 724 789 654 q 670 833 733 793 q 502 873 607 873 l 334 873 l 170 103 m 3 437 l 26 540 l 502 540 l 479 437 l 3 437 z "},"E":{"ha":778,"x_min":28,"x_max":852,"o":"m 28 0 l 235 977 l 852 977 l 831 873 l 334 873 l 270 571 l 704 571 l 683 468 l 248 468 l 170 103 l 677 103 l 656 0 l 28 0 z "},"É":{"ha":778,"x_min":28,"x_max":852,"o":"m 28 0 l 235 977 l 852 977 l 831 873 l 334 873 l 270 571 l 704 571 l 683 468 l 248 468 l 170 103 l 677 103 l 656 0 l 28 0 m 594 1054 l 524 1101 l 670 1322 l 766 1257 l 594 1054 z "},"Ĕ":{"ha":778,"x_min":28,"x_max":852,"o":"m 28 0 l 235 977 l 852 977 l 831 873 l 334 873 l 270 571 l 704 571 l 683 468 l 248 468 l 170 103 l 677 103 l 656 0 l 28 0 m 549 1094 q 401 1144 451 1094 q 355 1276 351 1194 l 454 1303 q 474 1215 447 1248 q 562 1181 501 1181 q 653 1213 620 1181 q 704 1296 687 1244 l 803 1270 q 709 1142 772 1190 q 549 1094 645 1094 z "},"Ě":{"ha":778,"x_min":28,"x_max":852,"o":"m 28 0 l 235 977 l 852 977 l 831 873 l 334 873 l 270 571 l 704 571 l 683 468 l 248 468 l 170 103 l 677 103 l 656 0 l 28 0 m 711 1321 l 791 1259 l 630 1080 l 491 1080 l 398 1275 l 494 1321 l 570 1149 l 711 1321 z "},"Ê":{"ha":778,"x_min":28,"x_max":852,"o":"m 28 0 l 235 977 l 852 977 l 831 873 l 334 873 l 270 571 l 704 571 l 683 468 l 248 468 l 170 103 l 677 103 l 656 0 l 28 0 m 449 1080 l 368 1141 l 530 1321 l 669 1321 l 762 1126 l 666 1080 l 590 1252 l 449 1080 z "},"Ë":{"ha":778,"x_min":28,"x_max":852,"o":"m 28 0 l 235 977 l 852 977 l 831 873 l 334 873 l 270 571 l 704 571 l 683 468 l 248 468 l 170 103 l 677 103 l 656 0 l 28 0 m 423 1099 q 360 1124 385 1099 q 336 1184 336 1149 q 368 1258 336 1226 q 444 1289 400 1289 q 506 1264 482 1289 q 530 1204 530 1240 q 499 1131 530 1163 q 423 1099 467 1099 m 713 1099 q 650 1124 674 1099 q 626 1184 626 1149 q 658 1258 626 1226 q 733 1289 690 1289 q 796 1264 772 1289 q 820 1204 820 1240 q 788 1131 820 1163 q 713 1099 757 1099 z "},"Ė":{"ha":778,"x_min":28,"x_max":852,"o":"m 28 0 l 235 977 l 852 977 l 831 873 l 334 873 l 270 571 l 704 571 l 683 468 l 248 468 l 170 103 l 677 103 l 656 0 l 28 0 m 568 1099 q 505 1124 529 1099 q 481 1184 481 1149 q 513 1258 481 1226 q 588 1289 545 1289 q 651 1264 627 1289 q 675 1204 675 1240 q 643 1131 675 1163 q 568 1099 612 1099 z "},"Ẹ":{"ha":778,"x_min":28,"x_max":852,"o":"m 28 0 l 235 977 l 852 977 l 831 873 l 334 873 l 270 571 l 704 571 l 683 468 l 248 468 l 170 103 l 677 103 l 656 0 l 28 0 m 315 -308 q 253 -283 277 -308 q 229 -223 229 -258 q 260 -150 229 -181 q 336 -118 292 -118 q 398 -143 374 -118 q 422 -203 422 -168 q 391 -276 422 -244 q 315 -308 359 -308 z "},"È":{"ha":778,"x_min":28,"x_max":852,"o":"m 28 0 l 235 977 l 852 977 l 831 873 l 334 873 l 270 571 l 704 571 l 683 468 l 248 468 l 170 103 l 677 103 l 656 0 l 28 0 m 522 1055 l 342 1257 l 443 1323 l 595 1101 l 522 1055 z "},"Ē":{"ha":778,"x_min":28,"x_max":852,"o":"m 28 0 l 235 977 l 852 977 l 831 873 l 334 873 l 270 571 l 704 571 l 683 468 l 248 468 l 170 103 l 677 103 l 656 0 l 28 0 m 357 1158 l 375 1243 l 804 1243 l 786 1158 l 357 1158 z "},"Ę":{"ha":778,"x_min":28,"x_max":852,"o":"m 28 0 l 235 977 l 852 977 l 831 873 l 334 873 l 270 571 l 704 571 l 683 468 l 248 468 l 170 103 l 677 103 l 656 0 l 28 0 m 559 -281 q 478 -265 516 -281 q 415 -218 439 -250 q 391 -142 391 -187 q 441 -39 391 -79 q 562 20 492 1 l 599 12 l 598 0 l 656 0 q 556 -50 600 -14 q 512 -132 512 -85 q 533 -179 512 -163 q 585 -195 554 -195 q 629 -188 605 -195 l 646 -264 q 559 -281 604 -281 z "},"Ẽ":{"ha":778,"x_min":28,"x_max":852,"o":"m 28 0 l 235 977 l 852 977 l 831 873 l 334 873 l 270 571 l 704 571 l 683 468 l 248 468 l 170 103 l 677 103 l 656 0 l 28 0 m 650 1109 q 588 1123 612 1109 q 550 1155 565 1137 q 519 1187 534 1173 q 482 1200 505 1200 q 433 1177 452 1200 q 398 1113 415 1154 l 317 1143 q 382 1256 337 1218 q 493 1295 427 1295 q 557 1281 534 1295 q 595 1249 581 1267 q 624 1216 610 1230 q 659 1202 637 1202 q 705 1223 687 1202 q 740 1278 723 1243 l 821 1246 q 756 1144 800 1179 q 650 1109 712 1109 z "},"Ə":{"ha":965,"x_min":77,"x_max":943,"o":"m 436 -16 q 240 32 315 -16 q 126 157 164 79 q 83 330 89 235 q 96 518 77 424 l 855 518 l 834 415 l 161 415 l 170 462 l 219 467 q 208 331 204 398 q 238 208 212 263 q 316 119 264 152 q 449 85 368 85 q 594 120 532 85 q 701 211 656 154 q 772 336 745 268 q 813 473 800 404 q 826 599 826 542 q 754 817 826 740 q 554 895 683 895 q 382 844 454 895 q 257 687 309 793 l 138 731 q 326 930 217 867 q 559 992 435 992 q 752 949 665 992 q 891 818 839 905 q 943 596 943 730 q 925 442 943 525 q 871 278 908 359 q 775 131 834 197 q 631 24 715 64 q 436 -16 547 -16 z "},"F":{"ha":743,"x_min":28,"x_max":836,"o":"m 28 0 l 235 977 l 836 977 l 814 873 l 334 873 l 271 576 l 703 576 l 682 473 l 249 473 l 149 0 l 28 0 z "},"G":{"ha":968,"x_min":80,"x_max":962,"o":"m 503 -16 q 272 35 367 -16 q 129 180 178 85 q 80 407 80 275 q 101 577 80 492 q 163 736 122 661 q 267 869 205 811 q 410 960 328 927 q 592 993 492 993 q 776 957 694 993 q 907 854 857 922 q 962 692 956 787 l 828 661 q 761 831 830 772 q 587 890 692 890 q 449 860 509 890 q 343 780 388 831 q 269 667 298 730 q 226 538 240 605 q 212 409 212 471 q 286 176 212 266 q 512 87 361 87 q 639 109 582 87 q 737 176 696 131 l 792 431 l 825 397 l 479 397 l 500 500 l 927 500 l 847 123 q 776 58 814 85 q 693 15 737 32 q 602 -9 650 -1 q 503 -16 554 -16 z "},"Ğ":{"ha":968,"x_min":80,"x_max":962,"o":"m 503 -16 q 272 35 367 -16 q 129 180 178 85 q 80 407 80 275 q 101 577 80 492 q 163 736 122 661 q 267 869 205 811 q 410 960 328 927 q 592 993 492 993 q 776 957 694 993 q 907 854 857 922 q 962 692 956 787 l 828 661 q 761 831 830 772 q 587 890 692 890 q 449 860 509 890 q 343 780 388 831 q 269 667 298 730 q 226 538 240 605 q 212 409 212 471 q 286 176 212 266 q 512 87 361 87 q 639 109 582 87 q 737 176 696 131 l 792 431 l 825 397 l 479 397 l 500 500 l 927 500 l 847 123 q 776 58 814 85 q 693 15 737 32 q 602 -9 650 -1 q 503 -16 554 -16 m 614 1094 q 466 1144 515 1094 q 420 1276 416 1194 l 518 1303 q 538 1215 511 1248 q 626 1181 566 1181 q 718 1213 684 1181 q 768 1296 751 1244 l 867 1270 q 773 1142 837 1190 q 614 1094 709 1094 z "},"Ǧ":{"ha":968,"x_min":80,"x_max":962,"o":"m 503 -16 q 272 35 367 -16 q 129 180 178 85 q 80 407 80 275 q 101 577 80 492 q 163 736 122 661 q 267 869 205 811 q 410 960 328 927 q 592 993 492 993 q 776 957 694 993 q 907 854 857 922 q 962 692 956 787 l 828 661 q 761 831 830 772 q 587 890 692 890 q 449 860 509 890 q 343 780 388 831 q 269 667 298 730 q 226 538 240 605 q 212 409 212 471 q 286 176 212 266 q 512 87 361 87 q 639 109 582 87 q 737 176 696 131 l 792 431 l 825 397 l 479 397 l 500 500 l 927 500 l 847 123 q 776 58 814 85 q 693 15 737 32 q 602 -9 650 -1 q 503 -16 554 -16 m 775 1321 l 856 1259 l 694 1080 l 555 1080 l 463 1275 l 558 1321 l 634 1149 l 775 1321 z "},"Ĝ":{"ha":968,"x_min":80,"x_max":962,"o":"m 503 -16 q 272 35 367 -16 q 129 180 178 85 q 80 407 80 275 q 101 577 80 492 q 163 736 122 661 q 267 869 205 811 q 410 960 328 927 q 592 993 492 993 q 776 957 694 993 q 907 854 857 922 q 962 692 956 787 l 828 661 q 761 831 830 772 q 587 890 692 890 q 449 860 509 890 q 343 780 388 831 q 269 667 298 730 q 226 538 240 605 q 212 409 212 471 q 286 176 212 266 q 512 87 361 87 q 639 109 582 87 q 737 176 696 131 l 792 431 l 825 397 l 479 397 l 500 500 l 927 500 l 847 123 q 776 58 814 85 q 693 15 737 32 q 602 -9 650 -1 q 503 -16 554 -16 m 513 1080 l 433 1141 l 594 1321 l 733 1321 l 826 1126 l 730 1080 l 654 1252 l 513 1080 z "},"Ģ":{"ha":968,"x_min":80,"x_max":962,"o":"m 503 -16 q 272 35 367 -16 q 129 180 178 85 q 80 407 80 275 q 101 577 80 492 q 163 736 122 661 q 267 869 205 811 q 410 960 328 927 q 592 993 492 993 q 776 957 694 993 q 907 854 857 922 q 962 692 956 787 l 828 661 q 761 831 830 772 q 587 890 692 890 q 449 860 509 890 q 343 780 388 831 q 269 667 298 730 q 226 538 240 605 q 212 409 212 471 q 286 176 212 266 q 512 87 361 87 q 639 109 582 87 q 737 176 696 131 l 792 431 l 825 397 l 479 397 l 500 500 l 927 500 l 847 123 q 776 58 814 85 q 693 15 737 32 q 602 -9 650 -1 q 503 -16 554 -16 m 403 -345 l 375 -294 l 389 -287 q 433 -258 420 -271 q 448 -227 446 -246 l 449 -212 l 463 -231 q 408 -208 427 -229 q 389 -159 389 -188 q 414 -98 389 -119 q 473 -76 438 -76 q 534 -99 509 -76 q 557 -165 558 -121 q 521 -265 557 -223 q 432 -332 485 -307 l 403 -345 z "},"Ġ":{"ha":968,"x_min":80,"x_max":962,"o":"m 503 -16 q 272 35 367 -16 q 129 180 178 85 q 80 407 80 275 q 101 577 80 492 q 163 736 122 661 q 267 869 205 811 q 410 960 328 927 q 592 993 492 993 q 776 957 694 993 q 907 854 857 922 q 962 692 956 787 l 828 661 q 761 831 830 772 q 587 890 692 890 q 449 860 509 890 q 343 780 388 831 q 269 667 298 730 q 226 538 240 605 q 212 409 212 471 q 286 176 212 266 q 512 87 361 87 q 639 109 582 87 q 737 176 696 131 l 792 431 l 825 397 l 479 397 l 500 500 l 927 500 l 847 123 q 776 58 814 85 q 693 15 737 32 q 602 -9 650 -1 q 503 -16 554 -16 m 632 1099 q 569 1124 593 1099 q 545 1184 545 1149 q 577 1258 545 1226 q 652 1289 609 1289 q 715 1264 691 1289 q 739 1204 739 1240 q 708 1131 739 1163 q 632 1099 676 1099 z "},"H":{"ha":962,"x_min":28,"x_max":985,"o":"m 28 0 l 234 977 l 355 977 l 267 555 l 775 555 l 863 977 l 985 977 l 779 0 l 658 0 l 753 452 l 245 452 l 149 0 l 28 0 z "},"Ħ":{"ha":962,"x_min":28,"x_max":1074,"o":"m 28 0 l 234 977 l 355 977 l 267 555 l 775 555 l 863 977 l 985 977 l 779 0 l 658 0 l 753 452 l 245 452 l 149 0 l 28 0 m 85 831 l 1074 831 l 1054 733 l 64 733 l 85 831 z "},"Ĥ":{"ha":962,"x_min":28,"x_max":985,"o":"m 28 0 l 234 977 l 355 977 l 267 555 l 775 555 l 863 977 l 985 977 l 779 0 l 658 0 l 753 452 l 245 452 l 149 0 l 28 0 m 528 1080 l 447 1141 l 608 1321 l 747 1321 l 840 1126 l 745 1080 l 669 1252 l 528 1080 z "},"I":{"ha":476,"x_min":-25,"x_max":552,"o":"m -25 0 l -4 98 l 121 98 l 286 879 l 161 879 l 182 977 l 552 977 l 531 879 l 408 879 l 242 98 l 365 98 l 344 0 l -25 0 z "},"Ĳ":{"ha":1182,"x_min":-25,"x_max":1215,"o":"m -25 0 l -4 98 l 121 98 l 286 879 l 161 879 l 182 977 l 552 977 l 531 879 l 408 879 l 242 98 l 365 98 l 344 0 l -25 0 m 770 -16 q 657 -3 711 -18 q 561 43 603 12 q 494 123 519 74 q 467 240 469 172 l 600 277 q 617 161 594 203 q 681 102 640 119 q 770 87 722 85 q 883 130 844 89 q 941 258 922 170 l 1072 873 l 707 873 l 730 977 l 1215 977 l 1059 245 q 1021 131 1046 179 q 959 50 996 82 q 876 1 923 18 q 770 -16 828 -15 z "},"Í":{"ha":476,"x_min":-25,"x_max":602,"o":"m -25 0 l -4 98 l 121 98 l 286 879 l 161 879 l 182 977 l 552 977 l 531 879 l 408 879 l 242 98 l 365 98 l 344 0 l -25 0 m 430 1054 l 359 1101 l 506 1322 l 602 1257 l 430 1054 z "},"Ĭ":{"ha":476,"x_min":-25,"x_max":639,"o":"m -25 0 l -4 98 l 121 98 l 286 879 l 161 879 l 182 977 l 552 977 l 531 879 l 408 879 l 242 98 l 365 98 l 344 0 l -25 0 m 385 1094 q 237 1144 287 1094 q 191 1276 187 1194 l 290 1303 q 310 1215 283 1248 q 397 1181 337 1181 q 489 1213 456 1181 q 540 1296 523 1244 l 639 1270 q 545 1142 608 1190 q 385 1094 481 1094 z "},"Î":{"ha":476,"x_min":-25,"x_max":597,"o":"m -25 0 l -4 98 l 121 98 l 286 879 l 161 879 l 182 977 l 552 977 l 531 879 l 408 879 l 242 98 l 365 98 l 344 0 l -25 0 m 285 1080 l 204 1141 l 366 1321 l 505 1321 l 597 1126 l 502 1080 l 426 1252 l 285 1080 z "},"Ï":{"ha":476,"x_min":-25,"x_max":656,"o":"m -25 0 l -4 98 l 121 98 l 286 879 l 161 879 l 182 977 l 552 977 l 531 879 l 408 879 l 242 98 l 365 98 l 344 0 l -25 0 m 259 1099 q 196 1124 220 1099 q 172 1184 172 1149 q 204 1258 172 1226 q 279 1289 236 1289 q 342 1264 318 1289 q 366 1204 366 1240 q 335 1131 366 1163 q 259 1099 303 1099 m 549 1099 q 486 1124 510 1099 q 462 1184 462 1149 q 494 1258 462 1226 q 569 1289 526 1289 q 632 1264 608 1289 q 656 1204 656 1240 q 624 1131 656 1163 q 549 1099 593 1099 z "},"İ":{"ha":476,"x_min":-25,"x_max":552,"o":"m -25 0 l -4 98 l 121 98 l 286 879 l 161 879 l 182 977 l 552 977 l 531 879 l 408 879 l 242 98 l 365 98 l 344 0 l -25 0 m 404 1099 q 341 1124 365 1099 q 317 1184 317 1149 q 349 1258 317 1226 q 424 1289 380 1289 q 487 1264 463 1289 q 511 1204 511 1240 q 479 1131 511 1163 q 404 1099 448 1099 z "},"Ị":{"ha":476,"x_min":-25,"x_max":552,"o":"m -25 0 l -4 98 l 121 98 l 286 879 l 161 879 l 182 977 l 552 977 l 531 879 l 408 879 l 242 98 l 365 98 l 344 0 l -25 0 m 112 -308 q 49 -283 73 -308 q 25 -223 25 -258 q 57 -150 25 -181 q 132 -118 89 -118 q 195 -143 171 -118 q 219 -203 219 -168 q 188 -276 219 -244 q 112 -308 156 -308 z "},"Ì":{"ha":476,"x_min":-25,"x_max":552,"o":"m -25 0 l -4 98 l 121 98 l 286 879 l 161 879 l 182 977 l 552 977 l 531 879 l 408 879 l 242 98 l 365 98 l 344 0 l -25 0 m 357 1055 l 178 1257 l 279 1323 l 431 1101 l 357 1055 z "},"Ī":{"ha":476,"x_min":-25,"x_max":640,"o":"m -25 0 l -4 98 l 121 98 l 286 879 l 161 879 l 182 977 l 552 977 l 531 879 l 408 879 l 242 98 l 365 98 l 344 0 l -25 0 m 193 1158 l 211 1243 l 640 1243 l 622 1158 l 193 1158 z "},"Į":{"ha":476,"x_min":-25,"x_max":552,"o":"m -25 0 l -4 98 l 121 98 l 286 879 l 161 879 l 182 977 l 552 977 l 531 879 l 408 879 l 242 98 l 365 98 l 344 0 l -25 0 m 247 -281 q 166 -265 204 -281 q 103 -218 127 -250 q 79 -142 79 -187 q 130 -39 79 -79 q 250 20 180 1 l 287 12 l 286 0 l 344 0 q 244 -50 288 -14 q 200 -132 200 -85 q 221 -179 200 -163 q 273 -195 242 -195 q 317 -188 293 -195 l 334 -264 q 247 -281 292 -281 z "},"Ĩ":{"ha":476,"x_min":-25,"x_max":656,"o":"m -25 0 l -4 98 l 121 98 l 286 879 l 161 879 l 182 977 l 552 977 l 531 879 l 408 879 l 242 98 l 365 98 l 344 0 l -25 0 m 486 1109 q 424 1123 448 1109 q 386 1155 401 1137 q 355 1187 370 1173 q 318 1200 340 1200 q 269 1177 288 1200 q 234 1113 251 1154 l 153 1143 q 218 1256 173 1218 q 329 1295 262 1295 q 393 1281 370 1295 q 431 1249 416 1267 q 460 1216 446 1230 q 494 1202 473 1202 q 541 1223 523 1202 q 576 1278 559 1243 l 656 1246 q 592 1144 635 1179 q 486 1109 548 1109 z "},"J":{"ha":719,"x_min":3,"x_max":751,"o":"m 307 -16 q 194 -3 248 -18 q 98 43 140 12 q 31 123 56 74 q 3 240 5 172 l 137 277 q 154 161 131 203 q 218 102 177 119 q 307 87 259 85 q 420 130 381 89 q 478 258 459 170 l 608 873 l 244 873 l 267 977 l 751 977 l 596 245 q 557 131 583 179 q 496 50 532 82 q 412 1 460 18 q 307 -16 365 -15 z "},"Ĵ":{"ha":719,"x_min":3,"x_max":751,"o":"m 307 -16 q 194 -3 248 -18 q 98 43 140 12 q 31 123 56 74 q 3 240 5 172 l 137 277 q 154 161 131 203 q 218 102 177 119 q 307 87 259 85 q 420 130 381 89 q 478 258 459 170 l 608 873 l 244 873 l 267 977 l 751 977 l 596 245 q 557 131 583 179 q 496 50 532 82 q 412 1 460 18 q 307 -16 365 -15 m 428 1080 l 347 1141 l 509 1321 l 648 1321 l 741 1126 l 645 1080 l 569 1252 l 428 1080 z "},"K":{"ha":892,"x_min":28,"x_max":995,"o":"m 28 0 l 235 977 l 355 977 l 259 519 l 816 977 l 995 977 l 536 602 l 781 0 l 650 0 l 437 520 l 222 344 l 149 0 l 28 0 z "},"Ķ":{"ha":892,"x_min":28,"x_max":995,"o":"m 28 0 l 235 977 l 355 977 l 259 519 l 816 977 l 995 977 l 536 602 l 781 0 l 650 0 l 437 520 l 222 344 l 149 0 l 28 0 m 311 -329 l 283 -278 l 297 -271 q 341 -242 328 -254 q 355 -211 354 -230 l 357 -196 l 370 -214 q 316 -192 335 -212 q 297 -142 297 -172 q 321 -81 297 -103 q 381 -60 346 -60 q 441 -82 417 -60 q 465 -149 466 -105 q 429 -249 465 -207 q 340 -315 393 -290 l 311 -329 z "},"L":{"ha":726,"x_min":28,"x_max":637,"o":"m 28 0 l 235 977 l 355 977 l 170 103 l 637 103 l 616 0 l 28 0 z "},"Ĺ":{"ha":726,"x_min":28,"x_max":637,"o":"m 28 0 l 235 977 l 355 977 l 170 103 l 637 103 l 616 0 l 28 0 m 359 1054 l 289 1101 l 435 1322 l 532 1257 l 359 1054 z "},"Ľ":{"ha":726,"x_min":28,"x_max":662,"o":"m 28 0 l 235 977 l 355 977 l 170 103 l 637 103 l 616 0 l 28 0 m 585 822 l 508 837 l 553 1090 l 662 1069 l 585 822 z "},"Ļ":{"ha":726,"x_min":28,"x_max":637,"o":"m 28 0 l 235 977 l 355 977 l 170 103 l 637 103 l 616 0 l 28 0 m 242 -329 l 214 -278 l 229 -271 q 273 -242 260 -254 q 287 -211 286 -230 l 288 -196 l 302 -214 q 248 -192 267 -212 q 229 -142 229 -172 q 253 -81 229 -103 q 313 -60 277 -60 q 373 -82 349 -60 q 397 -149 397 -105 q 360 -249 396 -207 q 271 -315 324 -290 l 242 -329 z "},"Ŀ":{"ha":791,"x_min":28,"x_max":722,"o":"m 28 0 l 235 977 l 355 977 l 170 103 l 637 103 l 616 0 l 28 0 m 621 420 q 549 449 578 420 q 520 521 520 479 q 549 594 520 564 q 621 623 578 623 q 693 594 664 623 q 722 521 722 564 q 693 449 722 479 q 621 420 664 420 z "},"Ł":{"ha":726,"x_min":-3,"x_max":637,"o":"m 28 0 l 235 977 l 355 977 l 170 103 l 637 103 l 616 0 l 28 0 m -3 397 l 19 502 l 425 686 l 403 581 l -3 397 z "},"M":{"ha":1160,"x_min":3,"x_max":1156,"o":"m 3 0 l 260 977 l 454 977 l 530 90 l 500 90 l 950 977 l 1156 977 l 1003 0 l 885 0 l 1025 882 l 1029 882 l 571 0 l 437 0 l 348 882 l 354 882 l 123 0 l 3 0 z "},"N":{"ha":984,"x_min":28,"x_max":1008,"o":"m 28 0 l 235 977 l 413 977 l 722 81 l 699 79 l 890 977 l 1008 977 l 800 0 l 635 0 l 315 901 l 337 903 l 144 0 l 28 0 z "},"Ń":{"ha":984,"x_min":28,"x_max":1008,"o":"m 28 0 l 235 977 l 413 977 l 722 81 l 699 79 l 890 977 l 1008 977 l 800 0 l 635 0 l 315 901 l 337 903 l 144 0 l 28 0 m 688 1054 l 617 1101 l 764 1322 l 860 1257 l 688 1054 z "},"Ň":{"ha":984,"x_min":28,"x_max":1008,"o":"m 28 0 l 235 977 l 413 977 l 722 81 l 699 79 l 890 977 l 1008 977 l 800 0 l 635 0 l 315 901 l 337 903 l 144 0 l 28 0 m 804 1321 l 885 1259 l 724 1080 l 585 1080 l 492 1275 l 587 1321 l 663 1149 l 804 1321 z "},"Ņ":{"ha":984,"x_min":28,"x_max":1008,"o":"m 28 0 l 235 977 l 413 977 l 722 81 l 699 79 l 890 977 l 1008 977 l 800 0 l 635 0 l 315 901 l 337 903 l 144 0 l 28 0 m 327 -329 l 299 -278 l 313 -271 q 357 -242 345 -254 q 372 -211 370 -230 l 373 -196 l 387 -214 q 332 -192 351 -212 q 313 -142 313 -172 q 338 -81 313 -103 q 397 -60 362 -60 q 458 -82 433 -60 q 481 -149 482 -105 q 445 -249 481 -207 q 356 -315 409 -290 l 327 -329 z "},"Ɲ":{"ha":984,"x_min":-140,"x_max":1008,"o":"m 28 0 l 235 977 l 413 977 l 722 81 l 699 79 l 890 977 l 1008 977 l 800 0 l 635 0 l 315 901 l 337 903 l 144 0 l 28 0 m -140 -264 l -119 -162 l -41 -162 q -11 -155 -19 -162 q 1 -125 -3 -147 l 33 26 l 149 26 l 111 -161 q 62 -235 100 -206 q -20 -264 24 -264 l -140 -264 z "},"Ñ":{"ha":984,"x_min":28,"x_max":1008,"o":"m 28 0 l 235 977 l 413 977 l 722 81 l 699 79 l 890 977 l 1008 977 l 800 0 l 635 0 l 315 901 l 337 903 l 144 0 l 28 0 m 744 1109 q 682 1123 705 1109 q 643 1155 659 1137 q 613 1187 628 1173 q 576 1200 598 1200 q 527 1177 545 1200 q 492 1113 509 1154 l 411 1143 q 475 1256 431 1218 q 587 1295 520 1295 q 651 1281 627 1295 q 689 1249 674 1267 q 718 1216 704 1230 q 752 1202 731 1202 q 799 1223 781 1202 q 833 1278 817 1243 l 914 1246 q 849 1144 893 1179 q 744 1109 806 1109 z "},"Ŋ":{"ha":984,"x_min":28,"x_max":1008,"o":"m 28 0 l 235 977 l 413 977 l 722 81 l 699 79 l 890 977 l 1008 977 l 800 0 l 635 0 l 315 901 l 337 903 l 144 0 l 28 0 m 516 -264 l 537 -162 l 616 -162 q 645 -155 637 -162 q 658 -125 653 -147 l 690 26 l 806 26 l 767 -161 q 719 -235 757 -206 q 636 -264 681 -264 l 516 -264 z "},"O":{"ha":1039,"x_min":81,"x_max":1010,"o":"m 490 -16 q 318 13 394 -16 q 190 97 243 41 q 109 231 137 152 q 81 410 81 310 q 113 620 81 516 q 210 807 145 723 q 373 942 275 892 q 601 993 471 993 q 820 942 728 993 q 961 795 911 891 q 1010 566 1010 700 q 978 358 1010 461 q 881 170 946 254 q 719 35 817 85 q 490 -16 621 -16 m 500 87 q 671 132 600 87 q 789 250 743 178 q 857 406 835 323 q 879 566 879 490 q 804 801 879 711 q 593 890 730 890 q 421 844 493 890 q 302 726 349 799 q 234 570 256 653 q 212 410 212 486 q 246 242 212 315 q 344 128 279 169 q 500 87 408 87 z "},"Ó":{"ha":1039,"x_min":81,"x_max":1010,"o":"m 490 -16 q 318 13 394 -16 q 190 97 243 41 q 109 231 137 152 q 81 410 81 310 q 113 620 81 516 q 210 807 145 723 q 373 942 275 892 q 601 993 471 993 q 820 942 728 993 q 961 795 911 891 q 1010 566 1010 700 q 978 358 1010 461 q 881 170 946 254 q 719 35 817 85 q 490 -16 621 -16 m 500 87 q 671 132 600 87 q 789 250 743 178 q 857 406 835 323 q 879 566 879 490 q 804 801 879 711 q 593 890 730 890 q 421 844 493 890 q 302 726 349 799 q 234 570 256 653 q 212 410 212 486 q 246 242 212 315 q 344 128 279 169 q 500 87 408 87 m 684 1054 l 614 1101 l 760 1322 l 857 1257 l 684 1054 z "},"Ŏ":{"ha":1039,"x_min":81,"x_max":1010,"o":"m 490 -16 q 318 13 394 -16 q 190 97 243 41 q 109 231 137 152 q 81 410 81 310 q 113 620 81 516 q 210 807 145 723 q 373 942 275 892 q 601 993 471 993 q 820 942 728 993 q 961 795 911 891 q 1010 566 1010 700 q 978 358 1010 461 q 881 170 946 254 q 719 35 817 85 q 490 -16 621 -16 m 500 87 q 671 132 600 87 q 789 250 743 178 q 857 406 835 323 q 879 566 879 490 q 804 801 879 711 q 593 890 730 890 q 421 844 493 890 q 302 726 349 799 q 234 570 256 653 q 212 410 212 486 q 246 242 212 315 q 344 128 279 169 q 500 87 408 87 m 640 1094 q 491 1144 541 1094 q 446 1276 441 1194 l 544 1303 q 564 1215 537 1248 q 652 1181 591 1181 q 744 1213 710 1181 q 794 1296 777 1244 l 893 1270 q 799 1142 863 1190 q 640 1094 735 1094 z "},"Ô":{"ha":1039,"x_min":81,"x_max":1010,"o":"m 490 -16 q 318 13 394 -16 q 190 97 243 41 q 109 231 137 152 q 81 410 81 310 q 113 620 81 516 q 210 807 145 723 q 373 942 275 892 q 601 993 471 993 q 820 942 728 993 q 961 795 911 891 q 1010 566 1010 700 q 978 358 1010 461 q 881 170 946 254 q 719 35 817 85 q 490 -16 621 -16 m 500 87 q 671 132 600 87 q 789 250 743 178 q 857 406 835 323 q 879 566 879 490 q 804 801 879 711 q 593 890 730 890 q 421 844 493 890 q 302 726 349 799 q 234 570 256 653 q 212 410 212 486 q 246 242 212 315 q 344 128 279 169 q 500 87 408 87 m 539 1080 l 458 1141 l 620 1321 l 759 1321 l 852 1126 l 756 1080 l 680 1252 l 539 1080 z "},"Ö":{"ha":1039,"x_min":81,"x_max":1010,"o":"m 490 -16 q 318 13 394 -16 q 190 97 243 41 q 109 231 137 152 q 81 410 81 310 q 113 620 81 516 q 210 807 145 723 q 373 942 275 892 q 601 993 471 993 q 820 942 728 993 q 961 795 911 891 q 1010 566 1010 700 q 978 358 1010 461 q 881 170 946 254 q 719 35 817 85 q 490 -16 621 -16 m 500 87 q 671 132 600 87 q 789 250 743 178 q 857 406 835 323 q 879 566 879 490 q 804 801 879 711 q 593 890 730 890 q 421 844 493 890 q 302 726 349 799 q 234 570 256 653 q 212 410 212 486 q 246 242 212 315 q 344 128 279 169 q 500 87 408 87 m 513 1099 q 451 1124 475 1099 q 427 1184 427 1149 q 458 1258 427 1226 q 534 1289 490 1289 q 596 1264 572 1289 q 621 1204 621 1240 q 589 1131 621 1163 q 513 1099 557 1099 m 803 1099 q 740 1124 764 1099 q 716 1184 716 1149 q 748 1258 716 1226 q 823 1289 780 1289 q 886 1264 862 1289 q 910 1204 910 1240 q 879 1131 910 1163 q 803 1099 847 1099 z "},"Ọ":{"ha":1039,"x_min":81,"x_max":1010,"o":"m 490 -16 q 318 13 394 -16 q 190 97 243 41 q 109 231 137 152 q 81 410 81 310 q 113 620 81 516 q 210 807 145 723 q 373 942 275 892 q 601 993 471 993 q 820 942 728 993 q 961 795 911 891 q 1010 566 1010 700 q 978 358 1010 461 q 881 170 946 254 q 719 35 817 85 q 490 -16 621 -16 m 500 87 q 671 132 600 87 q 789 250 743 178 q 857 406 835 323 q 879 566 879 490 q 804 801 879 711 q 593 890 730 890 q 421 844 493 890 q 302 726 349 799 q 234 570 256 653 q 212 410 212 486 q 246 242 212 315 q 344 128 279 169 q 500 87 408 87 m 414 -308 q 352 -283 376 -308 q 328 -223 328 -258 q 359 -150 328 -181 q 435 -118 391 -118 q 497 -143 473 -118 q 522 -203 522 -168 q 490 -276 522 -244 q 414 -308 458 -308 z "},"Ò":{"ha":1039,"x_min":81,"x_max":1010,"o":"m 490 -16 q 318 13 394 -16 q 190 97 243 41 q 109 231 137 152 q 81 410 81 310 q 113 620 81 516 q 210 807 145 723 q 373 942 275 892 q 601 993 471 993 q 820 942 728 993 q 961 795 911 891 q 1010 566 1010 700 q 978 358 1010 461 q 881 170 946 254 q 719 35 817 85 q 490 -16 621 -16 m 500 87 q 671 132 600 87 q 789 250 743 178 q 857 406 835 323 q 879 566 879 490 q 804 801 879 711 q 593 890 730 890 q 421 844 493 890 q 302 726 349 799 q 234 570 256 653 q 212 410 212 486 q 246 242 212 315 q 344 128 279 169 q 500 87 408 87 m 612 1055 l 433 1257 l 533 1323 l 686 1101 l 612 1055 z "},"Ő":{"ha":1039,"x_min":81,"x_max":1010,"o":"m 490 -16 q 318 13 394 -16 q 190 97 243 41 q 109 231 137 152 q 81 410 81 310 q 113 620 81 516 q 210 807 145 723 q 373 942 275 892 q 601 993 471 993 q 820 942 728 993 q 961 795 911 891 q 1010 566 1010 700 q 978 358 1010 461 q 881 170 946 254 q 719 35 817 85 q 490 -16 621 -16 m 500 87 q 671 132 600 87 q 789 250 743 178 q 857 406 835 323 q 879 566 879 490 q 804 801 879 711 q 593 890 730 890 q 421 844 493 890 q 302 726 349 799 q 234 570 256 653 q 212 410 212 486 q 246 242 212 315 q 344 128 279 169 q 500 87 408 87 m 522 1057 l 452 1103 l 597 1326 l 693 1261 l 522 1057 m 747 1057 l 676 1103 l 821 1325 l 918 1260 l 747 1057 z "},"Ō":{"ha":1039,"x_min":81,"x_max":1010,"o":"m 490 -16 q 318 13 394 -16 q 190 97 243 41 q 109 231 137 152 q 81 410 81 310 q 113 620 81 516 q 210 807 145 723 q 373 942 275 892 q 601 993 471 993 q 820 942 728 993 q 961 795 911 891 q 1010 566 1010 700 q 978 358 1010 461 q 881 170 946 254 q 719 35 817 85 q 490 -16 621 -16 m 500 87 q 671 132 600 87 q 789 250 743 178 q 857 406 835 323 q 879 566 879 490 q 804 801 879 711 q 593 890 730 890 q 421 844 493 890 q 302 726 349 799 q 234 570 256 653 q 212 410 212 486 q 246 242 212 315 q 344 128 279 169 q 500 87 408 87 m 357 1158 l 375 1243 l 954 1243 l 937 1158 l 357 1158 z "},"Ǫ":{"ha":1039,"x_min":81,"x_max":1010,"o":"m 490 -16 q 318 13 394 -16 q 190 97 243 41 q 109 231 137 152 q 81 410 81 310 q 113 620 81 516 q 210 807 145 723 q 373 942 275 892 q 601 993 471 993 q 820 942 728 993 q 961 795 911 891 q 1010 566 1010 700 q 978 358 1010 461 q 881 170 946 254 q 719 35 817 85 q 490 -16 621 -16 m 500 87 q 671 132 600 87 q 789 250 743 178 q 857 406 835 323 q 879 566 879 490 q 804 801 879 711 q 593 890 730 890 q 421 844 493 890 q 302 726 349 799 q 234 570 256 653 q 212 410 212 486 q 246 242 212 315 q 344 128 279 169 q 500 87 408 87 m 528 -281 q 447 -265 485 -281 q 384 -218 408 -250 q 360 -142 360 -187 q 410 -39 360 -79 q 531 20 460 1 l 568 12 l 567 0 l 625 0 q 525 -50 569 -14 q 481 -132 481 -85 q 502 -179 481 -163 q 554 -195 523 -195 q 597 -188 574 -195 l 614 -264 q 528 -281 573 -281 z "},"Ø":{"ha":1039,"x_min":-8,"x_max":1100,"o":"m 490 -16 q 318 13 394 -16 q 190 97 243 41 q 109 231 137 152 q 81 410 81 310 q 113 620 81 516 q 210 807 145 723 q 373 942 275 892 q 601 993 471 993 q 820 942 728 993 q 961 795 911 891 q 1010 566 1010 700 q 978 358 1010 461 q 881 170 946 254 q 719 35 817 85 q 490 -16 621 -16 m 500 87 q 671 132 600 87 q 789 250 743 178 q 857 406 835 323 q 879 566 879 490 q 804 801 879 711 q 593 890 730 890 q 421 844 493 890 q 302 726 349 799 q 234 570 256 653 q 212 410 212 486 q 246 242 212 315 q 344 128 279 169 q 500 87 408 87 m 60 -22 l -8 53 l 1031 999 l 1100 924 l 60 -22 z "},"Ǿ":{"ha":1039,"x_min":-8,"x_max":1100,"o":"m 490 -16 q 318 13 394 -16 q 190 97 243 41 q 109 231 137 152 q 81 410 81 310 q 113 620 81 516 q 210 807 145 723 q 373 942 275 892 q 601 993 471 993 q 820 942 728 993 q 961 795 911 891 q 1010 566 1010 700 q 978 358 1010 461 q 881 170 946 254 q 719 35 817 85 q 490 -16 621 -16 m 500 87 q 671 132 600 87 q 789 250 743 178 q 857 406 835 323 q 879 566 879 490 q 804 801 879 711 q 593 890 730 890 q 421 844 493 890 q 302 726 349 799 q 234 570 256 653 q 212 410 212 486 q 246 242 212 315 q 344 128 279 169 q 500 87 408 87 m 60 -22 l -8 53 l 1031 999 l 1100 924 l 60 -22 m 684 1054 l 614 1101 l 760 1322 l 857 1257 l 684 1054 z "},"Õ":{"ha":1039,"x_min":81,"x_max":1010,"o":"m 490 -16 q 318 13 394 -16 q 190 97 243 41 q 109 231 137 152 q 81 410 81 310 q 113 620 81 516 q 210 807 145 723 q 373 942 275 892 q 601 993 471 993 q 820 942 728 993 q 961 795 911 891 q 1010 566 1010 700 q 978 358 1010 461 q 881 170 946 254 q 719 35 817 85 q 490 -16 621 -16 m 500 87 q 671 132 600 87 q 789 250 743 178 q 857 406 835 323 q 879 566 879 490 q 804 801 879 711 q 593 890 730 890 q 421 844 493 890 q 302 726 349 799 q 234 570 256 653 q 212 410 212 486 q 246 242 212 315 q 344 128 279 169 q 500 87 408 87 m 741 1109 q 679 1123 702 1109 q 640 1155 655 1137 q 610 1187 625 1173 q 572 1200 595 1200 q 524 1177 542 1200 q 488 1113 505 1154 l 408 1143 q 472 1256 427 1218 q 583 1295 517 1295 q 647 1281 624 1295 q 686 1249 671 1267 q 714 1216 701 1230 q 749 1202 728 1202 q 795 1223 777 1202 q 830 1278 813 1243 l 911 1246 q 846 1144 890 1179 q 741 1109 802 1109 z "},"Œ":{"ha":1498,"x_min":94,"x_max":1571,"o":"m 469 -16 q 312 12 381 -16 q 194 95 243 41 q 120 227 145 149 q 94 404 94 305 q 125 616 94 511 q 218 806 157 721 q 369 942 279 891 q 578 993 459 993 q 804 926 709 993 q 933 731 900 859 l 906 752 l 954 977 l 1571 977 l 1550 873 l 1053 873 l 989 571 l 1423 571 l 1402 468 l 967 468 l 889 103 l 1396 103 l 1375 0 l 747 0 l 777 144 l 791 140 q 654 22 741 60 q 469 -16 568 -16 m 225 404 q 290 175 225 262 q 482 87 355 87 q 645 133 576 87 q 760 252 714 178 q 828 410 805 325 q 850 572 850 494 q 779 803 850 715 q 581 890 707 890 q 419 844 487 890 q 309 724 352 798 q 245 566 266 650 q 225 404 225 481 z "},"P":{"ha":822,"x_min":28,"x_max":850,"o":"m 28 0 l 235 977 l 506 977 q 685 955 608 977 q 806 882 763 933 q 850 740 850 830 q 834 637 850 691 q 780 536 818 583 q 675 460 741 490 q 510 431 610 431 l 240 431 l 149 0 l 28 0 m 262 534 l 519 534 q 666 584 608 534 q 724 720 724 635 q 675 833 724 793 q 521 874 626 874 l 334 874 l 262 534 z "},"Þ":{"ha":821,"x_min":28,"x_max":803,"o":"m 28 0 l 235 977 l 356 977 l 311 760 l 459 760 q 638 739 561 760 q 760 665 716 717 q 803 524 803 614 q 787 421 803 475 q 733 320 771 367 q 628 244 694 273 q 463 215 562 215 l 194 215 l 149 0 l 28 0 m 216 317 l 471 317 q 618 368 560 317 q 677 504 677 418 q 628 617 677 576 q 473 658 578 658 l 288 658 l 216 317 z "},"Q":{"ha":1039,"x_min":81,"x_max":1010,"o":"m 488 -204 q 408 -172 436 -204 q 389 -90 380 -139 l 416 41 l 525 41 l 503 -67 q 504 -96 498 -88 q 527 -104 509 -104 l 629 -104 l 610 -204 l 488 -204 m 490 -16 q 318 13 394 -16 q 190 97 243 41 q 109 231 137 152 q 81 410 81 310 q 113 620 81 516 q 210 807 145 723 q 373 942 275 892 q 601 993 471 993 q 820 942 728 993 q 961 795 911 891 q 1010 566 1010 700 q 978 358 1010 461 q 881 170 946 254 q 719 35 817 85 q 490 -16 621 -16 m 500 87 q 671 132 600 87 q 789 250 743 178 q 857 406 835 323 q 879 566 879 490 q 804 801 879 711 q 593 890 730 890 q 421 844 493 890 q 302 726 349 799 q 234 570 256 653 q 212 410 212 486 q 246 242 212 315 q 344 128 279 169 q 500 87 408 87 z "},"R":{"ha":846,"x_min":28,"x_max":870,"o":"m 28 0 l 235 977 l 543 977 q 738 946 666 977 q 840 862 809 915 q 870 745 870 810 q 857 655 870 705 q 810 562 844 606 q 714 488 776 517 q 555 458 652 458 l 246 458 l 149 0 l 28 0 m 572 0 l 433 494 l 565 494 l 708 0 l 572 0 m 268 562 l 549 562 q 691 607 637 562 q 745 726 746 653 q 724 798 744 764 q 660 853 705 831 q 538 874 615 874 l 334 874 l 268 562 z "},"Ŕ":{"ha":846,"x_min":28,"x_max":870,"o":"m 28 0 l 235 977 l 543 977 q 738 946 666 977 q 840 862 809 915 q 870 745 870 810 q 857 655 870 705 q 810 562 844 606 q 714 488 776 517 q 555 458 652 458 l 246 458 l 149 0 l 28 0 m 572 0 l 433 494 l 565 494 l 708 0 l 572 0 m 268 562 l 549 562 q 691 607 637 562 q 745 726 746 653 q 724 798 744 764 q 660 853 705 831 q 538 874 615 874 l 334 874 l 268 562 m 591 1054 l 521 1101 l 667 1322 l 764 1257 l 591 1054 z "},"Ř":{"ha":846,"x_min":28,"x_max":870,"o":"m 28 0 l 235 977 l 543 977 q 738 946 666 977 q 840 862 809 915 q 870 745 870 810 q 857 655 870 705 q 810 562 844 606 q 714 488 776 517 q 555 458 652 458 l 246 458 l 149 0 l 28 0 m 572 0 l 433 494 l 565 494 l 708 0 l 572 0 m 268 562 l 549 562 q 691 607 637 562 q 745 726 746 653 q 724 798 744 764 q 660 853 705 831 q 538 874 615 874 l 334 874 l 268 562 m 708 1321 l 789 1259 l 627 1080 l 488 1080 l 395 1275 l 491 1321 l 567 1149 l 708 1321 z "},"Ŗ":{"ha":846,"x_min":28,"x_max":870,"o":"m 28 0 l 235 977 l 543 977 q 738 946 666 977 q 840 862 809 915 q 870 745 870 810 q 857 655 870 705 q 810 562 844 606 q 714 488 776 517 q 555 458 652 458 l 246 458 l 149 0 l 28 0 m 572 0 l 433 494 l 565 494 l 708 0 l 572 0 m 268 562 l 549 562 q 691 607 637 562 q 745 726 746 653 q 724 798 744 764 q 660 853 705 831 q 538 874 615 874 l 334 874 l 268 562 m 241 -329 l 213 -278 l 227 -271 q 271 -242 258 -254 q 286 -211 284 -230 l 287 -196 l 300 -214 q 246 -192 265 -212 q 227 -142 227 -172 q 252 -81 227 -103 q 311 -60 276 -60 q 372 -82 347 -60 q 395 -149 396 -105 q 359 -249 395 -207 q 270 -315 323 -290 l 241 -329 z "},"S":{"ha":817,"x_min":26,"x_max":829,"o":"m 392 -16 q 247 6 312 -16 q 133 69 181 28 q 57 170 85 111 q 26 302 29 229 l 174 333 q 185 205 161 261 q 263 118 209 150 q 393 87 317 87 q 523 119 474 87 q 595 198 572 151 q 618 294 618 246 q 589 380 618 346 q 489 439 560 414 l 374 479 q 309 504 346 490 q 239 542 273 517 q 183 605 205 566 q 161 706 161 645 q 201 849 161 784 q 317 954 241 914 q 500 993 393 993 q 632 974 573 993 q 733 920 690 955 q 801 837 776 885 q 829 728 825 788 l 688 698 q 673 789 694 745 q 607 861 653 833 q 488 890 560 890 q 382 870 429 890 q 309 813 336 850 q 281 729 281 777 q 317 647 281 679 q 438 587 353 616 l 522 558 q 634 505 584 537 q 715 423 685 472 q 745 302 745 374 q 726 194 745 250 q 665 90 707 138 q 556 13 623 42 q 392 -16 488 -16 z "},"Ś":{"ha":817,"x_min":26,"x_max":829,"o":"m 392 -16 q 247 6 312 -16 q 133 69 181 28 q 57 170 85 111 q 26 302 29 229 l 174 333 q 185 205 161 261 q 263 118 209 150 q 393 87 317 87 q 523 119 474 87 q 595 198 572 151 q 618 294 618 246 q 589 380 618 346 q 489 439 560 414 l 374 479 q 309 504 346 490 q 239 542 273 517 q 183 605 205 566 q 161 706 161 645 q 201 849 161 784 q 317 954 241 914 q 500 993 393 993 q 632 974 573 993 q 733 920 690 955 q 801 837 776 885 q 829 728 825 788 l 688 698 q 673 789 694 745 q 607 861 653 833 q 488 890 560 890 q 382 870 429 890 q 309 813 336 850 q 281 729 281 777 q 317 647 281 679 q 438 587 353 616 l 522 558 q 634 505 584 537 q 715 423 685 472 q 745 302 745 374 q 726 194 745 250 q 665 90 707 138 q 556 13 623 42 q 392 -16 488 -16 m 586 1054 l 515 1101 l 662 1322 l 758 1257 l 586 1054 z "},"Š":{"ha":817,"x_min":26,"x_max":829,"o":"m 392 -16 q 247 6 312 -16 q 133 69 181 28 q 57 170 85 111 q 26 302 29 229 l 174 333 q 185 205 161 261 q 263 118 209 150 q 393 87 317 87 q 523 119 474 87 q 595 198 572 151 q 618 294 618 246 q 589 380 618 346 q 489 439 560 414 l 374 479 q 309 504 346 490 q 239 542 273 517 q 183 605 205 566 q 161 706 161 645 q 201 849 161 784 q 317 954 241 914 q 500 993 393 993 q 632 974 573 993 q 733 920 690 955 q 801 837 776 885 q 829 728 825 788 l 688 698 q 673 789 694 745 q 607 861 653 833 q 488 890 560 890 q 382 870 429 890 q 309 813 336 850 q 281 729 281 777 q 317 647 281 679 q 438 587 353 616 l 522 558 q 634 505 584 537 q 715 423 685 472 q 745 302 745 374 q 726 194 745 250 q 665 90 707 138 q 556 13 623 42 q 392 -16 488 -16 m 703 1321 l 783 1259 l 622 1080 l 483 1080 l 390 1275 l 486 1321 l 562 1149 l 703 1321 z "},"Ş":{"ha":817,"x_min":26,"x_max":829,"o":"m 392 -16 q 247 6 312 -16 q 133 69 181 28 q 57 170 85 111 q 26 302 29 229 l 174 333 q 185 205 161 261 q 263 118 209 150 q 393 87 317 87 q 523 119 474 87 q 595 198 572 151 q 618 294 618 246 q 589 380 618 346 q 489 439 560 414 l 374 479 q 309 504 346 490 q 239 542 273 517 q 183 605 205 566 q 161 706 161 645 q 201 849 161 784 q 317 954 241 914 q 500 993 393 993 q 632 974 573 993 q 733 920 690 955 q 801 837 776 885 q 829 728 825 788 l 688 698 q 673 789 694 745 q 607 861 653 833 q 488 890 560 890 q 382 870 429 890 q 309 813 336 850 q 281 729 281 777 q 317 647 281 679 q 438 587 353 616 l 522 558 q 634 505 584 537 q 715 423 685 472 q 745 302 745 374 q 726 194 745 250 q 665 90 707 138 q 556 13 623 42 q 392 -16 488 -16 m 374 -281 q 300 -272 340 -281 q 229 -240 260 -263 l 263 -170 q 305 -192 281 -181 q 366 -202 330 -202 q 415 -194 389 -202 q 443 -159 440 -186 q 418 -121 446 -134 q 319 -105 391 -107 l 322 -79 l 351 28 l 444 28 l 442 14 l 422 -69 l 391 -44 q 512 -90 484 -57 q 536 -165 541 -123 q 493 -246 531 -211 q 374 -281 455 -281 z "},"Ŝ":{"ha":817,"x_min":26,"x_max":829,"o":"m 392 -16 q 247 6 312 -16 q 133 69 181 28 q 57 170 85 111 q 26 302 29 229 l 174 333 q 185 205 161 261 q 263 118 209 150 q 393 87 317 87 q 523 119 474 87 q 595 198 572 151 q 618 294 618 246 q 589 380 618 346 q 489 439 560 414 l 374 479 q 309 504 346 490 q 239 542 273 517 q 183 605 205 566 q 161 706 161 645 q 201 849 161 784 q 317 954 241 914 q 500 993 393 993 q 632 974 573 993 q 733 920 690 955 q 801 837 776 885 q 829 728 825 788 l 688 698 q 673 789 694 745 q 607 861 653 833 q 488 890 560 890 q 382 870 429 890 q 309 813 336 850 q 281 729 281 777 q 317 647 281 679 q 438 587 353 616 l 522 558 q 634 505 584 537 q 715 423 685 472 q 745 302 745 374 q 726 194 745 250 q 665 90 707 138 q 556 13 623 42 q 392 -16 488 -16 m 441 1080 l 360 1141 l 522 1321 l 661 1321 l 753 1126 l 658 1080 l 582 1252 l 441 1080 z "},"Ș":{"ha":817,"x_min":26,"x_max":829,"o":"m 392 -16 q 247 6 312 -16 q 133 69 181 28 q 57 170 85 111 q 26 302 29 229 l 174 333 q 185 205 161 261 q 263 118 209 150 q 393 87 317 87 q 523 119 474 87 q 595 198 572 151 q 618 294 618 246 q 589 380 618 346 q 489 439 560 414 l 374 479 q 309 504 346 490 q 239 542 273 517 q 183 605 205 566 q 161 706 161 645 q 201 849 161 784 q 317 954 241 914 q 500 993 393 993 q 632 974 573 993 q 733 920 690 955 q 801 837 776 885 q 829 728 825 788 l 688 698 q 673 789 694 745 q 607 861 653 833 q 488 890 560 890 q 382 870 429 890 q 309 813 336 850 q 281 729 281 777 q 317 647 281 679 q 438 587 353 616 l 522 558 q 634 505 584 537 q 715 423 685 472 q 745 302 745 374 q 726 194 745 250 q 665 90 707 138 q 556 13 623 42 q 392 -16 488 -16 m 289 -329 l 261 -278 l 275 -271 q 319 -242 307 -254 q 334 -211 332 -230 l 335 -196 l 349 -214 q 294 -192 313 -212 q 275 -142 275 -172 q 300 -81 275 -103 q 359 -60 324 -60 q 420 -82 395 -60 q 444 -149 444 -105 q 407 -249 443 -207 q 318 -315 371 -290 l 289 -329 z "},"ẞ":{"ha":932,"x_min":13,"x_max":908,"o":"m 509 -23 q 401 -12 454 -23 q 304 22 349 0 l 330 146 q 427 105 378 118 q 520 92 475 92 q 640 119 592 92 q 712 188 688 146 q 736 277 736 231 q 699 374 736 329 q 562 437 662 420 l 473 452 l 493 550 l 765 825 q 575 878 675 878 q 371 810 452 878 q 263 619 289 742 l 133 0 l 13 0 l 146 633 q 233 825 170 744 q 390 949 296 905 q 596 993 483 993 q 757 968 681 993 q 908 897 833 943 l 884 791 l 616 539 q 759 483 705 525 q 838 385 813 440 q 863 274 863 329 q 824 135 863 203 q 706 22 785 66 q 509 -23 628 -23 z "},"T":{"ha":853,"x_min":139,"x_max":952,"o":"m 290 0 l 475 873 l 139 873 l 161 977 l 952 977 l 930 873 l 595 873 l 410 0 l 290 0 z "},"Ŧ":{"ha":853,"x_min":139,"x_max":952,"o":"m 290 0 l 475 873 l 139 873 l 161 977 l 952 977 l 930 873 l 595 873 l 410 0 l 290 0 m 203 437 l 225 540 l 701 540 l 679 437 l 203 437 z "},"Ť":{"ha":853,"x_min":139,"x_max":952,"o":"m 290 0 l 475 873 l 139 873 l 161 977 l 952 977 l 930 873 l 595 873 l 410 0 l 290 0 m 735 1321 l 816 1259 l 654 1080 l 515 1080 l 422 1275 l 518 1321 l 594 1149 l 735 1321 z "},"Ţ":{"ha":853,"x_min":139,"x_max":952,"o":"m 290 0 l 475 873 l 139 873 l 161 977 l 952 977 l 930 873 l 595 873 l 410 0 l 290 0 m 333 -281 q 259 -272 299 -281 q 189 -240 220 -263 l 222 -170 q 264 -192 240 -181 q 326 -202 289 -202 q 374 -194 349 -202 q 402 -159 399 -186 q 378 -121 405 -134 q 279 -105 351 -107 l 281 -79 l 310 28 l 403 28 l 401 14 l 381 -69 l 351 -44 q 472 -90 444 -57 q 495 -165 500 -123 q 452 -246 490 -211 q 333 -281 414 -281 z "},"Ț":{"ha":853,"x_min":139,"x_max":952,"o":"m 290 0 l 475 873 l 139 873 l 161 977 l 952 977 l 930 873 l 595 873 l 410 0 l 290 0 m 248 -329 l 220 -278 l 235 -271 q 279 -242 266 -254 q 293 -211 292 -230 l 294 -196 l 308 -214 q 254 -192 273 -212 q 235 -142 235 -172 q 259 -81 235 -103 q 319 -60 283 -60 q 379 -82 355 -60 q 403 -149 404 -105 q 366 -249 402 -207 q 277 -315 330 -290 l 248 -329 z "},"U":{"ha":899,"x_min":62,"x_max":935,"o":"m 414 -16 q 218 30 301 -16 q 99 158 136 75 q 85 351 62 240 l 217 977 l 338 977 l 207 358 q 208 225 192 288 q 272 125 223 163 q 408 87 321 87 q 583 148 513 87 q 675 320 652 210 l 814 977 l 935 977 l 791 297 q 720 129 771 199 q 592 21 669 59 q 414 -16 515 -16 z "},"Ú":{"ha":899,"x_min":62,"x_max":935,"o":"m 414 -16 q 218 30 301 -16 q 99 158 136 75 q 85 351 62 240 l 217 977 l 338 977 l 207 358 q 208 225 192 288 q 272 125 223 163 q 408 87 321 87 q 583 148 513 87 q 675 320 652 210 l 814 977 l 935 977 l 791 297 q 720 129 771 199 q 592 21 669 59 q 414 -16 515 -16 m 639 1054 l 568 1101 l 715 1322 l 811 1257 l 639 1054 z "},"Ŭ":{"ha":899,"x_min":62,"x_max":935,"o":"m 414 -16 q 218 30 301 -16 q 99 158 136 75 q 85 351 62 240 l 217 977 l 338 977 l 207 358 q 208 225 192 288 q 272 125 223 163 q 408 87 321 87 q 583 148 513 87 q 675 320 652 210 l 814 977 l 935 977 l 791 297 q 720 129 771 199 q 592 21 669 59 q 414 -16 515 -16 m 594 1094 q 446 1144 496 1094 q 400 1276 396 1194 l 498 1303 q 519 1215 492 1248 q 606 1181 546 1181 q 698 1213 665 1181 q 749 1296 732 1244 l 848 1270 q 753 1142 817 1190 q 594 1094 690 1094 z "},"Û":{"ha":899,"x_min":62,"x_max":935,"o":"m 414 -16 q 218 30 301 -16 q 99 158 136 75 q 85 351 62 240 l 217 977 l 338 977 l 207 358 q 208 225 192 288 q 272 125 223 163 q 408 87 321 87 q 583 148 513 87 q 675 320 652 210 l 814 977 l 935 977 l 791 297 q 720 129 771 199 q 592 21 669 59 q 414 -16 515 -16 m 494 1080 l 413 1141 l 574 1321 l 713 1321 l 806 1126 l 711 1080 l 635 1252 l 494 1080 z "},"Ü":{"ha":899,"x_min":62,"x_max":935,"o":"m 414 -16 q 218 30 301 -16 q 99 158 136 75 q 85 351 62 240 l 217 977 l 338 977 l 207 358 q 208 225 192 288 q 272 125 223 163 q 408 87 321 87 q 583 148 513 87 q 675 320 652 210 l 814 977 l 935 977 l 791 297 q 720 129 771 199 q 592 21 669 59 q 414 -16 515 -16 m 468 1099 q 405 1124 429 1099 q 381 1184 381 1149 q 413 1258 381 1226 q 488 1289 445 1289 q 551 1264 527 1289 q 575 1204 575 1240 q 544 1131 575 1163 q 468 1099 512 1099 m 758 1099 q 695 1124 719 1099 q 671 1184 671 1149 q 703 1258 671 1226 q 778 1289 734 1289 q 841 1264 817 1289 q 865 1204 865 1240 q 833 1131 865 1163 q 758 1099 802 1099 z "},"Ụ":{"ha":899,"x_min":62,"x_max":935,"o":"m 414 -16 q 218 30 301 -16 q 99 158 136 75 q 85 351 62 240 l 217 977 l 338 977 l 207 358 q 208 225 192 288 q 272 125 223 163 q 408 87 321 87 q 583 148 513 87 q 675 320 652 210 l 814 977 l 935 977 l 791 297 q 720 129 771 199 q 592 21 669 59 q 414 -16 515 -16 m 330 -308 q 267 -283 291 -308 q 243 -223 243 -258 q 275 -150 243 -181 q 350 -118 307 -118 q 413 -143 389 -118 q 437 -203 437 -168 q 405 -276 437 -244 q 330 -308 374 -308 z "},"Ù":{"ha":899,"x_min":62,"x_max":935,"o":"m 414 -16 q 218 30 301 -16 q 99 158 136 75 q 85 351 62 240 l 217 977 l 338 977 l 207 358 q 208 225 192 288 q 272 125 223 163 q 408 87 321 87 q 583 148 513 87 q 675 320 652 210 l 814 977 l 935 977 l 791 297 q 720 129 771 199 q 592 21 669 59 q 414 -16 515 -16 m 566 1055 l 387 1257 l 488 1323 l 640 1101 l 566 1055 z "},"Ű":{"ha":899,"x_min":62,"x_max":935,"o":"m 414 -16 q 218 30 301 -16 q 99 158 136 75 q 85 351 62 240 l 217 977 l 338 977 l 207 358 q 208 225 192 288 q 272 125 223 163 q 408 87 321 87 q 583 148 513 87 q 675 320 652 210 l 814 977 l 935 977 l 791 297 q 720 129 771 199 q 592 21 669 59 q 414 -16 515 -16 m 477 1057 l 406 1103 l 551 1326 l 648 1261 l 477 1057 m 701 1057 l 631 1103 l 776 1325 l 872 1260 l 701 1057 z "},"Ū":{"ha":899,"x_min":62,"x_max":935,"o":"m 414 -16 q 218 30 301 -16 q 99 158 136 75 q 85 351 62 240 l 217 977 l 338 977 l 207 358 q 208 225 192 288 q 272 125 223 163 q 408 87 321 87 q 583 148 513 87 q 675 320 652 210 l 814 977 l 935 977 l 791 297 q 720 129 771 199 q 592 21 669 59 q 414 -16 515 -16 m 312 1158 l 330 1243 l 909 1243 l 891 1158 l 312 1158 z "},"Ų":{"ha":899,"x_min":62,"x_max":935,"o":"m 414 -16 q 218 30 301 -16 q 99 158 136 75 q 85 351 62 240 l 217 977 l 338 977 l 207 358 q 208 225 192 288 q 272 125 223 163 q 408 87 321 87 q 583 148 513 87 q 675 320 652 210 l 814 977 l 935 977 l 791 297 q 720 129 771 199 q 592 21 669 59 q 414 -16 515 -16 m 436 -281 q 355 -265 393 -281 q 293 -218 317 -250 q 269 -142 269 -187 q 319 -39 269 -79 q 439 20 369 1 l 476 12 l 475 0 l 533 0 q 433 -50 477 -14 q 389 -132 389 -85 q 410 -179 389 -163 q 463 -195 431 -195 q 506 -188 482 -195 l 523 -264 q 436 -281 481 -281 z "},"Ů":{"ha":899,"x_min":62,"x_max":935,"o":"m 414 -16 q 218 30 301 -16 q 99 158 136 75 q 85 351 62 240 l 217 977 l 338 977 l 207 358 q 208 225 192 288 q 272 125 223 163 q 408 87 321 87 q 583 148 513 87 q 675 320 652 210 l 814 977 l 935 977 l 791 297 q 720 129 771 199 q 592 21 669 59 q 414 -16 515 -16 m 598 1035 q 498 1070 537 1035 q 459 1167 459 1105 q 479 1249 459 1210 q 537 1313 499 1288 q 629 1337 575 1337 q 729 1302 690 1337 q 768 1205 768 1267 q 748 1123 768 1162 q 689 1060 727 1084 q 598 1035 651 1035 m 605 1110 q 655 1126 637 1110 q 680 1164 673 1143 q 686 1201 686 1185 q 669 1245 686 1230 q 623 1261 652 1261 q 559 1232 579 1261 q 540 1173 540 1202 q 557 1127 540 1143 q 605 1110 575 1110 z "},"Ũ":{"ha":899,"x_min":62,"x_max":935,"o":"m 414 -16 q 218 30 301 -16 q 99 158 136 75 q 85 351 62 240 l 217 977 l 338 977 l 207 358 q 208 225 192 288 q 272 125 223 163 q 408 87 321 87 q 583 148 513 87 q 675 320 652 210 l 814 977 l 935 977 l 791 297 q 720 129 771 199 q 592 21 669 59 q 414 -16 515 -16 m 695 1109 q 633 1123 656 1109 q 594 1155 610 1137 q 564 1187 579 1173 q 527 1200 549 1200 q 478 1177 496 1200 q 443 1113 460 1154 l 362 1143 q 427 1256 382 1218 q 538 1295 471 1295 q 602 1281 578 1295 q 640 1249 625 1267 q 669 1216 655 1230 q 703 1202 682 1202 q 750 1223 732 1202 q 785 1278 768 1243 l 865 1246 q 801 1144 844 1179 q 695 1109 757 1109 z "},"V":{"ha":901,"x_min":159,"x_max":1002,"o":"m 309 0 l 159 977 l 280 977 l 399 86 l 374 86 l 863 977 l 1002 977 l 441 0 l 309 0 z "},"W":{"ha":1246,"x_min":157,"x_max":1338,"o":"m 157 0 l 168 977 l 283 977 l 262 93 l 260 93 l 681 977 l 815 977 l 865 93 l 862 93 l 1215 977 l 1338 977 l 937 0 l 760 0 l 720 883 l 747 883 l 335 0 l 157 0 z "},"Ẃ":{"ha":1246,"x_min":157,"x_max":1338,"o":"m 157 0 l 168 977 l 283 977 l 262 93 l 260 93 l 681 977 l 815 977 l 865 93 l 862 93 l 1215 977 l 1338 977 l 937 0 l 760 0 l 720 883 l 747 883 l 335 0 l 157 0 m 808 1054 l 738 1101 l 884 1322 l 981 1257 l 808 1054 z "},"Ŵ":{"ha":1246,"x_min":157,"x_max":1338,"o":"m 157 0 l 168 977 l 283 977 l 262 93 l 260 93 l 681 977 l 815 977 l 865 93 l 862 93 l 1215 977 l 1338 977 l 937 0 l 760 0 l 720 883 l 747 883 l 335 0 l 157 0 m 663 1080 l 583 1141 l 744 1321 l 883 1321 l 976 1126 l 880 1080 l 804 1252 l 663 1080 z "},"Ẅ":{"ha":1246,"x_min":157,"x_max":1338,"o":"m 157 0 l 168 977 l 283 977 l 262 93 l 260 93 l 681 977 l 815 977 l 865 93 l 862 93 l 1215 977 l 1338 977 l 937 0 l 760 0 l 720 883 l 747 883 l 335 0 l 157 0 m 637 1099 q 575 1124 599 1099 q 551 1184 551 1149 q 583 1258 551 1226 q 658 1289 614 1289 q 721 1264 696 1289 q 745 1204 745 1240 q 713 1131 745 1163 q 637 1099 682 1099 m 927 1099 q 864 1124 888 1099 q 840 1184 840 1149 q 872 1258 840 1226 q 947 1289 904 1289 q 1010 1264 986 1289 q 1034 1204 1034 1240 q 1003 1131 1034 1163 q 927 1099 971 1099 z "},"Ẁ":{"ha":1246,"x_min":157,"x_max":1338,"o":"m 157 0 l 168 977 l 283 977 l 262 93 l 260 93 l 681 977 l 815 977 l 865 93 l 862 93 l 1215 977 l 1338 977 l 937 0 l 760 0 l 720 883 l 747 883 l 335 0 l 157 0 m 736 1055 l 557 1257 l 657 1323 l 810 1101 l 736 1055 z "},"X":{"ha":873,"x_min":-49,"x_max":963,"o":"m -49 0 l 384 497 l 161 977 l 290 977 l 463 578 l 814 977 l 963 977 l 535 503 l 767 0 l 631 0 l 454 408 l 104 0 l -49 0 z "},"Y":{"ha":827,"x_min":155,"x_max":931,"o":"m 271 0 l 358 414 l 155 977 l 271 977 l 450 465 l 404 472 l 791 977 l 931 977 l 475 391 l 391 0 l 271 0 z "},"Ý":{"ha":827,"x_min":155,"x_max":931,"o":"m 271 0 l 358 414 l 155 977 l 271 977 l 450 465 l 404 472 l 791 977 l 931 977 l 475 391 l 391 0 l 271 0 m 585 1054 l 515 1101 l 661 1322 l 758 1257 l 585 1054 z "},"Ŷ":{"ha":827,"x_min":155,"x_max":931,"o":"m 271 0 l 358 414 l 155 977 l 271 977 l 450 465 l 404 472 l 791 977 l 931 977 l 475 391 l 391 0 l 271 0 m 440 1080 l 359 1141 l 521 1321 l 660 1321 l 753 1126 l 657 1080 l 581 1252 l 440 1080 z "},"Ÿ":{"ha":827,"x_min":155,"x_max":931,"o":"m 271 0 l 358 414 l 155 977 l 271 977 l 450 465 l 404 472 l 791 977 l 931 977 l 475 391 l 391 0 l 271 0 m 414 1099 q 352 1124 376 1099 q 328 1184 328 1149 q 359 1258 328 1226 q 435 1289 391 1289 q 497 1264 473 1289 q 522 1204 522 1240 q 490 1131 522 1163 q 414 1099 458 1099 m 704 1099 q 641 1124 665 1099 q 617 1184 617 1149 q 649 1258 617 1226 q 724 1289 681 1289 q 787 1264 763 1289 q 811 1204 811 1240 q 780 1131 811 1163 q 704 1099 748 1099 z "},"Ỳ":{"ha":827,"x_min":155,"x_max":931,"o":"m 271 0 l 358 414 l 155 977 l 271 977 l 450 465 l 404 472 l 791 977 l 931 977 l 475 391 l 391 0 l 271 0 m 513 1055 l 334 1257 l 434 1323 l 587 1101 l 513 1055 z "},"Ȳ":{"ha":827,"x_min":155,"x_max":931,"o":"m 271 0 l 358 414 l 155 977 l 271 977 l 450 465 l 404 472 l 791 977 l 931 977 l 475 391 l 391 0 l 271 0 m 258 1158 l 276 1243 l 855 1243 l 838 1158 l 258 1158 z "},"Ỹ":{"ha":827,"x_min":155,"x_max":931,"o":"m 271 0 l 358 414 l 155 977 l 271 977 l 450 465 l 404 472 l 791 977 l 931 977 l 475 391 l 391 0 l 271 0 m 642 1109 q 579 1123 603 1109 q 541 1155 556 1137 q 511 1187 526 1173 q 473 1200 496 1200 q 425 1177 443 1200 q 389 1113 406 1154 l 309 1143 q 373 1256 328 1218 q 484 1295 418 1295 q 548 1281 525 1295 q 587 1249 572 1267 q 615 1216 602 1230 q 650 1202 629 1202 q 696 1223 678 1202 q 731 1278 714 1243 l 812 1246 q 747 1144 791 1179 q 642 1109 703 1109 z "},"Z":{"ha":795,"x_min":-37,"x_max":878,"o":"m -37 0 l -20 81 l 694 869 l 165 869 l 187 977 l 878 977 l 860 893 l 148 107 l 694 107 l 673 0 l -37 0 z "},"Ź":{"ha":795,"x_min":-37,"x_max":878,"o":"m -37 0 l -20 81 l 694 869 l 165 869 l 187 977 l 878 977 l 860 893 l 148 107 l 694 107 l 673 0 l -37 0 m 576 1054 l 505 1101 l 652 1322 l 748 1257 l 576 1054 z "},"Ž":{"ha":795,"x_min":-37,"x_max":878,"o":"m -37 0 l -20 81 l 694 869 l 165 869 l 187 977 l 878 977 l 860 893 l 148 107 l 694 107 l 673 0 l -37 0 m 692 1321 l 773 1259 l 612 1080 l 473 1080 l 380 1275 l 475 1321 l 551 1149 l 692 1321 z "},"Ż":{"ha":795,"x_min":-37,"x_max":878,"o":"m -37 0 l -20 81 l 694 869 l 165 869 l 187 977 l 878 977 l 860 893 l 148 107 l 694 107 l 673 0 l -37 0 m 549 1099 q 487 1124 511 1099 q 463 1184 463 1149 q 494 1258 463 1226 q 570 1289 526 1289 q 632 1264 608 1289 q 656 1204 656 1240 q 625 1131 656 1163 q 549 1099 593 1099 z "},"a":{"ha":812,"x_min":47,"x_max":766,"o":"m 297 -16 q 161 23 217 -16 q 76 129 105 62 q 47 282 47 197 q 61 405 47 340 q 103 530 75 469 q 173 641 131 591 q 270 719 214 690 q 395 749 326 749 q 546 704 479 749 q 632 583 613 660 l 624 566 l 660 732 l 766 732 l 640 134 q 640 106 635 115 q 664 97 644 97 l 709 97 l 690 0 l 625 0 q 543 33 572 0 q 524 115 513 65 l 530 148 l 558 142 q 439 22 507 60 q 297 -16 371 -16 m 332 81 q 450 118 401 81 q 531 212 500 155 q 576 332 562 269 q 591 445 591 394 q 541 600 591 548 q 419 652 492 652 q 306 615 353 652 q 229 521 259 578 q 185 399 199 463 q 171 280 171 335 q 214 130 171 179 q 332 81 258 81 z "},"á":{"ha":812,"x_min":47,"x_max":766,"o":"m 297 -16 q 161 23 217 -16 q 76 129 105 62 q 47 282 47 197 q 61 405 47 340 q 103 530 75 469 q 173 641 131 591 q 270 719 214 690 q 395 749 326 749 q 546 704 479 749 q 632 583 613 660 l 624 566 l 660 732 l 766 732 l 640 134 q 640 106 635 115 q 664 97 644 97 l 709 97 l 690 0 l 625 0 q 543 33 572 0 q 524 115 513 65 l 530 148 l 558 142 q 439 22 507 60 q 297 -16 371 -16 m 332 81 q 450 118 401 81 q 531 212 500 155 q 576 332 562 269 q 591 445 591 394 q 541 600 591 548 q 419 652 492 652 q 306 615 353 652 q 229 521 259 578 q 185 399 199 463 q 171 280 171 335 q 214 130 171 179 q 332 81 258 81 m 507 822 l 432 870 l 578 1090 l 677 1027 l 507 822 z "},"ă":{"ha":812,"x_min":47,"x_max":766,"o":"m 297 -16 q 161 23 217 -16 q 76 129 105 62 q 47 282 47 197 q 61 405 47 340 q 103 530 75 469 q 173 641 131 591 q 270 719 214 690 q 395 749 326 749 q 546 704 479 749 q 632 583 613 660 l 624 566 l 660 732 l 766 732 l 640 134 q 640 106 635 115 q 664 97 644 97 l 709 97 l 690 0 l 625 0 q 543 33 572 0 q 524 115 513 65 l 530 148 l 558 142 q 439 22 507 60 q 297 -16 371 -16 m 332 81 q 450 118 401 81 q 531 212 500 155 q 576 332 562 269 q 591 445 591 394 q 541 600 591 548 q 419 652 492 652 q 306 615 353 652 q 229 521 259 578 q 185 399 199 463 q 171 280 171 335 q 214 130 171 179 q 332 81 258 81 m 470 850 q 322 900 372 850 q 276 1032 272 950 l 374 1059 q 395 970 368 1004 q 482 937 422 937 q 574 968 541 937 q 625 1052 608 1000 l 724 1025 q 629 898 693 946 q 470 850 566 850 z "},"ǎ":{"ha":812,"x_min":47,"x_max":766,"o":"m 297 -16 q 161 23 217 -16 q 76 129 105 62 q 47 282 47 197 q 61 405 47 340 q 103 530 75 469 q 173 641 131 591 q 270 719 214 690 q 395 749 326 749 q 546 704 479 749 q 632 583 613 660 l 624 566 l 660 732 l 766 732 l 640 134 q 640 106 635 115 q 664 97 644 97 l 709 97 l 690 0 l 625 0 q 543 33 572 0 q 524 115 513 65 l 530 148 l 558 142 q 439 22 507 60 q 297 -16 371 -16 m 332 81 q 450 118 401 81 q 531 212 500 155 q 576 332 562 269 q 591 445 591 394 q 541 600 591 548 q 419 652 492 652 q 306 615 353 652 q 229 521 259 578 q 185 399 199 463 q 171 280 171 335 q 214 130 171 179 q 332 81 258 81 m 631 1077 l 712 1015 l 551 836 l 412 836 l 319 1031 l 414 1077 l 490 905 l 631 1077 z "},"â":{"ha":812,"x_min":47,"x_max":766,"o":"m 297 -16 q 161 23 217 -16 q 76 129 105 62 q 47 282 47 197 q 61 405 47 340 q 103 530 75 469 q 173 641 131 591 q 270 719 214 690 q 395 749 326 749 q 546 704 479 749 q 632 583 613 660 l 624 566 l 660 732 l 766 732 l 640 134 q 640 106 635 115 q 664 97 644 97 l 709 97 l 690 0 l 625 0 q 543 33 572 0 q 524 115 513 65 l 530 148 l 558 142 q 439 22 507 60 q 297 -16 371 -16 m 332 81 q 450 118 401 81 q 531 212 500 155 q 576 332 562 269 q 591 445 591 394 q 541 600 591 548 q 419 652 492 652 q 306 615 353 652 q 229 521 259 578 q 185 399 199 463 q 171 280 171 335 q 214 130 171 179 q 332 81 258 81 m 370 836 l 289 897 l 450 1077 l 589 1077 l 682 882 l 587 836 l 511 1008 l 370 836 z "},"ä":{"ha":812,"x_min":47,"x_max":766,"o":"m 297 -16 q 161 23 217 -16 q 76 129 105 62 q 47 282 47 197 q 61 405 47 340 q 103 530 75 469 q 173 641 131 591 q 270 719 214 690 q 395 749 326 749 q 546 704 479 749 q 632 583 613 660 l 624 566 l 660 732 l 766 732 l 640 134 q 640 106 635 115 q 664 97 644 97 l 709 97 l 690 0 l 625 0 q 543 33 572 0 q 524 115 513 65 l 530 148 l 558 142 q 439 22 507 60 q 297 -16 371 -16 m 332 81 q 450 118 401 81 q 531 212 500 155 q 576 332 562 269 q 591 445 591 394 q 541 600 591 548 q 419 652 492 652 q 306 615 353 652 q 229 521 259 578 q 185 399 199 463 q 171 280 171 335 q 214 130 171 179 q 332 81 258 81 m 344 855 q 281 880 305 855 q 257 940 257 905 q 289 1014 257 982 q 364 1045 321 1045 q 427 1020 403 1045 q 451 960 451 996 q 419 887 451 919 q 344 855 388 855 m 633 855 q 571 880 595 855 q 547 940 547 905 q 578 1014 547 982 q 654 1045 610 1045 q 716 1020 692 1045 q 741 960 741 996 q 709 887 741 919 q 633 855 677 855 z "},"ạ":{"ha":812,"x_min":47,"x_max":766,"o":"m 297 -16 q 161 23 217 -16 q 76 129 105 62 q 47 282 47 197 q 61 405 47 340 q 103 530 75 469 q 173 641 131 591 q 270 719 214 690 q 395 749 326 749 q 546 704 479 749 q 632 583 613 660 l 624 566 l 660 732 l 766 732 l 640 134 q 640 106 635 115 q 664 97 644 97 l 709 97 l 690 0 l 625 0 q 543 33 572 0 q 524 115 513 65 l 530 148 l 558 142 q 439 22 507 60 q 297 -16 371 -16 m 332 81 q 450 118 401 81 q 531 212 500 155 q 576 332 562 269 q 591 445 591 394 q 541 600 591 548 q 419 652 492 652 q 306 615 353 652 q 229 521 259 578 q 185 399 199 463 q 171 280 171 335 q 214 130 171 179 q 332 81 258 81 m 253 -308 q 190 -283 214 -308 q 166 -223 166 -258 q 198 -150 166 -181 q 273 -118 230 -118 q 336 -143 312 -118 q 360 -203 360 -168 q 329 -276 360 -244 q 253 -308 297 -308 z "},"à":{"ha":812,"x_min":47,"x_max":766,"o":"m 297 -16 q 161 23 217 -16 q 76 129 105 62 q 47 282 47 197 q 61 405 47 340 q 103 530 75 469 q 173 641 131 591 q 270 719 214 690 q 395 749 326 749 q 546 704 479 749 q 632 583 613 660 l 624 566 l 660 732 l 766 732 l 640 134 q 640 106 635 115 q 664 97 644 97 l 709 97 l 690 0 l 625 0 q 543 33 572 0 q 524 115 513 65 l 530 148 l 558 142 q 439 22 507 60 q 297 -16 371 -16 m 332 81 q 450 118 401 81 q 531 212 500 155 q 576 332 562 269 q 591 445 591 394 q 541 600 591 548 q 419 652 492 652 q 306 615 353 652 q 229 521 259 578 q 185 399 199 463 q 171 280 171 335 q 214 130 171 179 q 332 81 258 81 m 443 822 l 267 1027 l 368 1092 l 518 868 l 443 822 z "},"ā":{"ha":812,"x_min":47,"x_max":766,"o":"m 297 -16 q 161 23 217 -16 q 76 129 105 62 q 47 282 47 197 q 61 405 47 340 q 103 530 75 469 q 173 641 131 591 q 270 719 214 690 q 395 749 326 749 q 546 704 479 749 q 632 583 613 660 l 624 566 l 660 732 l 766 732 l 640 134 q 640 106 635 115 q 664 97 644 97 l 709 97 l 690 0 l 625 0 q 543 33 572 0 q 524 115 513 65 l 530 148 l 558 142 q 439 22 507 60 q 297 -16 371 -16 m 332 81 q 450 118 401 81 q 531 212 500 155 q 576 332 562 269 q 591 445 591 394 q 541 600 591 548 q 419 652 492 652 q 306 615 353 652 q 229 521 259 578 q 185 399 199 463 q 171 280 171 335 q 214 130 171 179 q 332 81 258 81 m 278 913 l 296 999 l 724 999 l 707 913 l 278 913 z "},"ą":{"ha":812,"x_min":47,"x_max":766,"o":"m 297 -16 q 161 23 217 -16 q 76 129 105 62 q 47 282 47 197 q 61 405 47 340 q 103 530 75 469 q 173 641 131 591 q 270 719 214 690 q 395 749 326 749 q 546 704 479 749 q 632 583 613 660 l 624 566 l 660 732 l 766 732 l 640 134 q 640 106 635 115 q 664 97 644 97 l 709 97 l 690 0 l 625 0 q 543 33 572 0 q 524 115 513 65 l 530 148 l 558 142 q 439 22 507 60 q 297 -16 371 -16 m 332 81 q 450 118 401 81 q 531 212 500 155 q 576 332 562 269 q 591 445 591 394 q 541 600 591 548 q 419 652 492 652 q 306 615 353 652 q 229 521 259 578 q 185 399 199 463 q 171 280 171 335 q 214 130 171 179 q 332 81 258 81 m 593 -281 q 512 -265 550 -281 q 449 -218 473 -250 q 425 -142 425 -187 q 475 -39 425 -79 q 596 20 526 1 l 633 12 l 632 0 l 690 0 q 590 -50 634 -14 q 546 -132 546 -85 q 567 -179 546 -163 q 619 -195 588 -195 q 663 -188 639 -195 l 680 -264 q 593 -281 638 -281 z "},"å":{"ha":812,"x_min":47,"x_max":766,"o":"m 297 -16 q 161 23 217 -16 q 76 129 105 62 q 47 282 47 197 q 61 405 47 340 q 103 530 75 469 q 173 641 131 591 q 270 719 214 690 q 395 749 326 749 q 546 704 479 749 q 632 583 613 660 l 624 566 l 660 732 l 766 732 l 640 134 q 640 106 635 115 q 664 97 644 97 l 709 97 l 690 0 l 625 0 q 543 33 572 0 q 524 115 513 65 l 530 148 l 558 142 q 439 22 507 60 q 297 -16 371 -16 m 332 81 q 450 118 401 81 q 531 212 500 155 q 576 332 562 269 q 591 445 591 394 q 541 600 591 548 q 419 652 492 652 q 306 615 353 652 q 229 521 259 578 q 185 399 199 463 q 171 280 171 335 q 214 130 171 179 q 332 81 258 81 m 481 799 q 382 834 418 799 q 346 926 346 869 q 366 1011 346 971 q 422 1076 386 1051 q 507 1101 458 1101 q 606 1066 570 1101 q 642 975 642 1031 q 623 889 642 930 q 567 824 603 849 q 481 799 530 799 m 486 874 q 531 890 515 874 q 554 928 547 906 q 562 966 562 949 q 503 1025 562 1025 q 457 1008 473 1025 q 434 970 441 992 q 428 932 428 949 q 486 874 428 874 z "},"ǻ":{"ha":812,"x_min":47,"x_max":766,"o":"m 297 -16 q 161 23 217 -16 q 76 129 105 62 q 47 282 47 197 q 61 405 47 340 q 103 530 75 469 q 173 641 131 591 q 270 719 214 690 q 395 749 326 749 q 546 704 479 749 q 632 583 613 660 l 624 566 l 660 732 l 766 732 l 640 134 q 640 106 635 115 q 664 97 644 97 l 709 97 l 690 0 l 625 0 q 543 33 572 0 q 524 115 513 65 l 530 148 l 558 142 q 439 22 507 60 q 297 -16 371 -16 m 332 81 q 450 118 401 81 q 531 212 500 155 q 576 332 562 269 q 591 445 591 394 q 541 600 591 548 q 419 652 492 652 q 306 615 353 652 q 229 521 259 578 q 185 399 199 463 q 171 280 171 335 q 214 130 171 179 q 332 81 258 81 m 481 799 q 382 834 418 799 q 346 926 346 869 q 366 1011 346 971 q 422 1076 386 1051 q 507 1101 458 1101 q 606 1066 570 1101 q 642 975 642 1031 q 623 889 642 930 q 567 824 603 849 q 481 799 530 799 m 486 874 q 531 890 515 874 q 554 928 547 906 q 562 966 562 949 q 503 1025 562 1025 q 457 1008 473 1025 q 434 970 441 992 q 428 932 428 949 q 486 874 428 874 m 589 1154 l 515 1202 l 661 1422 l 760 1358 l 589 1154 z "},"ã":{"ha":812,"x_min":47,"x_max":766,"o":"m 297 -16 q 161 23 217 -16 q 76 129 105 62 q 47 282 47 197 q 61 405 47 340 q 103 530 75 469 q 173 641 131 591 q 270 719 214 690 q 395 749 326 749 q 546 704 479 749 q 632 583 613 660 l 624 566 l 660 732 l 766 732 l 640 134 q 640 106 635 115 q 664 97 644 97 l 709 97 l 690 0 l 625 0 q 543 33 572 0 q 524 115 513 65 l 530 148 l 558 142 q 439 22 507 60 q 297 -16 371 -16 m 332 81 q 450 118 401 81 q 531 212 500 155 q 576 332 562 269 q 591 445 591 394 q 541 600 591 548 q 419 652 492 652 q 306 615 353 652 q 229 521 259 578 q 185 399 199 463 q 171 280 171 335 q 214 130 171 179 q 332 81 258 81 m 571 865 q 509 879 532 865 q 470 911 486 892 q 440 943 455 929 q 403 956 425 956 q 354 933 372 956 q 319 869 336 909 l 238 899 q 302 1012 258 974 q 414 1050 347 1050 q 478 1037 454 1050 q 516 1004 501 1023 q 545 972 531 986 q 579 958 558 958 q 626 979 608 958 q 661 1034 644 999 l 741 1002 q 676 900 720 935 q 571 865 633 865 z "},"æ":{"ha":1204,"x_min":18,"x_max":1153,"o":"m 237 -16 q 123 4 172 -16 q 46 66 74 25 q 18 165 18 106 q 48 278 18 228 q 131 365 79 329 q 251 421 183 401 q 393 441 318 441 l 551 441 l 558 471 q 559 563 569 522 q 515 629 549 604 q 416 654 480 654 q 295 614 338 654 q 233 505 252 575 l 114 534 q 178 642 133 593 q 290 720 223 690 q 439 749 357 749 q 591 707 534 749 q 652 585 648 665 l 618 585 q 703 680 659 644 q 794 732 746 715 q 895 749 842 749 q 1035 712 980 749 q 1117 615 1089 675 q 1149 482 1145 554 q 1137 338 1153 410 l 587 338 l 648 373 q 637 297 640 337 q 642 219 635 257 q 668 149 649 180 q 720 99 687 118 q 803 81 753 81 q 911 116 865 81 q 993 225 957 151 l 1107 186 q 970 33 1051 81 q 798 -16 890 -16 q 666 11 724 -16 q 574 82 608 38 q 534 174 540 125 l 553 170 q 490 81 534 124 q 381 11 446 38 q 237 -16 317 -16 m 277 79 q 429 140 366 79 q 523 321 493 201 l 544 405 l 585 351 l 376 351 q 251 328 303 351 q 171 267 199 304 q 144 186 144 229 q 181 106 144 134 q 277 79 218 79 m 661 433 l 1027 433 q 1019 541 1031 490 q 975 622 1008 591 q 882 652 943 652 q 751 596 808 652 q 661 433 694 540 z "},"ǽ":{"ha":1204,"x_min":18,"x_max":1153,"o":"m 237 -16 q 123 4 172 -16 q 46 66 74 25 q 18 165 18 106 q 48 278 18 228 q 131 365 79 329 q 251 421 183 401 q 393 441 318 441 l 551 441 l 558 471 q 559 563 569 522 q 515 629 549 604 q 416 654 480 654 q 295 614 338 654 q 233 505 252 575 l 114 534 q 178 642 133 593 q 290 720 223 690 q 439 749 357 749 q 591 707 534 749 q 652 585 648 665 l 618 585 q 703 680 659 644 q 794 732 746 715 q 895 749 842 749 q 1035 712 980 749 q 1117 615 1089 675 q 1149 482 1145 554 q 1137 338 1153 410 l 587 338 l 648 373 q 637 297 640 337 q 642 219 635 257 q 668 149 649 180 q 720 99 687 118 q 803 81 753 81 q 911 116 865 81 q 993 225 957 151 l 1107 186 q 970 33 1051 81 q 798 -16 890 -16 q 666 11 724 -16 q 574 82 608 38 q 534 174 540 125 l 553 170 q 490 81 534 124 q 381 11 446 38 q 237 -16 317 -16 m 277 79 q 429 140 366 79 q 523 321 493 201 l 544 405 l 585 351 l 376 351 q 251 328 303 351 q 171 267 199 304 q 144 186 144 229 q 181 106 144 134 q 277 79 218 79 m 661 433 l 1027 433 q 1019 541 1031 490 q 975 622 1008 591 q 882 652 943 652 q 751 596 808 652 q 661 433 694 540 m 715 822 l 641 870 l 787 1090 l 886 1027 l 715 822 z "},"b":{"ha":795,"x_min":28,"x_max":750,"o":"m 391 -16 q 235 33 299 -16 q 154 166 170 81 l 170 167 l 135 0 l 28 0 l 243 1017 l 356 1017 l 267 593 l 258 604 q 367 712 302 676 q 505 749 431 749 q 685 667 621 749 q 750 453 750 585 q 736 329 750 394 q 694 203 722 264 q 623 92 666 142 q 523 13 581 43 q 391 -16 465 -16 m 369 81 q 485 118 436 81 q 564 212 533 155 q 610 334 595 270 q 625 451 625 397 q 584 597 625 542 q 461 652 543 652 q 344 616 393 652 q 263 524 295 580 q 215 404 231 467 q 199 287 199 341 q 246 135 199 189 q 369 81 292 81 z "},"c":{"ha":748,"x_min":57,"x_max":714,"o":"m 351 -16 q 202 18 269 -16 q 96 118 135 52 q 57 282 57 185 q 79 437 57 356 q 148 589 102 518 q 266 704 195 660 q 434 749 336 749 q 574 719 513 749 q 673 635 636 689 q 714 507 710 581 l 598 475 q 579 566 599 526 q 522 629 559 606 q 429 652 484 652 q 313 613 361 652 q 236 515 265 574 q 193 391 206 455 q 179 277 179 328 q 225 133 179 185 q 355 81 271 81 q 471 123 418 81 q 556 254 524 166 l 672 220 q 587 87 637 139 q 476 9 536 35 q 351 -16 416 -16 z "},"ć":{"ha":748,"x_min":57,"x_max":714,"o":"m 351 -16 q 202 18 269 -16 q 96 118 135 52 q 57 282 57 185 q 79 437 57 356 q 148 589 102 518 q 266 704 195 660 q 434 749 336 749 q 574 719 513 749 q 673 635 636 689 q 714 507 710 581 l 598 475 q 579 566 599 526 q 522 629 559 606 q 429 652 484 652 q 313 613 361 652 q 236 515 265 574 q 193 391 206 455 q 179 277 179 328 q 225 133 179 185 q 355 81 271 81 q 471 123 418 81 q 556 254 524 166 l 672 220 q 587 87 637 139 q 476 9 536 35 q 351 -16 416 -16 m 477 822 l 403 870 l 549 1090 l 648 1027 l 477 822 z "},"č":{"ha":748,"x_min":57,"x_max":714,"o":"m 351 -16 q 202 18 269 -16 q 96 118 135 52 q 57 282 57 185 q 79 437 57 356 q 148 589 102 518 q 266 704 195 660 q 434 749 336 749 q 574 719 513 749 q 673 635 636 689 q 714 507 710 581 l 598 475 q 579 566 599 526 q 522 629 559 606 q 429 652 484 652 q 313 613 361 652 q 236 515 265 574 q 193 391 206 455 q 179 277 179 328 q 225 133 179 185 q 355 81 271 81 q 471 123 418 81 q 556 254 524 166 l 672 220 q 587 87 637 139 q 476 9 536 35 q 351 -16 416 -16 m 602 1077 l 683 1015 l 522 836 l 382 836 l 290 1031 l 385 1077 l 461 905 l 602 1077 z "},"ç":{"ha":748,"x_min":57,"x_max":714,"o":"m 351 -16 q 202 18 269 -16 q 96 118 135 52 q 57 282 57 185 q 79 437 57 356 q 148 589 102 518 q 266 704 195 660 q 434 749 336 749 q 574 719 513 749 q 673 635 636 689 q 714 507 710 581 l 598 475 q 579 566 599 526 q 522 629 559 606 q 429 652 484 652 q 313 613 361 652 q 236 515 265 574 q 193 391 206 455 q 179 277 179 328 q 225 133 179 185 q 355 81 271 81 q 471 123 418 81 q 556 254 524 166 l 672 220 q 587 87 637 139 q 476 9 536 35 q 351 -16 416 -16 m 286 -281 q 218 -272 254 -281 q 153 -240 182 -263 l 184 -170 q 222 -192 200 -181 q 278 -202 245 -202 q 323 -194 300 -202 q 349 -159 347 -186 q 327 -121 352 -134 q 237 -105 302 -107 l 241 -66 l 306 28 l 384 28 l 382 14 l 321 -69 l 302 -46 q 410 -86 380 -52 q 435 -166 440 -119 q 396 -246 431 -211 q 286 -281 361 -281 z "},"ĉ":{"ha":748,"x_min":57,"x_max":714,"o":"m 351 -16 q 202 18 269 -16 q 96 118 135 52 q 57 282 57 185 q 79 437 57 356 q 148 589 102 518 q 266 704 195 660 q 434 749 336 749 q 574 719 513 749 q 673 635 636 689 q 714 507 710 581 l 598 475 q 579 566 599 526 q 522 629 559 606 q 429 652 484 652 q 313 613 361 652 q 236 515 265 574 q 193 391 206 455 q 179 277 179 328 q 225 133 179 185 q 355 81 271 81 q 471 123 418 81 q 556 254 524 166 l 672 220 q 587 87 637 139 q 476 9 536 35 q 351 -16 416 -16 m 340 836 l 260 897 l 421 1077 l 560 1077 l 653 882 l 557 836 l 481 1008 l 340 836 z "},"ċ":{"ha":748,"x_min":57,"x_max":714,"o":"m 351 -16 q 202 18 269 -16 q 96 118 135 52 q 57 282 57 185 q 79 437 57 356 q 148 589 102 518 q 266 704 195 660 q 434 749 336 749 q 574 719 513 749 q 673 635 636 689 q 714 507 710 581 l 598 475 q 579 566 599 526 q 522 629 559 606 q 429 652 484 652 q 313 613 361 652 q 236 515 265 574 q 193 391 206 455 q 179 277 179 328 q 225 133 179 185 q 355 81 271 81 q 471 123 418 81 q 556 254 524 166 l 672 220 q 587 87 637 139 q 476 9 536 35 q 351 -16 416 -16 m 459 855 q 396 880 420 855 q 372 940 372 905 q 404 1014 372 982 q 479 1045 436 1045 q 542 1020 518 1045 q 566 960 566 996 q 535 887 566 919 q 459 855 503 855 z "},"d":{"ha":854,"x_min":46,"x_max":826,"o":"m 294 -16 q 160 23 216 -16 q 75 130 104 62 q 46 283 46 197 q 60 405 46 340 q 102 530 74 469 q 172 641 130 591 q 269 719 214 690 q 394 749 325 749 q 545 704 478 749 q 631 583 612 660 l 618 566 l 713 1017 l 826 1017 l 640 136 q 640 107 635 115 q 664 100 646 100 l 711 100 l 690 0 l 625 0 q 540 36 571 0 q 526 138 509 72 l 530 151 l 551 142 q 434 22 500 60 q 294 -16 368 -16 m 330 81 q 449 118 400 81 q 530 212 498 155 q 575 332 561 269 q 590 445 590 394 q 541 600 590 548 q 418 652 491 652 q 306 615 353 652 q 229 521 258 578 q 184 399 199 463 q 170 280 170 335 q 214 130 170 179 q 330 81 257 81 z "},"ð":{"ha":777,"x_min":42,"x_max":736,"o":"m 331 -16 q 182 21 247 -16 q 79 126 117 58 q 42 292 42 195 q 69 449 42 373 q 147 586 96 526 q 269 683 198 647 q 429 718 340 718 q 547 695 502 718 q 615 635 591 671 q 646 562 638 600 l 633 573 q 597 714 625 652 q 526 824 570 776 q 426 909 482 871 q 304 976 370 946 l 347 1042 q 497 964 427 1011 q 621 851 567 917 q 705 699 675 786 q 736 500 736 612 q 706 297 736 391 q 622 133 676 203 q 494 24 568 63 q 331 -16 420 -16 m 342 81 q 461 114 410 81 q 545 199 511 147 q 594 310 578 252 q 610 420 610 369 q 559 567 610 513 q 423 622 509 622 q 305 589 354 622 q 224 504 256 555 q 179 393 193 452 q 164 285 164 335 q 212 135 165 190 q 342 81 258 81 m 300 728 l 263 809 l 690 1046 l 727 965 l 300 728 z "},"ď":{"ha":854,"x_min":46,"x_max":1033,"o":"m 294 -16 q 160 23 216 -16 q 75 130 104 62 q 46 283 46 197 q 60 405 46 340 q 102 530 74 469 q 172 641 130 591 q 269 719 214 690 q 394 749 325 749 q 545 704 478 749 q 631 583 612 660 l 618 566 l 713 1017 l 826 1017 l 640 136 q 640 107 635 115 q 664 100 646 100 l 711 100 l 690 0 l 625 0 q 540 36 571 0 q 526 138 509 72 l 530 151 l 551 142 q 434 22 500 60 q 294 -16 368 -16 m 330 81 q 449 118 400 81 q 530 212 498 155 q 575 332 561 269 q 590 445 590 394 q 541 600 590 548 q 418 652 491 652 q 306 615 353 652 q 229 521 258 578 q 184 399 199 463 q 170 280 170 335 q 214 130 170 179 q 330 81 257 81 m 956 822 l 879 837 l 924 1090 l 1033 1069 l 956 822 z "},"đ":{"ha":854,"x_min":46,"x_max":880,"o":"m 294 -16 q 160 23 216 -16 q 75 130 104 62 q 46 283 46 197 q 60 405 46 340 q 102 530 74 469 q 172 641 130 591 q 269 719 214 690 q 394 749 325 749 q 545 704 478 749 q 631 583 612 660 l 618 566 l 713 1017 l 826 1017 l 640 136 q 640 107 635 115 q 664 100 646 100 l 711 100 l 690 0 l 625 0 q 540 36 571 0 q 526 138 509 72 l 530 151 l 551 142 q 434 22 500 60 q 294 -16 368 -16 m 330 81 q 449 118 400 81 q 530 212 498 155 q 575 332 561 269 q 590 445 590 394 q 541 600 590 548 q 418 652 491 652 q 306 615 353 652 q 229 521 258 578 q 184 399 199 463 q 170 280 170 335 q 214 130 170 179 q 330 81 257 81 m 525 789 l 543 880 l 880 880 l 861 789 l 525 789 z "},"e":{"ha":785,"x_min":56,"x_max":734,"o":"m 360 -16 q 206 18 275 -16 q 97 121 137 52 q 56 291 56 189 q 79 441 56 362 q 149 591 101 521 q 271 705 196 661 q 450 749 345 749 q 603 713 543 749 q 693 617 663 677 q 729 484 724 557 q 718 338 734 412 l 142 338 l 160 432 l 639 432 l 600 389 q 603 511 612 451 q 555 612 593 572 q 441 652 516 652 q 319 615 370 652 q 238 519 269 577 q 193 398 208 460 q 179 286 179 336 q 228 135 179 189 q 366 81 277 81 q 485 116 434 81 q 572 225 535 151 l 689 186 q 545 33 630 81 q 360 -16 459 -16 z "},"é":{"ha":785,"x_min":56,"x_max":734,"o":"m 360 -16 q 206 18 275 -16 q 97 121 137 52 q 56 291 56 189 q 79 441 56 362 q 149 591 101 521 q 271 705 196 661 q 450 749 345 749 q 603 713 543 749 q 693 617 663 677 q 729 484 724 557 q 718 338 734 412 l 142 338 l 160 432 l 639 432 l 600 389 q 603 511 612 451 q 555 612 593 572 q 441 652 516 652 q 319 615 370 652 q 238 519 269 577 q 193 398 208 460 q 179 286 179 336 q 228 135 179 189 q 366 81 277 81 q 485 116 434 81 q 572 225 535 151 l 689 186 q 545 33 630 81 q 360 -16 459 -16 m 488 822 l 414 870 l 560 1090 l 659 1027 l 488 822 z "},"ĕ":{"ha":785,"x_min":56,"x_max":734,"o":"m 360 -16 q 206 18 275 -16 q 97 121 137 52 q 56 291 56 189 q 79 441 56 362 q 149 591 101 521 q 271 705 196 661 q 450 749 345 749 q 603 713 543 749 q 693 617 663 677 q 729 484 724 557 q 718 338 734 412 l 142 338 l 160 432 l 639 432 l 600 389 q 603 511 612 451 q 555 612 593 572 q 441 652 516 652 q 319 615 370 652 q 238 519 269 577 q 193 398 208 460 q 179 286 179 336 q 228 135 179 189 q 366 81 277 81 q 485 116 434 81 q 572 225 535 151 l 689 186 q 545 33 630 81 q 360 -16 459 -16 m 452 850 q 303 900 353 850 q 258 1032 254 950 l 356 1059 q 376 970 349 1004 q 464 937 404 937 q 556 968 522 937 q 606 1052 589 1000 l 705 1025 q 611 898 675 946 q 452 850 547 850 z "},"ě":{"ha":785,"x_min":56,"x_max":734,"o":"m 360 -16 q 206 18 275 -16 q 97 121 137 52 q 56 291 56 189 q 79 441 56 362 q 149 591 101 521 q 271 705 196 661 q 450 749 345 749 q 603 713 543 749 q 693 617 663 677 q 729 484 724 557 q 718 338 734 412 l 142 338 l 160 432 l 639 432 l 600 389 q 603 511 612 451 q 555 612 593 572 q 441 652 516 652 q 319 615 370 652 q 238 519 269 577 q 193 398 208 460 q 179 286 179 336 q 228 135 179 189 q 366 81 277 81 q 485 116 434 81 q 572 225 535 151 l 689 186 q 545 33 630 81 q 360 -16 459 -16 m 613 1077 l 694 1015 l 532 836 l 393 836 l 300 1031 l 396 1077 l 472 905 l 613 1077 z "},"ê":{"ha":785,"x_min":56,"x_max":734,"o":"m 360 -16 q 206 18 275 -16 q 97 121 137 52 q 56 291 56 189 q 79 441 56 362 q 149 591 101 521 q 271 705 196 661 q 450 749 345 749 q 603 713 543 749 q 693 617 663 677 q 729 484 724 557 q 718 338 734 412 l 142 338 l 160 432 l 639 432 l 600 389 q 603 511 612 451 q 555 612 593 572 q 441 652 516 652 q 319 615 370 652 q 238 519 269 577 q 193 398 208 460 q 179 286 179 336 q 228 135 179 189 q 366 81 277 81 q 485 116 434 81 q 572 225 535 151 l 689 186 q 545 33 630 81 q 360 -16 459 -16 m 351 836 l 271 897 l 432 1077 l 571 1077 l 664 882 l 568 836 l 492 1008 l 351 836 z "},"ë":{"ha":785,"x_min":56,"x_max":734,"o":"m 360 -16 q 206 18 275 -16 q 97 121 137 52 q 56 291 56 189 q 79 441 56 362 q 149 591 101 521 q 271 705 196 661 q 450 749 345 749 q 603 713 543 749 q 693 617 663 677 q 729 484 724 557 q 718 338 734 412 l 142 338 l 160 432 l 639 432 l 600 389 q 603 511 612 451 q 555 612 593 572 q 441 652 516 652 q 319 615 370 652 q 238 519 269 577 q 193 398 208 460 q 179 286 179 336 q 228 135 179 189 q 366 81 277 81 q 485 116 434 81 q 572 225 535 151 l 689 186 q 545 33 630 81 q 360 -16 459 -16 m 326 855 q 263 880 287 855 q 239 940 239 905 q 271 1014 239 982 q 346 1045 302 1045 q 409 1020 385 1045 q 433 960 433 996 q 401 887 433 919 q 326 855 370 855 m 615 855 q 552 880 576 855 q 528 940 528 905 q 560 1014 528 982 q 635 1045 592 1045 q 698 1020 674 1045 q 722 960 722 996 q 691 887 722 919 q 615 855 659 855 z "},"ė":{"ha":785,"x_min":56,"x_max":734,"o":"m 360 -16 q 206 18 275 -16 q 97 121 137 52 q 56 291 56 189 q 79 441 56 362 q 149 591 101 521 q 271 705 196 661 q 450 749 345 749 q 603 713 543 749 q 693 617 663 677 q 729 484 724 557 q 718 338 734 412 l 142 338 l 160 432 l 639 432 l 600 389 q 603 511 612 451 q 555 612 593 572 q 441 652 516 652 q 319 615 370 652 q 238 519 269 577 q 193 398 208 460 q 179 286 179 336 q 228 135 179 189 q 366 81 277 81 q 485 116 434 81 q 572 225 535 151 l 689 186 q 545 33 630 81 q 360 -16 459 -16 m 470 855 q 407 880 431 855 q 383 940 383 905 q 415 1014 383 982 q 490 1045 447 1045 q 553 1020 529 1045 q 577 960 577 996 q 546 887 577 919 q 470 855 514 855 z "},"ẹ":{"ha":785,"x_min":56,"x_max":734,"o":"m 360 -16 q 206 18 275 -16 q 97 121 137 52 q 56 291 56 189 q 79 441 56 362 q 149 591 101 521 q 271 705 196 661 q 450 749 345 749 q 603 713 543 749 q 693 617 663 677 q 729 484 724 557 q 718 338 734 412 l 142 338 l 160 432 l 639 432 l 600 389 q 603 511 612 451 q 555 612 593 572 q 441 652 516 652 q 319 615 370 652 q 238 519 269 577 q 193 398 208 460 q 179 286 179 336 q 228 135 179 189 q 366 81 277 81 q 485 116 434 81 q 572 225 535 151 l 689 186 q 545 33 630 81 q 360 -16 459 -16 m 279 -308 q 217 -283 241 -308 q 193 -223 193 -258 q 224 -150 193 -181 q 300 -118 256 -118 q 362 -143 338 -118 q 387 -203 387 -168 q 355 -276 387 -244 q 279 -308 323 -308 z "},"è":{"ha":785,"x_min":56,"x_max":734,"o":"m 360 -16 q 206 18 275 -16 q 97 121 137 52 q 56 291 56 189 q 79 441 56 362 q 149 591 101 521 q 271 705 196 661 q 450 749 345 749 q 603 713 543 749 q 693 617 663 677 q 729 484 724 557 q 718 338 734 412 l 142 338 l 160 432 l 639 432 l 600 389 q 603 511 612 451 q 555 612 593 572 q 441 652 516 652 q 319 615 370 652 q 238 519 269 577 q 193 398 208 460 q 179 286 179 336 q 228 135 179 189 q 366 81 277 81 q 485 116 434 81 q 572 225 535 151 l 689 186 q 545 33 630 81 q 360 -16 459 -16 m 425 822 l 248 1027 l 350 1092 l 500 868 l 425 822 z "},"ē":{"ha":785,"x_min":56,"x_max":734,"o":"m 360 -16 q 206 18 275 -16 q 97 121 137 52 q 56 291 56 189 q 79 441 56 362 q 149 591 101 521 q 271 705 196 661 q 450 749 345 749 q 603 713 543 749 q 693 617 663 677 q 729 484 724 557 q 718 338 734 412 l 142 338 l 160 432 l 639 432 l 600 389 q 603 511 612 451 q 555 612 593 572 q 441 652 516 652 q 319 615 370 652 q 238 519 269 577 q 193 398 208 460 q 179 286 179 336 q 228 135 179 189 q 366 81 277 81 q 485 116 434 81 q 572 225 535 151 l 689 186 q 545 33 630 81 q 360 -16 459 -16 m 260 913 l 277 999 l 706 999 l 688 913 l 260 913 z "},"ę":{"ha":785,"x_min":56,"x_max":734,"o":"m 360 -16 q 206 18 275 -16 q 97 121 137 52 q 56 291 56 189 q 79 441 56 362 q 149 591 101 521 q 271 705 196 661 q 450 749 345 749 q 603 713 543 749 q 693 617 663 677 q 729 484 724 557 q 718 338 734 412 l 142 338 l 160 432 l 639 432 l 600 389 q 603 511 612 451 q 555 612 593 572 q 441 652 516 652 q 319 615 370 652 q 238 519 269 577 q 193 398 208 460 q 179 286 179 336 q 228 135 179 189 q 366 81 277 81 q 485 116 434 81 q 572 225 535 151 l 689 186 q 545 33 630 81 q 360 -16 459 -16 m 368 -281 q 287 -265 326 -281 q 225 -218 249 -250 q 201 -142 201 -187 q 251 -39 201 -79 q 372 20 301 1 l 408 12 l 408 0 l 465 0 q 366 -50 410 -14 q 321 -132 321 -85 q 342 -179 321 -163 q 395 -195 363 -195 q 438 -188 414 -195 l 455 -264 q 368 -281 414 -281 z "},"ẽ":{"ha":785,"x_min":56,"x_max":734,"o":"m 360 -16 q 206 18 275 -16 q 97 121 137 52 q 56 291 56 189 q 79 441 56 362 q 149 591 101 521 q 271 705 196 661 q 450 749 345 749 q 603 713 543 749 q 693 617 663 677 q 729 484 724 557 q 718 338 734 412 l 142 338 l 160 432 l 639 432 l 600 389 q 603 511 612 451 q 555 612 593 572 q 441 652 516 652 q 319 615 370 652 q 238 519 269 577 q 193 398 208 460 q 179 286 179 336 q 228 135 179 189 q 366 81 277 81 q 485 116 434 81 q 572 225 535 151 l 689 186 q 545 33 630 81 q 360 -16 459 -16 m 553 865 q 491 879 514 865 q 452 911 467 892 q 422 943 437 929 q 385 956 407 956 q 336 933 354 956 q 300 869 317 909 l 220 899 q 284 1012 239 974 q 395 1050 329 1050 q 459 1037 436 1050 q 498 1004 483 1023 q 526 972 513 986 q 561 958 540 958 q 607 979 589 958 q 642 1034 625 999 l 723 1002 q 658 900 702 935 q 553 865 614 865 z "},"ə":{"ha":785,"x_min":52,"x_max":729,"o":"m 425 749 q 579 714 511 749 q 689 612 648 680 q 729 441 729 544 q 707 291 729 370 q 637 142 684 212 q 515 28 589 72 q 336 -16 440 -16 q 182 20 242 -16 q 92 116 123 56 q 57 248 62 176 q 67 394 52 321 l 644 394 l 625 300 l 146 300 l 186 343 q 182 221 173 282 q 231 120 192 161 q 344 80 269 80 q 466 118 416 80 q 547 214 516 155 q 592 335 578 272 q 606 447 606 397 q 557 598 606 544 q 420 652 509 652 q 301 617 351 652 q 213 507 251 582 l 96 546 q 241 700 155 651 q 425 749 326 749 z "},"f":{"ha":452,"x_min":-134,"x_max":527,"o":"m -134 -264 l -113 -168 l -3 -168 q 21 -160 13 -168 q 33 -134 29 -152 l 248 880 q 300 985 264 953 q 404 1017 336 1017 l 527 1017 l 507 920 l 398 920 q 374 912 383 920 q 362 886 366 904 l 147 -127 q 96 -232 132 -200 q -9 -264 60 -264 l -134 -264 m 91 635 l 111 732 l 484 732 l 465 635 l 91 635 z "},"g":{"ha":768,"x_min":-45,"x_max":747,"o":"m 250 -281 q 78 -259 142 -281 q -16 -198 13 -238 q -45 -104 -45 -159 q -2 11 -45 -33 q 120 83 40 54 q 79 117 94 94 q 63 166 63 141 q 96 242 63 204 q 178 293 128 280 q 124 361 144 317 q 105 462 105 406 q 140 602 105 536 q 242 708 175 667 q 408 749 310 749 q 539 725 477 749 q 638 650 600 701 q 677 519 677 600 q 659 413 677 465 q 601 318 641 360 q 497 254 562 277 q 338 238 432 232 l 275 242 q 204 229 227 245 q 181 186 181 212 q 197 159 181 170 q 271 142 213 147 l 411 128 q 554 96 505 119 q 621 39 603 73 q 638 -39 638 5 q 621 -131 638 -92 q 570 -199 603 -171 q 492 -246 537 -228 q 391 -272 446 -264 q 274 -281 336 -281 l 250 -281 m 260 -190 l 300 -190 q 409 -179 360 -190 q 486 -139 457 -168 q 515 -59 515 -111 q 485 8 515 -13 q 383 38 456 30 l 259 52 q 122 8 168 40 q 77 -83 77 -24 q 119 -163 77 -137 q 260 -190 161 -190 m 378 320 q 490 353 450 320 q 548 432 531 386 q 565 519 565 479 q 542 606 565 574 q 482 652 519 638 q 406 666 446 666 q 314 645 351 666 q 256 592 277 624 q 225 524 235 559 q 216 461 216 489 q 240 378 216 409 q 301 334 264 347 q 378 320 338 320 m 527 651 l 545 735 q 588 802 555 777 q 670 827 621 827 l 747 827 l 727 730 l 659 730 q 636 723 644 730 q 625 696 629 716 l 606 609 l 527 651 z "},"ğ":{"ha":768,"x_min":-45,"x_max":747,"o":"m 250 -281 q 78 -259 142 -281 q -16 -198 13 -238 q -45 -104 -45 -159 q -2 11 -45 -33 q 120 83 40 54 q 79 117 94 94 q 63 166 63 141 q 96 242 63 204 q 178 293 128 280 q 124 361 144 317 q 105 462 105 406 q 140 602 105 536 q 242 708 175 667 q 408 749 310 749 q 539 725 477 749 q 638 650 600 701 q 677 519 677 600 q 659 413 677 465 q 601 318 641 360 q 497 254 562 277 q 338 238 432 232 l 275 242 q 204 229 227 245 q 181 186 181 212 q 197 159 181 170 q 271 142 213 147 l 411 128 q 554 96 505 119 q 621 39 603 73 q 638 -39 638 5 q 621 -131 638 -92 q 570 -199 603 -171 q 492 -246 537 -228 q 391 -272 446 -264 q 274 -281 336 -281 l 250 -281 m 260 -190 l 300 -190 q 409 -179 360 -190 q 486 -139 457 -168 q 515 -59 515 -111 q 485 8 515 -13 q 383 38 456 30 l 259 52 q 122 8 168 40 q 77 -83 77 -24 q 119 -163 77 -137 q 260 -190 161 -190 m 378 320 q 490 353 450 320 q 548 432 531 386 q 565 519 565 479 q 542 606 565 574 q 482 652 519 638 q 406 666 446 666 q 314 645 351 666 q 256 592 277 624 q 225 524 235 559 q 216 461 216 489 q 240 378 216 409 q 301 334 264 347 q 378 320 338 320 m 527 651 l 545 735 q 588 802 555 777 q 670 827 621 827 l 747 827 l 727 730 l 659 730 q 636 723 644 730 q 625 696 629 716 l 606 609 l 527 651 m 439 850 q 291 900 341 850 q 245 1032 241 950 l 344 1059 q 364 970 337 1004 q 452 937 391 937 q 544 968 510 937 q 594 1052 577 1000 l 693 1025 q 599 898 663 946 q 439 850 535 850 z "},"ǧ":{"ha":768,"x_min":-45,"x_max":747,"o":"m 250 -281 q 78 -259 142 -281 q -16 -198 13 -238 q -45 -104 -45 -159 q -2 11 -45 -33 q 120 83 40 54 q 79 117 94 94 q 63 166 63 141 q 96 242 63 204 q 178 293 128 280 q 124 361 144 317 q 105 462 105 406 q 140 602 105 536 q 242 708 175 667 q 408 749 310 749 q 539 725 477 749 q 638 650 600 701 q 677 519 677 600 q 659 413 677 465 q 601 318 641 360 q 497 254 562 277 q 338 238 432 232 l 275 242 q 204 229 227 245 q 181 186 181 212 q 197 159 181 170 q 271 142 213 147 l 411 128 q 554 96 505 119 q 621 39 603 73 q 638 -39 638 5 q 621 -131 638 -92 q 570 -199 603 -171 q 492 -246 537 -228 q 391 -272 446 -264 q 274 -281 336 -281 l 250 -281 m 260 -190 l 300 -190 q 409 -179 360 -190 q 486 -139 457 -168 q 515 -59 515 -111 q 485 8 515 -13 q 383 38 456 30 l 259 52 q 122 8 168 40 q 77 -83 77 -24 q 119 -163 77 -137 q 260 -190 161 -190 m 378 320 q 490 353 450 320 q 548 432 531 386 q 565 519 565 479 q 542 606 565 574 q 482 652 519 638 q 406 666 446 666 q 314 645 351 666 q 256 592 277 624 q 225 524 235 559 q 216 461 216 489 q 240 378 216 409 q 301 334 264 347 q 378 320 338 320 m 527 651 l 545 735 q 588 802 555 777 q 670 827 621 827 l 747 827 l 727 730 l 659 730 q 636 723 644 730 q 625 696 629 716 l 606 609 l 527 651 m 380 836 l 287 1031 l 382 1077 l 458 905 l 600 1077 l 680 1015 l 519 836 l 380 836 z "},"ĝ":{"ha":768,"x_min":-45,"x_max":747,"o":"m 250 -281 q 78 -259 142 -281 q -16 -198 13 -238 q -45 -104 -45 -159 q -2 11 -45 -33 q 120 83 40 54 q 79 117 94 94 q 63 166 63 141 q 96 242 63 204 q 178 293 128 280 q 124 361 144 317 q 105 462 105 406 q 140 602 105 536 q 242 708 175 667 q 408 749 310 749 q 539 725 477 749 q 638 650 600 701 q 677 519 677 600 q 659 413 677 465 q 601 318 641 360 q 497 254 562 277 q 338 238 432 232 l 275 242 q 204 229 227 245 q 181 186 181 212 q 197 159 181 170 q 271 142 213 147 l 411 128 q 554 96 505 119 q 621 39 603 73 q 638 -39 638 5 q 621 -131 638 -92 q 570 -199 603 -171 q 492 -246 537 -228 q 391 -272 446 -264 q 274 -281 336 -281 l 250 -281 m 260 -190 l 300 -190 q 409 -179 360 -190 q 486 -139 457 -168 q 515 -59 515 -111 q 485 8 515 -13 q 383 38 456 30 l 259 52 q 122 8 168 40 q 77 -83 77 -24 q 119 -163 77 -137 q 260 -190 161 -190 m 378 320 q 490 353 450 320 q 548 432 531 386 q 565 519 565 479 q 542 606 565 574 q 482 652 519 638 q 406 666 446 666 q 314 645 351 666 q 256 592 277 624 q 225 524 235 559 q 216 461 216 489 q 240 378 216 409 q 301 334 264 347 q 378 320 338 320 m 527 651 l 545 735 q 588 802 555 777 q 670 827 621 827 l 747 827 l 727 730 l 659 730 q 636 723 644 730 q 625 696 629 716 l 606 609 l 527 651 m 339 836 l 258 897 l 420 1077 l 559 1077 l 652 882 l 556 836 l 480 1008 l 339 836 z "},"ģ":{"ha":768,"x_min":-45,"x_max":747,"o":"m 250 -281 q 78 -259 142 -281 q -16 -198 13 -238 q -45 -104 -45 -159 q -2 11 -45 -33 q 120 83 40 54 q 79 117 94 94 q 63 166 63 141 q 96 242 63 204 q 178 293 128 280 q 124 361 144 317 q 105 462 105 406 q 140 602 105 536 q 242 708 175 667 q 408 749 310 749 q 539 725 477 749 q 638 650 600 701 q 677 519 677 600 q 659 413 677 465 q 601 318 641 360 q 497 254 562 277 q 338 238 432 232 l 275 242 q 204 229 227 245 q 181 186 181 212 q 197 159 181 170 q 271 142 213 147 l 411 128 q 554 96 505 119 q 621 39 603 73 q 638 -39 638 5 q 621 -131 638 -92 q 570 -199 603 -171 q 492 -246 537 -228 q 391 -272 446 -264 q 274 -281 336 -281 l 250 -281 m 260 -190 l 300 -190 q 409 -179 360 -190 q 486 -139 457 -168 q 515 -59 515 -111 q 485 8 515 -13 q 383 38 456 30 l 259 52 q 122 8 168 40 q 77 -83 77 -24 q 119 -163 77 -137 q 260 -190 161 -190 m 378 320 q 490 353 450 320 q 548 432 531 386 q 565 519 565 479 q 542 606 565 574 q 482 652 519 638 q 406 666 446 666 q 314 645 351 666 q 256 592 277 624 q 225 524 235 559 q 216 461 216 489 q 240 378 216 409 q 301 334 264 347 q 378 320 338 320 m 527 651 l 545 735 q 588 802 555 777 q 670 827 621 827 l 747 827 l 727 730 l 659 730 q 636 723 644 730 q 625 696 629 716 l 606 609 l 527 651 m 549 1134 l 576 1089 l 557 1078 q 508 1043 526 1061 q 488 1000 491 1025 l 485 977 l 474 996 q 528 971 508 993 q 547 924 547 949 q 523 870 547 892 q 466 849 498 849 q 428 857 448 849 q 395 884 408 865 q 381 934 381 903 q 420 1038 381 989 q 518 1118 459 1086 l 549 1134 z "},"ġ":{"ha":768,"x_min":-45,"x_max":747,"o":"m 250 -281 q 78 -259 142 -281 q -16 -198 13 -238 q -45 -104 -45 -159 q -2 11 -45 -33 q 120 83 40 54 q 79 117 94 94 q 63 166 63 141 q 96 242 63 204 q 178 293 128 280 q 124 361 144 317 q 105 462 105 406 q 140 602 105 536 q 242 708 175 667 q 408 749 310 749 q 539 725 477 749 q 638 650 600 701 q 677 519 677 600 q 659 413 677 465 q 601 318 641 360 q 497 254 562 277 q 338 238 432 232 l 275 242 q 204 229 227 245 q 181 186 181 212 q 197 159 181 170 q 271 142 213 147 l 411 128 q 554 96 505 119 q 621 39 603 73 q 638 -39 638 5 q 621 -131 638 -92 q 570 -199 603 -171 q 492 -246 537 -228 q 391 -272 446 -264 q 274 -281 336 -281 l 250 -281 m 260 -190 l 300 -190 q 409 -179 360 -190 q 486 -139 457 -168 q 515 -59 515 -111 q 485 8 515 -13 q 383 38 456 30 l 259 52 q 122 8 168 40 q 77 -83 77 -24 q 119 -163 77 -137 q 260 -190 161 -190 m 378 320 q 490 353 450 320 q 548 432 531 386 q 565 519 565 479 q 542 606 565 574 q 482 652 519 638 q 406 666 446 666 q 314 645 351 666 q 256 592 277 624 q 225 524 235 559 q 216 461 216 489 q 240 378 216 409 q 301 334 264 347 q 378 320 338 320 m 527 651 l 545 735 q 588 802 555 777 q 670 827 621 827 l 747 827 l 727 730 l 659 730 q 636 723 644 730 q 625 696 629 716 l 606 609 l 527 651 m 458 855 q 395 880 419 855 q 371 940 371 905 q 403 1014 371 982 q 478 1045 435 1045 q 541 1020 517 1045 q 565 960 565 996 q 533 887 565 919 q 458 855 502 855 z "},"h":{"ha":754,"x_min":28,"x_max":718,"o":"m 28 0 l 244 1017 l 356 1017 l 260 566 l 254 596 q 355 706 294 664 q 500 749 416 749 q 633 708 582 749 q 701 598 684 668 q 699 439 718 528 l 606 0 l 493 0 l 589 452 q 593 557 602 511 q 552 629 584 603 q 464 655 520 655 q 316 589 380 655 q 222 382 252 524 l 140 0 l 28 0 z "},"ħ":{"ha":754,"x_min":28,"x_max":718,"o":"m 28 0 l 244 1017 l 356 1017 l 260 566 l 254 596 q 355 706 294 664 q 500 749 416 749 q 633 708 582 749 q 701 598 684 668 q 699 439 718 528 l 606 0 l 493 0 l 589 452 q 593 557 602 511 q 552 629 584 603 q 464 655 520 655 q 316 589 380 655 q 222 382 252 524 l 140 0 l 28 0 m 114 789 l 132 880 l 469 880 l 450 789 l 114 789 z "},"ĥ":{"ha":754,"x_min":28,"x_max":718,"o":"m 28 0 l 244 1017 l 356 1017 l 260 566 l 254 596 q 355 706 294 664 q 500 749 416 749 q 633 708 582 749 q 701 598 684 668 q 699 439 718 528 l 606 0 l 493 0 l 589 452 q 593 557 602 511 q 552 629 584 603 q 464 655 520 655 q 316 589 380 655 q 222 382 252 524 l 140 0 l 28 0 m 218 1120 l 138 1182 l 299 1362 l 438 1362 l 531 1166 l 435 1120 l 359 1293 l 218 1120 z "},"i":{"ha":324,"x_min":28,"x_max":383,"o":"m 296 732 l 140 0 l 28 0 l 184 732 l 296 732 m 276 855 q 213 880 237 855 q 189 940 189 905 q 221 1014 189 982 q 296 1045 253 1045 q 359 1020 335 1045 q 383 960 383 996 q 352 887 383 919 q 276 855 320 855 z "},"ı":{"ha":324,"x_min":28,"x_max":296,"o":"m 296 732 l 140 0 l 28 0 l 184 732 l 296 732 z "},"í":{"ha":324,"x_min":28,"x_max":465,"o":"m 296 732 l 140 0 l 28 0 l 184 732 l 296 732 m 294 822 l 220 870 l 366 1090 l 465 1027 l 294 822 z "},"ĭ":{"ha":324,"x_min":28,"x_max":511,"o":"m 296 732 l 140 0 l 28 0 l 184 732 l 296 732 m 258 850 q 110 900 159 850 q 64 1032 60 950 l 162 1059 q 182 970 155 1004 q 270 937 210 937 q 362 968 328 937 q 412 1052 395 1000 l 511 1025 q 417 898 481 946 q 258 850 353 850 z "},"î":{"ha":324,"x_min":28,"x_max":470,"o":"m 296 732 l 140 0 l 28 0 l 184 732 l 296 732 m 157 836 l 77 897 l 238 1077 l 377 1077 l 470 882 l 374 836 l 298 1008 l 157 836 z "},"ï":{"ha":324,"x_min":28,"x_max":492,"o":"m 296 732 l 140 0 l 28 0 l 184 732 l 296 732 m 165 860 q 105 884 128 860 q 82 941 82 907 q 113 1010 82 980 q 184 1040 143 1040 q 244 1017 221 1040 q 267 960 267 993 q 237 890 267 920 q 165 860 207 860 m 391 860 q 331 884 354 860 q 308 941 308 907 q 338 1010 308 980 q 410 1040 369 1040 q 470 1017 447 1040 q 492 960 492 993 q 463 890 492 920 q 391 860 433 860 z "},"ị":{"ha":324,"x_min":-50,"x_max":383,"o":"m 296 732 l 140 0 l 28 0 l 184 732 l 296 732 m 276 855 q 213 880 237 855 q 189 940 189 905 q 221 1014 189 982 q 296 1045 253 1045 q 359 1020 335 1045 q 383 960 383 996 q 352 887 383 919 q 276 855 320 855 m 37 -308 q -26 -283 -2 -308 q -50 -223 -50 -258 q -18 -150 -50 -181 q 57 -118 14 -118 q 120 -143 96 -118 q 144 -203 144 -168 q 112 -276 144 -244 q 37 -308 81 -308 z "},"ì":{"ha":324,"x_min":28,"x_max":306,"o":"m 296 732 l 140 0 l 28 0 l 184 732 l 296 732 m 231 822 l 54 1027 l 156 1092 l 306 868 l 231 822 z "},"ĳ":{"ha":672,"x_min":28,"x_max":730,"o":"m 296 732 l 140 0 l 28 0 l 184 732 l 296 732 m 276 855 q 213 880 237 855 q 189 940 189 905 q 221 1014 189 982 q 296 1045 253 1045 q 359 1020 335 1045 q 383 960 383 996 q 352 887 383 919 q 276 855 320 855 m 212 -264 l 232 -168 l 315 -168 q 339 -159 330 -168 q 352 -132 348 -151 l 532 732 l 644 732 l 465 -127 q 414 -231 450 -198 q 310 -264 377 -264 l 212 -264 m 623 855 q 561 880 585 855 q 536 940 536 905 q 568 1014 536 982 q 644 1045 600 1045 q 706 1020 682 1045 q 730 960 730 996 q 699 887 730 919 q 623 855 667 855 z "},"ī":{"ha":324,"x_min":28,"x_max":512,"o":"m 296 732 l 140 0 l 28 0 l 184 732 l 296 732 m 66 913 l 83 999 l 512 999 l 494 913 l 66 913 z "},"į":{"ha":324,"x_min":-124,"x_max":383,"o":"m 296 732 l 140 0 l 28 0 l 184 732 l 296 732 m 276 855 q 213 880 237 855 q 189 940 189 905 q 221 1014 189 982 q 296 1045 253 1045 q 359 1020 335 1045 q 383 960 383 996 q 352 887 383 919 q 276 855 320 855 m 43 -281 q -38 -265 1 -281 q -100 -218 -76 -250 q -124 -142 -124 -187 q -74 -39 -124 -79 q 47 20 -24 1 l 83 12 l 83 0 l 140 0 q 41 -50 85 -14 q -3 -132 -3 -85 q 18 -179 -3 -163 q 70 -195 39 -195 q 113 -188 90 -195 l 130 -264 q 43 -281 89 -281 z "},"ĩ":{"ha":324,"x_min":26,"x_max":529,"o":"m 296 732 l 140 0 l 28 0 l 184 732 l 296 732 m 359 865 q 297 879 320 865 q 258 911 273 892 q 228 943 243 929 q 191 956 213 956 q 142 933 160 956 q 106 869 123 909 l 26 899 q 90 1012 45 974 q 201 1050 135 1050 q 266 1037 242 1050 q 304 1004 289 1023 q 332 972 319 986 q 367 958 346 958 q 413 979 395 958 q 448 1034 431 999 l 529 1002 q 464 900 508 935 q 359 865 420 865 z "},"j":{"ha":357,"x_min":-104,"x_max":415,"o":"m -104 -264 l -83 -168 l 0 -168 q 24 -159 15 -168 q 37 -132 33 -151 l 216 732 l 328 732 l 150 -127 q 98 -231 135 -198 q -5 -264 62 -264 l -104 -264 m 308 855 q 245 880 269 855 q 221 940 221 905 q 253 1014 221 982 q 328 1045 285 1045 q 391 1020 367 1045 q 415 960 415 996 q 384 887 415 919 q 308 855 352 855 z "},"ȷ":{"ha":357,"x_min":-104,"x_max":328,"o":"m -104 -264 l -83 -168 l 0 -168 q 24 -159 15 -168 q 37 -132 33 -151 l 216 732 l 328 732 l 150 -127 q 98 -231 135 -198 q -5 -264 62 -264 l -104 -264 z "},"ĵ":{"ha":357,"x_min":-104,"x_max":502,"o":"m -104 -264 l -83 -168 l 0 -168 q 24 -159 15 -168 q 37 -132 33 -151 l 216 732 l 328 732 l 150 -127 q 98 -231 135 -198 q -5 -264 62 -264 l -104 -264 m 189 836 l 109 897 l 270 1077 l 409 1077 l 502 882 l 406 836 l 330 1008 l 189 836 z "},"k":{"ha":732,"x_min":28,"x_max":766,"o":"m 28 0 l 243 1017 l 356 1017 l 233 435 l 612 732 l 766 732 l 425 456 l 625 0 l 500 0 l 333 382 l 197 272 l 140 0 l 28 0 z "},"ķ":{"ha":732,"x_min":28,"x_max":766,"o":"m 28 0 l 243 1017 l 356 1017 l 233 435 l 612 732 l 766 732 l 425 456 l 625 0 l 500 0 l 333 382 l 197 272 l 140 0 l 28 0 m 188 -329 l 160 -278 l 174 -271 q 218 -242 205 -254 q 233 -211 231 -230 l 234 -196 l 248 -214 q 193 -192 212 -212 q 174 -142 174 -172 q 199 -81 174 -103 q 258 -60 223 -60 q 319 -82 294 -60 q 342 -149 343 -105 q 306 -249 342 -207 q 217 -315 270 -290 l 188 -329 z "},"ĸ":{"ha":734,"x_min":28,"x_max":767,"o":"m 297 732 l 233 435 l 614 732 l 767 732 l 426 456 l 627 0 l 502 0 l 334 382 l 199 272 l 142 0 l 28 0 l 184 732 l 297 732 z "},"l":{"ha":345,"x_min":39,"x_max":354,"o":"m 152 0 q 68 33 97 0 q 50 115 39 65 l 241 1017 l 354 1017 l 167 134 q 167 105 162 113 q 191 97 172 97 l 243 97 l 224 0 l 152 0 z "},"ĺ":{"ha":345,"x_min":39,"x_max":525,"o":"m 152 0 q 68 33 97 0 q 50 115 39 65 l 241 1017 l 354 1017 l 167 134 q 167 105 162 113 q 191 97 172 97 l 243 97 l 224 0 l 152 0 m 355 1107 l 280 1155 l 427 1375 l 525 1312 l 355 1107 z "},"ľ":{"ha":345,"x_min":39,"x_max":569,"o":"m 152 0 q 68 33 97 0 q 50 115 39 65 l 241 1017 l 354 1017 l 167 134 q 167 105 162 113 q 191 97 172 97 l 243 97 l 224 0 l 152 0 m 492 822 l 415 837 l 460 1090 l 569 1069 l 492 822 z "},"ļ":{"ha":345,"x_min":-15,"x_max":354,"o":"m 152 0 q 68 33 97 0 q 50 115 39 65 l 241 1017 l 354 1017 l 167 134 q 167 105 162 113 q 191 97 172 97 l 243 97 l 224 0 l 152 0 m 13 -329 l -15 -278 l -1 -271 q 43 -242 31 -254 q 58 -211 56 -230 l 59 -196 l 73 -214 q 18 -192 37 -212 q -1 -142 -1 -172 q 24 -81 -1 -103 q 83 -60 48 -60 q 144 -82 119 -60 q 168 -149 168 -105 q 131 -249 167 -207 q 42 -315 95 -290 l 13 -329 z "},"ŀ":{"ha":491,"x_min":39,"x_max":530,"o":"m 152 0 q 68 33 97 0 q 50 115 39 65 l 241 1017 l 354 1017 l 167 134 q 167 105 162 113 q 191 97 172 97 l 243 97 l 224 0 l 152 0 m 429 331 q 357 360 386 331 q 328 432 328 390 q 357 505 328 475 q 429 534 386 534 q 500 505 471 534 q 530 432 530 475 q 500 360 530 390 q 429 331 471 331 z "},"ł":{"ha":345,"x_min":3,"x_max":416,"o":"m 152 0 q 68 33 97 0 q 50 115 39 65 l 241 1017 l 354 1017 l 167 134 q 167 105 162 113 q 191 97 172 97 l 243 97 l 224 0 l 152 0 m 3 471 l 24 574 l 416 758 l 394 654 l 3 471 z "},"m":{"ha":1160,"x_min":28,"x_max":1105,"o":"m 28 0 l 183 732 l 279 732 l 256 612 q 350 711 293 673 q 481 749 407 749 q 603 707 556 749 q 663 594 649 665 q 772 708 710 667 q 907 749 833 749 q 1028 708 981 749 q 1090 598 1074 668 q 1086 439 1105 528 l 993 0 l 880 0 l 977 452 q 982 557 989 511 q 946 629 974 603 q 868 655 918 655 q 736 589 795 655 q 648 382 677 524 l 567 0 l 454 0 l 550 452 q 555 557 563 511 q 519 629 547 603 q 441 655 491 655 q 310 589 368 655 q 220 382 251 524 l 140 0 l 28 0 z "},"n":{"ha":773,"x_min":28,"x_max":718,"o":"m 28 0 l 182 732 l 288 732 l 253 566 l 254 596 q 356 706 294 664 q 501 749 417 749 q 633 708 583 749 q 700 598 683 668 q 699 439 718 528 l 606 0 l 494 0 l 589 452 q 593 557 602 511 q 552 629 584 603 q 465 655 521 655 q 316 589 381 655 q 220 382 250 524 l 140 0 l 28 0 z "},"ń":{"ha":773,"x_min":28,"x_max":718,"o":"m 28 0 l 182 732 l 288 732 l 253 566 l 254 596 q 356 706 294 664 q 501 749 417 749 q 633 708 583 749 q 700 598 683 668 q 699 439 718 528 l 606 0 l 494 0 l 589 452 q 593 557 602 511 q 552 629 584 603 q 465 655 521 655 q 316 589 381 655 q 220 382 250 524 l 140 0 l 28 0 m 544 822 l 469 870 l 616 1090 l 714 1027 l 544 822 z "},"ŉ":{"ha":941,"x_min":115,"x_max":902,"o":"m 149 587 l 115 649 l 138 663 q 200 712 178 687 q 225 772 222 737 l 229 804 l 242 779 q 176 812 200 783 q 151 877 151 842 q 182 952 151 922 q 252 981 212 981 q 300 970 275 981 q 341 933 324 959 q 358 864 358 908 q 310 720 358 788 q 187 609 262 652 l 149 587 m 213 0 l 367 732 l 472 732 l 437 566 l 439 596 q 540 706 479 664 q 686 749 602 749 q 817 708 767 749 q 885 598 867 668 q 883 439 902 528 l 791 0 l 678 0 l 773 452 q 777 557 786 511 q 737 629 768 603 q 649 655 705 655 q 500 589 566 655 q 405 382 435 524 l 325 0 l 213 0 z "},"ň":{"ha":773,"x_min":28,"x_max":749,"o":"m 28 0 l 182 732 l 288 732 l 253 566 l 254 596 q 356 706 294 664 q 501 749 417 749 q 633 708 583 749 q 700 598 683 668 q 699 439 718 528 l 606 0 l 494 0 l 589 452 q 593 557 602 511 q 552 629 584 603 q 465 655 521 655 q 316 589 381 655 q 220 382 250 524 l 140 0 l 28 0 m 669 1077 l 749 1015 l 588 836 l 449 836 l 356 1031 l 452 1077 l 528 905 l 669 1077 z "},"ņ":{"ha":773,"x_min":28,"x_max":718,"o":"m 28 0 l 182 732 l 288 732 l 253 566 l 254 596 q 356 706 294 664 q 501 749 417 749 q 633 708 583 749 q 700 598 683 668 q 699 439 718 528 l 606 0 l 494 0 l 589 452 q 593 557 602 511 q 552 629 584 603 q 465 655 521 655 q 316 589 381 655 q 220 382 250 524 l 140 0 l 28 0 m 233 -329 l 205 -278 l 219 -271 q 263 -242 250 -254 q 277 -211 276 -230 l 279 -196 l 292 -214 q 238 -192 257 -212 q 219 -142 219 -172 q 243 -81 219 -103 q 303 -60 268 -60 q 363 -82 339 -60 q 387 -149 388 -105 q 351 -249 387 -207 q 262 -315 315 -290 l 233 -329 z "},"ɲ":{"ha":773,"x_min":-139,"x_max":718,"o":"m 28 0 l 182 732 l 288 732 l 253 566 l 254 596 q 356 706 294 664 q 501 749 417 749 q 633 708 583 749 q 700 598 683 668 q 699 439 718 528 l 606 0 l 494 0 l 589 452 q 593 557 602 511 q 552 629 584 603 q 465 655 521 655 q 316 589 381 655 q 220 382 250 524 l 140 0 l 28 0 m -139 -264 l -119 -168 l -36 -168 q -12 -159 -21 -168 q 1 -132 -3 -151 l 34 26 l 146 26 l 115 -127 q 63 -232 100 -199 q -42 -264 26 -264 l -139 -264 z "},"ñ":{"ha":773,"x_min":28,"x_max":779,"o":"m 28 0 l 182 732 l 288 732 l 253 566 l 254 596 q 356 706 294 664 q 501 749 417 749 q 633 708 583 749 q 700 598 683 668 q 699 439 718 528 l 606 0 l 494 0 l 589 452 q 593 557 602 511 q 552 629 584 603 q 465 655 521 655 q 316 589 381 655 q 220 382 250 524 l 140 0 l 28 0 m 608 865 q 546 879 570 865 q 508 911 523 892 q 477 943 492 929 q 440 956 463 956 q 391 933 410 956 q 356 869 373 909 l 275 899 q 340 1012 295 974 q 451 1050 385 1050 q 515 1037 492 1050 q 553 1004 538 1023 q 582 972 568 986 q 616 958 595 958 q 663 979 645 958 q 698 1034 681 999 l 779 1002 q 714 900 758 935 q 608 865 670 865 z "},"ŋ":{"ha":773,"x_min":28,"x_max":718,"o":"m 28 0 l 182 732 l 288 732 l 253 566 l 254 596 q 356 706 294 664 q 501 749 417 749 q 633 708 583 749 q 700 598 683 668 q 699 439 718 528 l 606 0 l 494 0 l 589 452 q 593 557 602 511 q 552 629 584 603 q 465 655 521 655 q 316 589 381 655 q 220 382 250 524 l 140 0 l 28 0 m 327 -264 l 347 -168 l 430 -168 q 454 -159 445 -168 q 467 -132 463 -151 l 500 26 l 612 26 l 581 -127 q 529 -232 566 -199 q 424 -264 492 -264 l 327 -264 z "},"o":{"ha":804,"x_min":57,"x_max":747,"o":"m 354 -16 q 202 21 269 -16 q 96 130 135 59 q 57 302 57 201 q 85 465 57 385 q 164 609 113 545 q 288 711 216 673 q 449 749 360 749 q 602 711 534 749 q 708 603 669 673 q 747 431 747 532 q 720 268 747 347 q 640 124 692 188 q 515 22 588 60 q 354 -16 443 -16 m 359 81 q 480 116 429 81 q 563 206 530 151 q 610 323 595 261 q 625 439 625 385 q 577 594 625 536 q 444 652 530 652 q 324 617 374 652 q 242 526 274 582 q 194 409 210 471 q 179 293 179 347 q 227 138 179 195 q 359 81 275 81 z "},"ó":{"ha":804,"x_min":57,"x_max":747,"o":"m 354 -16 q 202 21 269 -16 q 96 130 135 59 q 57 302 57 201 q 85 465 57 385 q 164 609 113 545 q 288 711 216 673 q 449 749 360 749 q 602 711 534 749 q 708 603 669 673 q 747 431 747 532 q 720 268 747 347 q 640 124 692 188 q 515 22 588 60 q 354 -16 443 -16 m 359 81 q 480 116 429 81 q 563 206 530 151 q 610 323 595 261 q 625 439 625 385 q 577 594 625 536 q 444 652 530 652 q 324 617 374 652 q 242 526 274 582 q 194 409 210 471 q 179 293 179 347 q 227 138 179 195 q 359 81 275 81 m 507 822 l 433 870 l 579 1090 l 677 1027 l 507 822 z "},"ŏ":{"ha":804,"x_min":57,"x_max":747,"o":"m 354 -16 q 202 21 269 -16 q 96 130 135 59 q 57 302 57 201 q 85 465 57 385 q 164 609 113 545 q 288 711 216 673 q 449 749 360 749 q 602 711 534 749 q 708 603 669 673 q 747 431 747 532 q 720 268 747 347 q 640 124 692 188 q 515 22 588 60 q 354 -16 443 -16 m 359 81 q 480 116 429 81 q 563 206 530 151 q 610 323 595 261 q 625 439 625 385 q 577 594 625 536 q 444 652 530 652 q 324 617 374 652 q 242 526 274 582 q 194 409 210 471 q 179 293 179 347 q 227 138 179 195 q 359 81 275 81 m 471 850 q 322 900 372 850 q 277 1032 273 950 l 375 1059 q 395 970 368 1004 q 483 937 422 937 q 575 968 541 937 q 625 1052 608 1000 l 724 1025 q 630 898 694 946 q 471 850 566 850 z "},"ô":{"ha":804,"x_min":57,"x_max":747,"o":"m 354 -16 q 202 21 269 -16 q 96 130 135 59 q 57 302 57 201 q 85 465 57 385 q 164 609 113 545 q 288 711 216 673 q 449 749 360 749 q 602 711 534 749 q 708 603 669 673 q 747 431 747 532 q 720 268 747 347 q 640 124 692 188 q 515 22 588 60 q 354 -16 443 -16 m 359 81 q 480 116 429 81 q 563 206 530 151 q 610 323 595 261 q 625 439 625 385 q 577 594 625 536 q 444 652 530 652 q 324 617 374 652 q 242 526 274 582 q 194 409 210 471 q 179 293 179 347 q 227 138 179 195 q 359 81 275 81 m 370 836 l 290 897 l 451 1077 l 590 1077 l 683 882 l 587 836 l 511 1008 l 370 836 z "},"ö":{"ha":804,"x_min":57,"x_max":747,"o":"m 354 -16 q 202 21 269 -16 q 96 130 135 59 q 57 302 57 201 q 85 465 57 385 q 164 609 113 545 q 288 711 216 673 q 449 749 360 749 q 602 711 534 749 q 708 603 669 673 q 747 431 747 532 q 720 268 747 347 q 640 124 692 188 q 515 22 588 60 q 354 -16 443 -16 m 359 81 q 480 116 429 81 q 563 206 530 151 q 610 323 595 261 q 625 439 625 385 q 577 594 625 536 q 444 652 530 652 q 324 617 374 652 q 242 526 274 582 q 194 409 210 471 q 179 293 179 347 q 227 138 179 195 q 359 81 275 81 m 345 855 q 282 880 306 855 q 258 940 258 905 q 290 1014 258 982 q 365 1045 321 1045 q 428 1020 404 1045 q 452 960 452 996 q 420 887 452 919 q 345 855 389 855 m 634 855 q 571 880 595 855 q 547 940 547 905 q 579 1014 547 982 q 654 1045 611 1045 q 717 1020 693 1045 q 741 960 741 996 q 710 887 741 919 q 634 855 678 855 z "},"ọ":{"ha":804,"x_min":57,"x_max":747,"o":"m 354 -16 q 202 21 269 -16 q 96 130 135 59 q 57 302 57 201 q 85 465 57 385 q 164 609 113 545 q 288 711 216 673 q 449 749 360 749 q 602 711 534 749 q 708 603 669 673 q 747 431 747 532 q 720 268 747 347 q 640 124 692 188 q 515 22 588 60 q 354 -16 443 -16 m 359 81 q 480 116 429 81 q 563 206 530 151 q 610 323 595 261 q 625 439 625 385 q 577 594 625 536 q 444 652 530 652 q 324 617 374 652 q 242 526 274 582 q 194 409 210 471 q 179 293 179 347 q 227 138 179 195 q 359 81 275 81 m 290 -308 q 228 -283 252 -308 q 203 -223 203 -258 q 235 -150 203 -181 q 311 -118 267 -118 q 373 -143 349 -118 q 397 -203 397 -168 q 366 -276 397 -244 q 290 -308 334 -308 z "},"ò":{"ha":804,"x_min":57,"x_max":747,"o":"m 354 -16 q 202 21 269 -16 q 96 130 135 59 q 57 302 57 201 q 85 465 57 385 q 164 609 113 545 q 288 711 216 673 q 449 749 360 749 q 602 711 534 749 q 708 603 669 673 q 747 431 747 532 q 720 268 747 347 q 640 124 692 188 q 515 22 588 60 q 354 -16 443 -16 m 359 81 q 480 116 429 81 q 563 206 530 151 q 610 323 595 261 q 625 439 625 385 q 577 594 625 536 q 444 652 530 652 q 324 617 374 652 q 242 526 274 582 q 194 409 210 471 q 179 293 179 347 q 227 138 179 195 q 359 81 275 81 m 444 822 l 267 1027 l 369 1092 l 519 868 l 444 822 z "},"ő":{"ha":804,"x_min":57,"x_max":747,"o":"m 354 -16 q 202 21 269 -16 q 96 130 135 59 q 57 302 57 201 q 85 465 57 385 q 164 609 113 545 q 288 711 216 673 q 449 749 360 749 q 602 711 534 749 q 708 603 669 673 q 747 431 747 532 q 720 268 747 347 q 640 124 692 188 q 515 22 588 60 q 354 -16 443 -16 m 359 81 q 480 116 429 81 q 563 206 530 151 q 610 323 595 261 q 625 439 625 385 q 577 594 625 536 q 444 652 530 652 q 324 617 374 652 q 242 526 274 582 q 194 409 210 471 q 179 293 179 347 q 227 138 179 195 q 359 81 275 81 m 326 822 l 252 870 l 398 1090 l 496 1027 l 326 822 m 537 822 l 463 870 l 609 1090 l 707 1027 l 537 822 z "},"ō":{"ha":804,"x_min":57,"x_max":747,"o":"m 354 -16 q 202 21 269 -16 q 96 130 135 59 q 57 302 57 201 q 85 465 57 385 q 164 609 113 545 q 288 711 216 673 q 449 749 360 749 q 602 711 534 749 q 708 603 669 673 q 747 431 747 532 q 720 268 747 347 q 640 124 692 188 q 515 22 588 60 q 354 -16 443 -16 m 359 81 q 480 116 429 81 q 563 206 530 151 q 610 323 595 261 q 625 439 625 385 q 577 594 625 536 q 444 652 530 652 q 324 617 374 652 q 242 526 274 582 q 194 409 210 471 q 179 293 179 347 q 227 138 179 195 q 359 81 275 81 m 279 913 l 296 999 l 725 999 l 707 913 l 279 913 z "},"ǫ":{"ha":804,"x_min":57,"x_max":747,"o":"m 354 -16 q 202 21 269 -16 q 96 130 135 59 q 57 302 57 201 q 85 465 57 385 q 164 609 113 545 q 288 711 216 673 q 449 749 360 749 q 602 711 534 749 q 708 603 669 673 q 747 431 747 532 q 720 268 747 347 q 640 124 692 188 q 515 22 588 60 q 354 -16 443 -16 m 359 81 q 480 116 429 81 q 563 206 530 151 q 610 323 595 261 q 625 439 625 385 q 577 594 625 536 q 444 652 530 652 q 324 617 374 652 q 242 526 274 582 q 194 409 210 471 q 179 293 179 347 q 227 138 179 195 q 359 81 275 81 m 360 -281 q 279 -265 317 -281 q 217 -218 241 -250 q 193 -142 193 -187 q 243 -39 193 -79 q 363 20 293 1 l 400 12 l 399 0 l 457 0 q 357 -50 401 -14 q 313 -132 313 -85 q 334 -179 313 -163 q 387 -195 355 -195 q 430 -188 406 -195 l 447 -264 q 360 -281 406 -281 z "},"ø":{"ha":804,"x_min":-25,"x_max":830,"o":"m 354 -16 q 202 21 269 -16 q 96 130 135 59 q 57 302 57 201 q 85 465 57 385 q 164 609 113 545 q 288 711 216 673 q 449 749 360 749 q 602 711 534 749 q 708 603 669 673 q 747 431 747 532 q 720 268 747 347 q 640 124 692 188 q 515 22 588 60 q 354 -16 443 -16 m 359 81 q 480 116 429 81 q 563 206 530 151 q 610 323 595 261 q 625 439 625 385 q 577 594 625 536 q 444 652 530 652 q 324 617 374 652 q 242 526 274 582 q 194 409 210 471 q 179 293 179 347 q 227 138 179 195 q 359 81 275 81 m 30 -26 l -25 34 l 775 762 l 830 703 l 30 -26 z "},"ǿ":{"ha":804,"x_min":-25,"x_max":830,"o":"m 354 -16 q 202 21 269 -16 q 96 130 135 59 q 57 302 57 201 q 85 465 57 385 q 164 609 113 545 q 288 711 216 673 q 449 749 360 749 q 602 711 534 749 q 708 603 669 673 q 747 431 747 532 q 720 268 747 347 q 640 124 692 188 q 515 22 588 60 q 354 -16 443 -16 m 359 81 q 480 116 429 81 q 563 206 530 151 q 610 323 595 261 q 625 439 625 385 q 577 594 625 536 q 444 652 530 652 q 324 617 374 652 q 242 526 274 582 q 194 409 210 471 q 179 293 179 347 q 227 138 179 195 q 359 81 275 81 m 30 -26 l -25 34 l 775 762 l 830 703 l 30 -26 m 507 822 l 433 870 l 579 1090 l 677 1027 l 507 822 z "},"õ":{"ha":804,"x_min":57,"x_max":747,"o":"m 354 -16 q 202 21 269 -16 q 96 130 135 59 q 57 302 57 201 q 85 465 57 385 q 164 609 113 545 q 288 711 216 673 q 449 749 360 749 q 602 711 534 749 q 708 603 669 673 q 747 431 747 532 q 720 268 747 347 q 640 124 692 188 q 515 22 588 60 q 354 -16 443 -16 m 359 81 q 480 116 429 81 q 563 206 530 151 q 610 323 595 261 q 625 439 625 385 q 577 594 625 536 q 444 652 530 652 q 324 617 374 652 q 242 526 274 582 q 194 409 210 471 q 179 293 179 347 q 227 138 179 195 q 359 81 275 81 m 572 865 q 510 879 533 865 q 471 911 486 892 q 441 943 456 929 q 404 956 426 956 q 355 933 373 956 q 319 869 336 909 l 239 899 q 303 1012 258 974 q 414 1050 348 1050 q 478 1037 455 1050 q 517 1004 502 1023 q 545 972 532 986 q 580 958 559 958 q 626 979 608 958 q 661 1034 644 999 l 742 1002 q 677 900 721 935 q 572 865 633 865 z "},"œ":{"ha":1251,"x_min":56,"x_max":1199,"o":"m 348 -16 q 201 21 267 -16 q 95 130 134 58 q 56 301 56 201 q 84 465 56 385 q 164 609 113 545 q 288 711 216 673 q 446 749 359 749 q 587 716 524 749 q 678 623 649 683 q 797 715 734 682 q 937 749 860 749 q 1077 714 1021 749 q 1161 621 1132 680 q 1194 489 1190 562 q 1183 338 1199 416 l 688 338 q 690 216 681 275 q 738 119 700 157 q 850 81 775 81 q 957 116 912 81 q 1040 226 1002 151 l 1154 186 q 1016 33 1097 81 q 845 -16 936 -16 q 699 17 768 -16 q 602 111 629 50 q 493 18 560 52 q 348 -16 427 -16 m 357 81 q 468 116 421 81 q 545 207 515 151 q 589 325 575 262 q 604 442 604 387 q 563 594 604 537 q 439 652 522 652 q 325 616 374 652 q 243 526 276 581 q 195 409 211 471 q 179 293 179 347 q 228 138 179 195 q 357 81 277 81 m 707 433 l 1073 433 q 1066 541 1077 490 q 1023 622 1055 591 q 930 652 991 652 q 797 596 854 652 q 707 433 739 539 z "},"p":{"ha":796,"x_min":-28,"x_max":750,"o":"m -28 -264 l 183 732 l 290 732 l 260 593 l 258 604 q 367 712 302 676 q 505 749 431 749 q 685 667 621 749 q 750 453 750 585 q 736 329 750 394 q 694 203 722 264 q 623 92 666 142 q 523 13 581 43 q 391 -16 465 -16 q 235 33 299 -16 q 154 166 170 81 l 174 167 l 84 -264 l -28 -264 m 369 81 q 485 118 436 81 q 564 212 533 155 q 610 334 595 270 q 625 451 625 397 q 584 597 625 542 q 461 652 543 652 q 344 616 393 652 q 263 524 295 580 q 215 404 231 467 q 199 287 199 341 q 246 135 199 189 q 369 81 292 81 z "},"þ":{"ha":789,"x_min":-28,"x_max":750,"o":"m -28 -264 l 243 1017 l 355 1017 l 266 593 l 258 604 q 367 712 302 676 q 505 749 431 749 q 685 667 621 749 q 750 453 750 585 q 736 329 750 394 q 694 203 722 264 q 623 92 666 142 q 523 13 581 43 q 391 -16 465 -16 q 235 33 299 -16 q 154 166 170 81 l 174 167 l 84 -264 l -28 -264 m 369 81 q 485 118 436 81 q 564 212 533 155 q 610 334 595 270 q 625 451 625 397 q 584 597 625 542 q 461 652 543 652 q 344 616 393 652 q 263 524 295 580 q 215 404 231 467 q 199 287 199 341 q 246 135 199 189 q 369 81 292 81 z "},"q":{"ha":794,"x_min":47,"x_max":766,"o":"m 443 -264 l 530 149 l 551 142 q 434 22 500 60 q 294 -16 369 -16 q 161 23 216 -16 q 76 130 105 62 q 47 283 47 197 q 61 405 47 340 q 103 530 75 469 q 173 641 131 591 q 270 719 214 690 q 395 749 326 749 q 546 704 479 749 q 632 583 613 660 l 625 566 l 659 732 l 766 732 l 555 -264 l 443 -264 m 332 81 q 450 118 401 81 q 531 212 500 155 q 576 332 562 269 q 591 445 591 394 q 541 600 591 548 q 419 652 492 652 q 306 615 353 652 q 229 521 259 578 q 185 399 199 463 q 171 280 171 335 q 214 130 171 179 q 332 81 258 81 z "},"r":{"ha":531,"x_min":27,"x_max":574,"o":"m 27 0 l 183 732 l 287 732 l 254 570 l 250 595 q 363 711 298 674 q 488 749 428 749 q 537 743 513 749 q 574 729 560 737 l 536 622 q 498 634 519 629 q 453 639 477 639 q 396 630 429 639 q 330 593 364 621 q 266 511 296 566 q 216 364 236 456 l 139 0 l 27 0 z "},"ŕ":{"ha":531,"x_min":27,"x_max":594,"o":"m 27 0 l 183 732 l 287 732 l 254 570 l 250 595 q 363 711 298 674 q 488 749 428 749 q 537 743 513 749 q 574 729 560 737 l 536 622 q 498 634 519 629 q 453 639 477 639 q 396 630 429 639 q 330 593 364 621 q 266 511 296 566 q 216 364 236 456 l 139 0 l 27 0 m 424 822 l 349 870 l 496 1090 l 594 1027 l 424 822 z "},"ř":{"ha":531,"x_min":27,"x_max":629,"o":"m 27 0 l 183 732 l 287 732 l 254 570 l 250 595 q 363 711 298 674 q 488 749 428 749 q 537 743 513 749 q 574 729 560 737 l 536 622 q 498 634 519 629 q 453 639 477 639 q 396 630 429 639 q 330 593 364 621 q 266 511 296 566 q 216 364 236 456 l 139 0 l 27 0 m 549 1077 l 629 1015 l 468 836 l 329 836 l 236 1031 l 332 1077 l 408 905 l 549 1077 z "},"ŗ":{"ha":531,"x_min":-40,"x_max":574,"o":"m 27 0 l 183 732 l 287 732 l 254 570 l 250 595 q 363 711 298 674 q 488 749 428 749 q 537 743 513 749 q 574 729 560 737 l 536 622 q 498 634 519 629 q 453 639 477 639 q 396 630 429 639 q 330 593 364 621 q 266 511 296 566 q 216 364 236 456 l 139 0 l 27 0 m -12 -329 l -40 -278 l -26 -271 q 18 -242 5 -254 q 33 -211 31 -230 l 34 -196 l 47 -214 q -7 -192 12 -212 q -26 -142 -26 -172 q -1 -81 -26 -103 q 58 -60 23 -60 q 119 -82 94 -60 q 142 -149 143 -105 q 106 -249 142 -207 q 17 -315 70 -290 l -12 -329 z "},"s":{"ha":684,"x_min":18,"x_max":651,"o":"m 310 -16 q 195 0 248 -16 q 103 46 142 16 q 42 122 64 77 q 18 224 20 167 l 139 248 q 177 125 130 172 q 307 79 224 79 q 393 98 354 79 q 454 149 431 117 q 477 220 477 181 q 451 281 477 256 q 374 320 425 306 l 291 343 q 230 366 261 351 q 174 403 199 381 q 132 456 148 425 q 116 528 116 487 q 152 646 116 596 q 247 722 187 695 q 380 749 307 749 q 514 724 454 749 q 610 653 574 699 q 651 545 647 607 l 526 519 q 493 616 532 579 q 377 654 454 654 q 273 624 317 654 q 229 539 229 593 q 257 479 229 503 q 346 437 286 455 l 429 412 q 547 347 500 391 q 595 230 595 302 q 556 101 595 157 q 452 15 517 45 q 310 -16 388 -16 z "},"ś":{"ha":684,"x_min":18,"x_max":651,"o":"m 310 -16 q 195 0 248 -16 q 103 46 142 16 q 42 122 64 77 q 18 224 20 167 l 139 248 q 177 125 130 172 q 307 79 224 79 q 393 98 354 79 q 454 149 431 117 q 477 220 477 181 q 451 281 477 256 q 374 320 425 306 l 291 343 q 230 366 261 351 q 174 403 199 381 q 132 456 148 425 q 116 528 116 487 q 152 646 116 596 q 247 722 187 695 q 380 749 307 749 q 514 724 454 749 q 610 653 574 699 q 651 545 647 607 l 526 519 q 493 616 532 579 q 377 654 454 654 q 273 624 317 654 q 229 539 229 593 q 257 479 229 503 q 346 437 286 455 l 429 412 q 547 347 500 391 q 595 230 595 302 q 556 101 595 157 q 452 15 517 45 q 310 -16 388 -16 m 456 822 l 382 870 l 528 1090 l 627 1027 l 456 822 z "},"š":{"ha":684,"x_min":18,"x_max":662,"o":"m 310 -16 q 195 0 248 -16 q 103 46 142 16 q 42 122 64 77 q 18 224 20 167 l 139 248 q 177 125 130 172 q 307 79 224 79 q 393 98 354 79 q 454 149 431 117 q 477 220 477 181 q 451 281 477 256 q 374 320 425 306 l 291 343 q 230 366 261 351 q 174 403 199 381 q 132 456 148 425 q 116 528 116 487 q 152 646 116 596 q 247 722 187 695 q 380 749 307 749 q 514 724 454 749 q 610 653 574 699 q 651 545 647 607 l 526 519 q 493 616 532 579 q 377 654 454 654 q 273 624 317 654 q 229 539 229 593 q 257 479 229 503 q 346 437 286 455 l 429 412 q 547 347 500 391 q 595 230 595 302 q 556 101 595 157 q 452 15 517 45 q 310 -16 388 -16 m 581 1077 l 662 1015 l 500 836 l 361 836 l 269 1031 l 364 1077 l 440 905 l 581 1077 z "},"ş":{"ha":684,"x_min":18,"x_max":651,"o":"m 310 -16 q 195 0 248 -16 q 103 46 142 16 q 42 122 64 77 q 18 224 20 167 l 139 248 q 177 125 130 172 q 307 79 224 79 q 393 98 354 79 q 454 149 431 117 q 477 220 477 181 q 451 281 477 256 q 374 320 425 306 l 291 343 q 230 366 261 351 q 174 403 199 381 q 132 456 148 425 q 116 528 116 487 q 152 646 116 596 q 247 722 187 695 q 380 749 307 749 q 514 724 454 749 q 610 653 574 699 q 651 545 647 607 l 526 519 q 493 616 532 579 q 377 654 454 654 q 273 624 317 654 q 229 539 229 593 q 257 479 229 503 q 346 437 286 455 l 429 412 q 547 347 500 391 q 595 230 595 302 q 556 101 595 157 q 452 15 517 45 q 310 -16 388 -16 m 272 -281 q 204 -272 240 -281 q 138 -240 168 -263 l 170 -170 q 208 -192 186 -181 q 264 -202 231 -202 q 309 -194 286 -202 q 335 -159 333 -186 q 313 -121 338 -134 q 223 -105 288 -107 l 227 -66 l 292 28 l 370 28 l 368 14 l 307 -69 l 288 -46 q 396 -86 366 -52 q 421 -166 426 -119 q 382 -246 417 -211 q 272 -281 347 -281 z "},"ŝ":{"ha":684,"x_min":18,"x_max":651,"o":"m 310 -16 q 195 0 248 -16 q 103 46 142 16 q 42 122 64 77 q 18 224 20 167 l 139 248 q 177 125 130 172 q 307 79 224 79 q 393 98 354 79 q 454 149 431 117 q 477 220 477 181 q 451 281 477 256 q 374 320 425 306 l 291 343 q 230 366 261 351 q 174 403 199 381 q 132 456 148 425 q 116 528 116 487 q 152 646 116 596 q 247 722 187 695 q 380 749 307 749 q 514 724 454 749 q 610 653 574 699 q 651 545 647 607 l 526 519 q 493 616 532 579 q 377 654 454 654 q 273 624 317 654 q 229 539 229 593 q 257 479 229 503 q 346 437 286 455 l 429 412 q 547 347 500 391 q 595 230 595 302 q 556 101 595 157 q 452 15 517 45 q 310 -16 388 -16 m 319 836 l 239 897 l 400 1077 l 539 1077 l 632 882 l 536 836 l 460 1008 l 319 836 z "},"ș":{"ha":684,"x_min":18,"x_max":651,"o":"m 310 -16 q 195 0 248 -16 q 103 46 142 16 q 42 122 64 77 q 18 224 20 167 l 139 248 q 177 125 130 172 q 307 79 224 79 q 393 98 354 79 q 454 149 431 117 q 477 220 477 181 q 451 281 477 256 q 374 320 425 306 l 291 343 q 230 366 261 351 q 174 403 199 381 q 132 456 148 425 q 116 528 116 487 q 152 646 116 596 q 247 722 187 695 q 380 749 307 749 q 514 724 454 749 q 610 653 574 699 q 651 545 647 607 l 526 519 q 493 616 532 579 q 377 654 454 654 q 273 624 317 654 q 229 539 229 593 q 257 479 229 503 q 346 437 286 455 l 429 412 q 547 347 500 391 q 595 230 595 302 q 556 101 595 157 q 452 15 517 45 q 310 -16 388 -16 m 219 -329 l 191 -278 l 205 -271 q 250 -242 237 -254 q 264 -211 262 -230 l 265 -196 l 279 -214 q 224 -192 243 -212 q 205 -142 205 -172 q 230 -81 205 -103 q 290 -60 254 -60 q 350 -82 326 -60 q 374 -149 374 -105 q 337 -249 373 -207 q 248 -315 301 -290 l 219 -329 z "},"ß":{"ha":810,"x_min":17,"x_max":805,"o":"m 387 -16 q 278 0 326 -16 q 199 46 231 16 l 222 165 q 379 81 268 81 q 505 114 451 81 q 589 204 559 148 q 619 326 619 260 q 604 406 619 366 q 546 473 588 446 q 422 500 503 500 l 330 500 l 351 606 l 493 606 q 630 653 576 606 q 685 777 685 700 q 632 895 685 853 q 503 937 579 937 q 401 909 447 937 q 321 818 356 882 q 263 638 287 753 l 130 0 l 17 0 l 159 681 q 231 868 182 789 q 352 990 280 947 q 516 1034 425 1034 q 626 1016 574 1034 q 719 965 678 998 q 782 886 759 932 q 805 783 805 840 q 775 666 805 717 q 692 584 745 615 q 574 543 640 552 q 699 459 656 519 q 742 322 742 399 q 721 210 742 269 q 655 100 699 151 q 545 16 612 48 q 387 -16 477 -16 z "},"t":{"ha":444,"x_min":85,"x_max":470,"o":"m 199 0 q 115 33 144 0 q 96 115 85 65 l 207 635 l 94 635 l 113 732 l 228 732 l 260 886 l 378 911 l 340 732 l 470 732 l 450 635 l 319 635 l 213 134 q 214 105 208 113 q 237 97 219 97 l 338 97 l 317 0 l 199 0 z "},"ŧ":{"ha":444,"x_min":62,"x_max":470,"o":"m 199 0 q 115 33 144 0 q 96 115 85 65 l 207 635 l 94 635 l 113 732 l 228 732 l 260 886 l 378 911 l 340 732 l 470 732 l 450 635 l 319 635 l 213 134 q 214 105 208 113 q 237 97 219 97 l 338 97 l 317 0 l 199 0 m 62 402 l 81 493 l 417 493 l 399 402 l 62 402 z "},"ť":{"ha":471,"x_min":85,"x_max":631,"o":"m 199 0 q 115 33 144 0 q 96 115 85 65 l 207 635 l 94 635 l 113 732 l 228 732 l 260 886 l 378 911 l 340 732 l 470 732 l 450 635 l 319 635 l 213 134 q 214 105 208 113 q 237 97 219 97 l 338 97 l 317 0 l 199 0 m 554 822 l 477 837 l 522 1090 l 631 1069 l 554 822 z "},"ţ":{"ha":444,"x_min":19,"x_max":470,"o":"m 199 0 q 115 33 144 0 q 96 115 85 65 l 207 635 l 94 635 l 113 732 l 228 732 l 260 886 l 378 911 l 340 732 l 470 732 l 450 635 l 319 635 l 213 134 q 214 105 208 113 q 237 97 219 97 l 338 97 l 317 0 l 199 0 m 153 -281 q 84 -272 121 -281 q 19 -240 48 -263 l 50 -170 q 89 -192 66 -181 q 144 -202 111 -202 q 190 -194 166 -202 q 216 -159 214 -186 q 193 -121 218 -134 q 104 -105 168 -107 l 107 -66 l 172 28 l 250 28 l 249 14 l 187 -69 l 168 -46 q 276 -86 246 -52 q 302 -166 307 -119 q 262 -246 298 -211 q 153 -281 227 -281 z "},"ț":{"ha":444,"x_min":72,"x_max":470,"o":"m 199 0 q 115 33 144 0 q 96 115 85 65 l 207 635 l 94 635 l 113 732 l 228 732 l 260 886 l 378 911 l 340 732 l 470 732 l 450 635 l 319 635 l 213 134 q 214 105 208 113 q 237 97 219 97 l 338 97 l 317 0 l 199 0 m 100 -329 l 72 -278 l 86 -271 q 130 -242 117 -254 q 144 -211 143 -230 l 146 -196 l 159 -214 q 105 -192 124 -212 q 86 -142 86 -172 q 111 -81 86 -103 q 170 -60 135 -60 q 231 -82 206 -60 q 254 -149 255 -105 q 218 -249 254 -207 q 129 -315 182 -290 l 100 -329 z "},"u":{"ha":794,"x_min":56,"x_max":747,"o":"m 273 -16 q 134 25 184 -16 q 70 132 84 66 q 71 273 56 197 l 169 732 l 281 732 l 185 281 q 179 175 172 220 q 216 103 186 129 q 301 78 245 78 q 456 141 390 78 q 546 317 522 204 l 634 732 l 747 732 l 620 137 q 621 108 615 116 q 645 100 627 100 l 692 100 l 671 0 l 606 0 q 524 32 553 0 q 506 118 495 64 l 512 149 l 515 117 q 417 22 477 60 q 273 -16 357 -16 z "},"ú":{"ha":794,"x_min":56,"x_max":747,"o":"m 273 -16 q 134 25 184 -16 q 70 132 84 66 q 71 273 56 197 l 169 732 l 281 732 l 185 281 q 179 175 172 220 q 216 103 186 129 q 301 78 245 78 q 456 141 390 78 q 546 317 522 204 l 634 732 l 747 732 l 620 137 q 621 108 615 116 q 645 100 627 100 l 692 100 l 671 0 l 606 0 q 524 32 553 0 q 506 118 495 64 l 512 149 l 515 117 q 417 22 477 60 q 273 -16 357 -16 m 515 822 l 440 870 l 587 1090 l 685 1027 l 515 822 z "},"ŭ":{"ha":794,"x_min":56,"x_max":747,"o":"m 273 -16 q 134 25 184 -16 q 70 132 84 66 q 71 273 56 197 l 169 732 l 281 732 l 185 281 q 179 175 172 220 q 216 103 186 129 q 301 78 245 78 q 456 141 390 78 q 546 317 522 204 l 634 732 l 747 732 l 620 137 q 621 108 615 116 q 645 100 627 100 l 692 100 l 671 0 l 606 0 q 524 32 553 0 q 506 118 495 64 l 512 149 l 515 117 q 417 22 477 60 q 273 -16 357 -16 m 478 850 q 330 900 380 850 q 284 1032 280 950 l 382 1059 q 403 970 376 1004 q 490 937 430 937 q 582 968 549 937 q 633 1052 616 1000 l 732 1025 q 637 898 701 946 q 478 850 574 850 z "},"û":{"ha":794,"x_min":56,"x_max":747,"o":"m 273 -16 q 134 25 184 -16 q 70 132 84 66 q 71 273 56 197 l 169 732 l 281 732 l 185 281 q 179 175 172 220 q 216 103 186 129 q 301 78 245 78 q 456 141 390 78 q 546 317 522 204 l 634 732 l 747 732 l 620 137 q 621 108 615 116 q 645 100 627 100 l 692 100 l 671 0 l 606 0 q 524 32 553 0 q 506 118 495 64 l 512 149 l 515 117 q 417 22 477 60 q 273 -16 357 -16 m 378 836 l 297 897 l 458 1077 l 597 1077 l 690 882 l 595 836 l 519 1008 l 378 836 z "},"ü":{"ha":794,"x_min":56,"x_max":749,"o":"m 273 -16 q 134 25 184 -16 q 70 132 84 66 q 71 273 56 197 l 169 732 l 281 732 l 185 281 q 179 175 172 220 q 216 103 186 129 q 301 78 245 78 q 456 141 390 78 q 546 317 522 204 l 634 732 l 747 732 l 620 137 q 621 108 615 116 q 645 100 627 100 l 692 100 l 671 0 l 606 0 q 524 32 553 0 q 506 118 495 64 l 512 149 l 515 117 q 417 22 477 60 q 273 -16 357 -16 m 352 855 q 289 880 313 855 q 265 940 265 905 q 297 1014 265 982 q 372 1045 329 1045 q 435 1020 411 1045 q 459 960 459 996 q 428 887 459 919 q 352 855 396 855 m 642 855 q 579 880 603 855 q 555 940 555 905 q 587 1014 555 982 q 662 1045 618 1045 q 725 1020 701 1045 q 749 960 749 996 q 717 887 749 919 q 642 855 686 855 z "},"ụ":{"ha":794,"x_min":56,"x_max":747,"o":"m 273 -16 q 134 25 184 -16 q 70 132 84 66 q 71 273 56 197 l 169 732 l 281 732 l 185 281 q 179 175 172 220 q 216 103 186 129 q 301 78 245 78 q 456 141 390 78 q 546 317 522 204 l 634 732 l 747 732 l 620 137 q 621 108 615 116 q 645 100 627 100 l 692 100 l 671 0 l 606 0 q 524 32 553 0 q 506 118 495 64 l 512 149 l 515 117 q 417 22 477 60 q 273 -16 357 -16 m 266 -308 q 203 -283 227 -308 q 179 -223 179 -258 q 211 -150 179 -181 q 286 -118 243 -118 q 349 -143 325 -118 q 373 -203 373 -168 q 341 -276 373 -244 q 266 -308 310 -308 z "},"ù":{"ha":794,"x_min":56,"x_max":747,"o":"m 273 -16 q 134 25 184 -16 q 70 132 84 66 q 71 273 56 197 l 169 732 l 281 732 l 185 281 q 179 175 172 220 q 216 103 186 129 q 301 78 245 78 q 456 141 390 78 q 546 317 522 204 l 634 732 l 747 732 l 620 137 q 621 108 615 116 q 645 100 627 100 l 692 100 l 671 0 l 606 0 q 524 32 553 0 q 506 118 495 64 l 512 149 l 515 117 q 417 22 477 60 q 273 -16 357 -16 m 451 822 l 275 1027 l 376 1092 l 526 868 l 451 822 z "},"ű":{"ha":794,"x_min":56,"x_max":747,"o":"m 273 -16 q 134 25 184 -16 q 70 132 84 66 q 71 273 56 197 l 169 732 l 281 732 l 185 281 q 179 175 172 220 q 216 103 186 129 q 301 78 245 78 q 456 141 390 78 q 546 317 522 204 l 634 732 l 747 732 l 620 137 q 621 108 615 116 q 645 100 627 100 l 692 100 l 671 0 l 606 0 q 524 32 553 0 q 506 118 495 64 l 512 149 l 515 117 q 417 22 477 60 q 273 -16 357 -16 m 334 822 l 259 870 l 406 1090 l 504 1027 l 334 822 m 545 822 l 470 870 l 616 1090 l 715 1027 l 545 822 z "},"ū":{"ha":794,"x_min":56,"x_max":747,"o":"m 273 -16 q 134 25 184 -16 q 70 132 84 66 q 71 273 56 197 l 169 732 l 281 732 l 185 281 q 179 175 172 220 q 216 103 186 129 q 301 78 245 78 q 456 141 390 78 q 546 317 522 204 l 634 732 l 747 732 l 620 137 q 621 108 615 116 q 645 100 627 100 l 692 100 l 671 0 l 606 0 q 524 32 553 0 q 506 118 495 64 l 512 149 l 515 117 q 417 22 477 60 q 273 -16 357 -16 m 286 913 l 304 999 l 732 999 l 715 913 l 286 913 z "},"ų":{"ha":794,"x_min":56,"x_max":747,"o":"m 273 -16 q 134 25 184 -16 q 70 132 84 66 q 71 273 56 197 l 169 732 l 281 732 l 185 281 q 179 175 172 220 q 216 103 186 129 q 301 78 245 78 q 456 141 390 78 q 546 317 522 204 l 634 732 l 747 732 l 620 137 q 621 108 615 116 q 645 100 627 100 l 692 100 l 671 0 l 606 0 q 524 32 553 0 q 506 118 495 64 l 512 149 l 515 117 q 417 22 477 60 q 273 -16 357 -16 m 574 -281 q 493 -265 532 -281 q 431 -218 455 -250 q 407 -142 407 -187 q 457 -39 407 -79 q 578 20 507 1 l 614 12 l 614 0 l 671 0 q 572 -50 616 -14 q 528 -132 528 -85 q 549 -179 528 -163 q 601 -195 570 -195 q 644 -188 621 -195 l 661 -264 q 574 -281 620 -281 z "},"ů":{"ha":794,"x_min":56,"x_max":747,"o":"m 273 -16 q 134 25 184 -16 q 70 132 84 66 q 71 273 56 197 l 169 732 l 281 732 l 185 281 q 179 175 172 220 q 216 103 186 129 q 301 78 245 78 q 456 141 390 78 q 546 317 522 204 l 634 732 l 747 732 l 620 137 q 621 108 615 116 q 645 100 627 100 l 692 100 l 671 0 l 606 0 q 524 32 553 0 q 506 118 495 64 l 512 149 l 515 117 q 417 22 477 60 q 273 -16 357 -16 m 490 799 q 390 834 427 799 q 354 926 354 869 q 374 1011 354 971 q 430 1076 394 1051 q 515 1101 467 1101 q 614 1066 578 1101 q 650 975 650 1031 q 631 889 650 930 q 575 824 611 849 q 490 799 538 799 m 494 874 q 539 890 523 874 q 563 928 555 906 q 570 966 570 949 q 511 1025 570 1025 q 465 1008 481 1025 q 443 970 449 992 q 436 932 436 949 q 494 874 436 874 z "},"ũ":{"ha":794,"x_min":56,"x_max":749,"o":"m 273 -16 q 134 25 184 -16 q 70 132 84 66 q 71 273 56 197 l 169 732 l 281 732 l 185 281 q 179 175 172 220 q 216 103 186 129 q 301 78 245 78 q 456 141 390 78 q 546 317 522 204 l 634 732 l 747 732 l 620 137 q 621 108 615 116 q 645 100 627 100 l 692 100 l 671 0 l 606 0 q 524 32 553 0 q 506 118 495 64 l 512 149 l 515 117 q 417 22 477 60 q 273 -16 357 -16 m 579 865 q 517 879 541 865 q 478 911 494 892 q 448 943 463 929 q 411 956 433 956 q 362 933 380 956 q 327 869 344 909 l 246 899 q 311 1012 266 974 q 422 1050 355 1050 q 486 1037 463 1050 q 524 1004 509 1023 q 553 972 539 986 q 587 958 566 958 q 634 979 616 958 q 669 1034 652 999 l 749 1002 q 685 900 728 935 q 579 865 641 865 z "},"v":{"ha":723,"x_min":111,"x_max":769,"o":"m 206 0 l 111 732 l 233 732 l 299 66 l 273 66 l 635 732 l 769 732 l 345 0 l 206 0 z "},"w":{"ha":1073,"x_min":116,"x_max":1114,"o":"m 157 0 l 116 732 l 229 732 l 250 31 l 214 31 l 526 732 l 672 732 l 691 73 l 675 73 l 987 732 l 1114 732 l 750 0 l 584 0 l 574 655 l 594 655 l 299 0 l 157 0 z "},"ẃ":{"ha":1073,"x_min":116,"x_max":1114,"o":"m 157 0 l 116 732 l 229 732 l 250 31 l 214 31 l 526 732 l 672 732 l 691 73 l 675 73 l 987 732 l 1114 732 l 750 0 l 584 0 l 574 655 l 594 655 l 299 0 l 157 0 m 635 822 l 560 870 l 707 1090 l 805 1027 l 635 822 z "},"ŵ":{"ha":1073,"x_min":116,"x_max":1114,"o":"m 157 0 l 116 732 l 229 732 l 250 31 l 214 31 l 526 732 l 672 732 l 691 73 l 675 73 l 987 732 l 1114 732 l 750 0 l 584 0 l 574 655 l 594 655 l 299 0 l 157 0 m 498 836 l 417 897 l 578 1077 l 718 1077 l 810 882 l 715 836 l 639 1008 l 498 836 z "},"ẅ":{"ha":1073,"x_min":116,"x_max":1114,"o":"m 157 0 l 116 732 l 229 732 l 250 31 l 214 31 l 526 732 l 672 732 l 691 73 l 675 73 l 987 732 l 1114 732 l 750 0 l 584 0 l 574 655 l 594 655 l 299 0 l 157 0 m 472 855 q 409 880 433 855 q 385 940 385 905 q 417 1014 385 982 q 492 1045 449 1045 q 555 1020 531 1045 q 579 960 579 996 q 548 887 579 919 q 472 855 516 855 m 762 855 q 699 880 723 855 q 675 940 675 905 q 707 1014 675 982 q 782 1045 739 1045 q 845 1020 821 1045 q 869 960 869 996 q 837 887 869 919 q 762 855 806 855 z "},"ẁ":{"ha":1073,"x_min":116,"x_max":1114,"o":"m 157 0 l 116 732 l 229 732 l 250 31 l 214 31 l 526 732 l 672 732 l 691 73 l 675 73 l 987 732 l 1114 732 l 750 0 l 584 0 l 574 655 l 594 655 l 299 0 l 157 0 m 571 822 l 395 1027 l 496 1092 l 646 868 l 571 822 z "},"x":{"ha":744,"x_min":-49,"x_max":772,"o":"m -49 0 l 302 378 l 129 732 l 243 732 l 378 450 l 626 732 l 772 732 l 441 382 l 636 0 l 510 0 l 368 300 l 94 0 l -49 0 z "},"y":{"ha":739,"x_min":-11,"x_max":789,"o":"m -11 -264 l 10 -165 l 104 -165 q 132 -157 120 -165 q 153 -132 144 -149 l 233 14 l 223 -39 l 106 732 l 228 732 l 301 48 l 274 54 l 657 732 l 789 732 l 235 -182 q 177 -246 208 -228 q 97 -264 146 -264 l -11 -264 z "},"ý":{"ha":739,"x_min":-11,"x_max":789,"o":"m -11 -264 l 10 -165 l 104 -165 q 132 -157 120 -165 q 153 -132 144 -149 l 233 14 l 223 -39 l 106 732 l 228 732 l 301 48 l 274 54 l 657 732 l 789 732 l 235 -182 q 177 -246 208 -228 q 97 -264 146 -264 l -11 -264 m 481 822 l 407 870 l 553 1090 l 652 1027 l 481 822 z "},"ŷ":{"ha":739,"x_min":-11,"x_max":789,"o":"m -11 -264 l 10 -165 l 104 -165 q 132 -157 120 -165 q 153 -132 144 -149 l 233 14 l 223 -39 l 106 732 l 228 732 l 301 48 l 274 54 l 657 732 l 789 732 l 235 -182 q 177 -246 208 -228 q 97 -264 146 -264 l -11 -264 m 345 836 l 264 897 l 425 1077 l 564 1077 l 657 882 l 562 836 l 486 1008 l 345 836 z "},"ÿ":{"ha":739,"x_min":-11,"x_max":789,"o":"m -11 -264 l 10 -165 l 104 -165 q 132 -157 120 -165 q 153 -132 144 -149 l 233 14 l 223 -39 l 106 732 l 228 732 l 301 48 l 274 54 l 657 732 l 789 732 l 235 -182 q 177 -246 208 -228 q 97 -264 146 -264 l -11 -264 m 319 855 q 256 880 280 855 q 232 940 232 905 q 264 1014 232 982 q 339 1045 296 1045 q 402 1020 378 1045 q 426 960 426 996 q 394 887 426 919 q 319 855 363 855 m 608 855 q 546 880 570 855 q 522 940 522 905 q 553 1014 522 982 q 629 1045 585 1045 q 691 1020 667 1045 q 715 960 715 996 q 684 887 715 919 q 608 855 652 855 z "},"ỳ":{"ha":739,"x_min":-11,"x_max":789,"o":"m -11 -264 l 10 -165 l 104 -165 q 132 -157 120 -165 q 153 -132 144 -149 l 233 14 l 223 -39 l 106 732 l 228 732 l 301 48 l 274 54 l 657 732 l 789 732 l 235 -182 q 177 -246 208 -228 q 97 -264 146 -264 l -11 -264 m 418 822 l 241 1027 l 343 1092 l 493 868 l 418 822 z "},"ȳ":{"ha":739,"x_min":-11,"x_max":789,"o":"m -11 -264 l 10 -165 l 104 -165 q 132 -157 120 -165 q 153 -132 144 -149 l 233 14 l 223 -39 l 106 732 l 228 732 l 301 48 l 274 54 l 657 732 l 789 732 l 235 -182 q 177 -246 208 -228 q 97 -264 146 -264 l -11 -264 m 253 913 l 271 999 l 699 999 l 682 913 l 253 913 z "},"ỹ":{"ha":739,"x_min":-11,"x_max":789,"o":"m -11 -264 l 10 -165 l 104 -165 q 132 -157 120 -165 q 153 -132 144 -149 l 233 14 l 223 -39 l 106 732 l 228 732 l 301 48 l 274 54 l 657 732 l 789 732 l 235 -182 q 177 -246 208 -228 q 97 -264 146 -264 l -11 -264 m 546 865 q 484 879 507 865 q 445 911 460 892 q 415 943 430 929 q 378 956 400 956 q 329 933 347 956 q 294 869 311 909 l 213 899 q 277 1012 233 974 q 389 1050 322 1050 q 453 1037 429 1050 q 491 1004 476 1023 q 519 972 506 986 q 554 958 533 958 q 601 979 583 958 q 635 1034 618 999 l 716 1002 q 651 900 695 935 q 546 865 608 865 z "},"z":{"ha":678,"x_min":-28,"x_max":692,"o":"m -28 0 l -7 98 l 535 633 l 121 633 l 143 732 l 692 732 l 671 635 l 121 100 l 572 100 l 551 0 l -28 0 z "},"ź":{"ha":678,"x_min":-28,"x_max":692,"o":"m -28 0 l -7 98 l 535 633 l 121 633 l 143 732 l 692 732 l 671 635 l 121 100 l 572 100 l 551 0 l -28 0 m 472 822 l 397 870 l 544 1090 l 642 1027 l 472 822 z "},"ž":{"ha":678,"x_min":-28,"x_max":692,"o":"m -28 0 l -7 98 l 535 633 l 121 633 l 143 732 l 692 732 l 671 635 l 121 100 l 572 100 l 551 0 l -28 0 m 597 1077 l 677 1015 l 516 836 l 377 836 l 284 1031 l 380 1077 l 456 905 l 597 1077 z "},"ż":{"ha":678,"x_min":-28,"x_max":692,"o":"m -28 0 l -7 98 l 535 633 l 121 633 l 143 732 l 692 732 l 671 635 l 121 100 l 572 100 l 551 0 l -28 0 m 454 855 q 391 880 415 855 q 367 940 367 905 q 399 1014 367 982 q 474 1045 431 1045 q 537 1020 513 1045 q 561 960 561 996 q 529 887 561 919 q 454 855 498 855 z "},"ﬁ":{"ha":771,"x_min":-134,"x_max":830,"o":"m -134 -264 l -113 -168 l -3 -168 q 21 -160 13 -168 q 33 -134 29 -152 l 248 880 q 300 985 264 953 q 404 1017 336 1017 l 527 1017 l 507 920 l 398 920 q 374 912 383 920 q 362 886 366 904 l 147 -127 q 96 -232 132 -200 q -9 -264 60 -264 l -134 -264 m 91 635 l 111 732 l 484 732 l 465 635 l 91 635 m 743 732 l 587 0 l 475 0 l 631 732 l 743 732 m 723 855 q 660 880 684 855 q 636 940 636 905 q 668 1014 636 982 q 743 1045 700 1045 q 806 1020 782 1045 q 830 960 830 996 q 799 887 830 919 q 723 855 767 855 z "},"ﬂ":{"ha":781,"x_min":-134,"x_max":790,"o":"m -134 -264 l -113 -168 l -3 -168 q 21 -160 13 -168 q 33 -134 29 -152 l 248 880 q 300 985 264 953 q 404 1017 336 1017 l 527 1017 l 507 920 l 398 920 q 374 912 383 920 q 362 886 366 904 l 147 -127 q 96 -232 132 -200 q -9 -264 60 -264 l -134 -264 m 91 635 l 111 732 l 484 732 l 465 635 l 91 635 m 588 0 q 504 33 533 0 q 486 115 475 65 l 677 1017 l 790 1017 l 603 134 q 603 105 598 113 q 627 97 608 97 l 680 97 l 660 0 l 588 0 z "},"ª":{"ha":624,"x_min":46,"x_max":590,"o":"m 265 447 q 185 463 222 447 q 125 510 148 479 q 103 588 103 542 q 128 677 103 642 q 196 733 153 713 q 291 762 238 753 q 398 770 343 770 l 477 770 l 467 749 l 473 777 q 466 871 486 838 q 386 905 446 905 q 316 882 343 905 q 278 819 289 859 l 174 848 q 218 918 189 888 q 291 965 248 948 q 391 982 335 982 q 544 926 497 982 q 566 755 590 871 l 527 566 q 526 545 524 553 q 545 537 528 537 l 566 537 l 550 458 l 495 458 q 440 476 460 458 q 426 526 420 494 l 433 563 l 447 559 q 403 502 429 528 q 342 462 376 477 q 265 447 308 447 m 46 290 l 64 376 l 563 376 l 545 290 l 46 290 m 298 523 q 394 561 349 523 q 454 683 439 599 l 457 701 l 384 701 q 302 692 342 701 q 236 661 262 684 q 211 596 211 638 q 236 541 211 559 q 298 523 262 523 z "},"º":{"ha":610,"x_min":50,"x_max":625,"o":"m 345 446 q 235 473 283 446 q 158 550 186 499 q 130 671 130 600 q 164 821 130 749 q 261 937 199 892 q 408 982 324 982 q 519 956 470 982 q 596 879 568 929 q 625 757 625 828 q 590 608 625 679 q 492 491 555 536 q 345 446 429 446 m 50 290 l 68 375 l 554 375 l 536 290 l 50 290 m 349 527 q 426 551 393 527 q 478 611 458 574 q 509 689 499 648 q 519 765 519 730 q 489 864 519 827 q 405 901 459 901 q 329 878 361 901 q 276 818 296 854 q 245 740 255 781 q 235 663 235 699 q 265 564 235 600 q 349 527 295 527 z "},"Δ":{"ha":925,"x_min":-43,"x_max":829,"o":"m -43 0 l -26 83 l 552 977 l 658 977 l 829 83 l 812 0 l -43 0 m 127 107 l 706 107 l 576 839 l 127 107 z "},"Π":{"ha":935,"x_min":55,"x_max":1035,"o":"m 572 -81 l 782 908 l 904 908 l 694 -81 l 572 -81 m 55 -81 l 265 908 l 387 908 l 177 -81 l 55 -81 m 138 876 l 160 977 l 1035 977 l 1013 876 l 138 876 z "},"Σ":{"ha":802,"x_min":-37,"x_max":844,"o":"m -37 0 l -20 80 l 377 488 l 152 895 l 170 977 l 844 977 l 822 872 l 295 872 l 507 488 l 133 104 l 707 104 l 684 0 l -37 0 z "},"Ω":{"ha":1056,"x_min":5,"x_max":1019,"o":"m 5 0 l 27 107 l 227 107 q 127 229 163 159 q 91 412 91 299 q 112 579 91 496 q 175 737 133 663 q 278 869 216 812 q 423 960 340 926 q 608 993 506 993 q 779 963 703 993 q 909 879 855 934 q 991 748 962 825 q 1019 578 1019 672 q 1006 452 1019 521 q 961 316 993 383 q 874 193 930 248 q 735 107 819 138 l 937 107 l 914 0 l 549 0 l 575 127 q 717 199 658 156 q 813 298 776 243 q 869 420 851 354 q 887 559 887 486 q 815 801 887 712 q 607 890 743 890 q 434 844 507 890 q 314 727 361 799 q 245 572 268 654 q 223 417 223 490 q 266 237 223 314 q 395 134 309 159 l 368 0 l 5 0 z "},"α":{"ha":821,"x_min":47,"x_max":766,"o":"m 297 -16 q 161 23 217 -16 q 76 129 105 62 q 47 282 47 197 q 61 405 47 340 q 103 530 75 469 q 173 641 131 591 q 270 719 214 690 q 395 749 326 749 q 546 704 479 749 q 632 583 613 660 l 624 566 l 660 732 l 766 732 l 640 134 q 640 106 635 115 q 664 97 644 97 l 709 97 l 690 0 l 625 0 q 543 33 572 0 q 524 115 513 65 l 530 148 l 558 142 q 439 22 507 60 q 297 -16 371 -16 m 332 81 q 450 118 401 81 q 531 212 500 155 q 576 332 562 269 q 591 445 591 394 q 541 600 591 548 q 419 652 492 652 q 306 615 353 652 q 229 521 259 578 q 185 399 199 463 q 171 280 171 335 q 214 130 171 179 q 332 81 258 81 z "},"β":{"ha":806,"x_min":-61,"x_max":783,"o":"m -61 -264 l 137 681 q 209 868 160 789 q 330 990 258 947 q 494 1034 402 1034 q 604 1016 552 1034 q 696 965 656 998 q 760 886 736 932 q 783 783 783 840 q 752 666 783 717 q 670 584 722 615 q 551 543 618 552 q 677 459 634 519 q 720 322 720 399 q 698 210 720 269 q 633 100 677 151 q 522 16 589 48 q 364 -16 455 -16 q 253 1 302 -16 q 172 50 204 18 q 125 130 140 83 l 136 138 l 52 -264 l -61 -264 m 357 81 q 483 114 429 81 q 567 204 536 148 q 597 326 597 260 q 581 406 597 366 q 523 473 566 446 q 400 500 481 500 l 307 500 l 329 606 l 471 606 q 608 653 553 606 q 663 777 663 700 q 610 895 663 853 q 480 937 557 937 q 379 909 425 937 q 299 818 334 882 q 241 638 264 753 l 184 367 q 203 159 157 237 q 357 81 248 81 z "},"μ":{"ha":809,"x_min":-59,"x_max":739,"o":"m -59 -264 l 151 732 l 262 732 l 168 282 q 163 249 166 272 q 161 196 159 225 q 175 141 162 168 q 216 96 187 114 q 296 79 244 79 q 390 99 341 79 q 480 173 439 119 q 542 328 521 227 l 627 732 l 739 732 l 612 133 q 612 102 608 110 q 637 95 616 95 l 678 95 l 659 0 l 578 0 q 525 17 551 0 q 491 72 499 34 q 509 170 484 109 l 538 159 q 416 27 478 70 q 279 -16 355 -16 q 186 4 224 -16 q 130 63 149 24 q 113 157 111 102 l 144 170 l 53 -264 l -59 -264 z "},"π":{"ha":850,"x_min":79,"x_max":883,"o":"m 79 0 l 212 637 l 101 637 l 121 732 l 883 732 l 863 637 l 734 637 l 627 132 q 627 102 623 110 q 652 95 631 95 l 749 95 l 729 0 l 594 0 q 526 29 552 0 q 509 102 500 58 l 622 637 l 324 637 l 190 0 l 79 0 z "},"Ⅰ":{"ha":460,"x_min":-24,"x_max":555,"o":"m -24 0 l -4 95 l 122 95 l 288 882 l 161 882 l 181 977 l 555 977 l 534 882 l 408 882 l 242 95 l 369 95 l 349 0 l -24 0 z "},"Ⅱ":{"ha":833,"x_min":-33,"x_max":919,"o":"m -33 0 l -14 95 l 113 95 l 279 882 l 152 882 l 172 977 l 919 977 l 899 882 l 772 882 l 607 95 l 734 95 l 713 0 l -33 0 m 233 95 l 487 95 l 652 882 l 399 882 l 233 95 z "},"Ⅲ":{"ha":1207,"x_min":-33,"x_max":1292,"o":"m -33 0 l -14 95 l 113 95 l 279 882 l 152 882 l 172 977 l 1292 977 l 1272 882 l 1145 882 l 980 95 l 1107 95 l 1087 0 l -33 0 m 233 95 l 487 95 l 652 882 l 398 882 l 233 95 m 606 95 l 861 95 l 1025 882 l 772 882 l 606 95 z "},"Ⅳ":{"ha":1331,"x_min":-24,"x_max":1417,"o":"m -24 0 l -4 95 l 122 95 l 288 882 l 161 882 l 181 977 l 555 977 l 534 882 l 408 882 l 242 95 l 369 95 l 349 0 l -24 0 m 686 0 l 595 977 l 715 977 l 782 57 l 746 57 l 1196 977 l 1319 977 l 818 0 l 686 0 m 478 882 l 498 977 l 899 977 l 880 882 l 478 882 m 996 882 l 1017 977 l 1417 977 l 1396 882 l 996 882 z "},"Ⅴ":{"ha":1005,"x_min":152,"x_max":1090,"o":"m 360 0 l 269 977 l 389 977 l 456 57 l 420 57 l 870 977 l 993 977 l 492 0 l 360 0 m 152 882 l 172 977 l 573 977 l 553 882 l 152 882 m 670 882 l 690 977 l 1090 977 l 1070 882 l 670 882 z "},"Ⅵ":{"ha":1319,"x_min":152,"x_max":1414,"o":"m 360 0 l 269 977 l 389 977 l 456 57 l 420 57 l 870 977 l 993 977 l 492 0 l 360 0 m 152 882 l 172 977 l 573 977 l 553 882 l 152 882 m 670 882 l 690 977 l 1090 977 l 1070 882 l 670 882 m 835 0 l 855 95 l 981 95 l 1147 882 l 1021 882 l 1040 977 l 1414 977 l 1394 882 l 1267 882 l 1101 95 l 1228 95 l 1208 0 l 835 0 z "},"Ⅶ":{"ha":1636,"x_min":152,"x_max":1722,"o":"m 360 0 l 269 977 l 389 977 l 456 57 l 420 57 l 870 977 l 993 977 l 492 0 l 360 0 m 152 882 l 172 977 l 573 977 l 553 882 l 152 882 m 670 882 l 690 977 l 1090 977 l 1070 882 l 670 882 m 770 0 l 789 95 l 916 95 l 1082 882 l 955 882 l 975 977 l 1722 977 l 1702 882 l 1575 882 l 1410 95 l 1537 95 l 1516 0 l 770 0 m 1036 95 l 1290 95 l 1455 882 l 1202 882 l 1036 95 z "},"Ⅷ":{"ha":1977,"x_min":152,"x_max":2071,"o":"m 360 0 l 269 977 l 389 977 l 456 57 l 420 57 l 870 977 l 993 977 l 492 0 l 360 0 m 152 882 l 172 977 l 573 977 l 553 882 l 152 882 m 670 882 l 690 977 l 1090 977 l 1070 882 l 670 882 m 746 0 l 766 95 l 892 95 l 1058 882 l 931 882 l 951 977 l 2071 977 l 2051 882 l 1925 882 l 1759 95 l 1886 95 l 1866 0 l 746 0 m 1013 95 l 1266 95 l 1432 882 l 1177 882 l 1013 95 m 1385 95 l 1640 95 l 1805 882 l 1551 882 l 1385 95 z "},"Ⅸ":{"ha":1312,"x_min":-24,"x_max":1381,"o":"m -24 0 l -4 95 l 122 95 l 288 882 l 161 882 l 181 977 l 555 977 l 534 882 l 408 882 l 242 95 l 369 95 l 349 0 l -24 0 m 348 0 l 761 506 l 566 977 l 712 977 l 854 584 l 1158 977 l 1297 977 l 907 503 l 1114 0 l 962 0 l 812 410 l 491 0 l 348 0 m 282 0 l 302 95 l 706 95 l 686 0 l 282 0 m 776 0 l 795 95 l 1196 95 l 1176 0 l 776 0 m 467 882 l 487 977 l 891 977 l 871 882 l 467 882 m 961 882 l 981 977 l 1381 977 l 1361 882 l 961 882 z "},"Ⅹ":{"ha":1016,"x_min":-14,"x_max":1084,"o":"m 52 0 l 465 506 l 270 977 l 416 977 l 557 584 l 861 977 l 1001 977 l 610 503 l 818 0 l 666 0 l 516 410 l 195 0 l 52 0 m -14 0 l 5 95 l 410 95 l 390 0 l -14 0 m 479 0 l 499 95 l 899 95 l 880 0 l 479 0 m 171 882 l 191 977 l 595 977 l 575 882 l 171 882 m 665 882 l 684 977 l 1084 977 l 1065 882 l 665 882 z "},"Ⅺ":{"ha":1322,"x_min":-14,"x_max":1417,"o":"m 838 0 l 858 95 l 984 95 l 1150 882 l 1023 882 l 1043 977 l 1417 977 l 1396 882 l 1270 882 l 1104 95 l 1231 95 l 1211 0 l 838 0 m 52 0 l 465 506 l 270 977 l 416 977 l 557 584 l 861 977 l 1001 977 l 610 503 l 818 0 l 666 0 l 516 410 l 195 0 l 52 0 m -14 0 l 5 95 l 410 95 l 390 0 l -14 0 m 479 0 l 499 95 l 899 95 l 880 0 l 479 0 m 171 882 l 191 977 l 595 977 l 575 882 l 171 882 m 665 882 l 684 977 l 1084 977 l 1065 882 l 665 882 z "},"Ⅻ":{"ha":1569,"x_min":-14,"x_max":1664,"o":"m 52 0 l 465 506 l 270 977 l 416 977 l 557 584 l 861 977 l 1001 977 l 610 503 l 818 0 l 666 0 l 516 410 l 195 0 l 52 0 m -14 0 l 5 95 l 410 95 l 390 0 l -14 0 m 479 0 l 499 95 l 899 95 l 880 0 l 479 0 m 171 882 l 191 977 l 595 977 l 575 882 l 171 882 m 665 882 l 684 977 l 1084 977 l 1065 882 l 665 882 m 712 0 l 732 95 l 859 95 l 1024 882 l 897 882 l 918 977 l 1664 977 l 1645 882 l 1518 882 l 1352 95 l 1479 95 l 1459 0 l 712 0 m 979 95 l 1232 95 l 1398 882 l 1144 882 l 979 95 z "},"Ⅼ":{"ha":819,"x_min":-25,"x_max":766,"o":"m -25 0 l -5 95 l 120 95 l 287 882 l 162 882 l 182 977 l 564 977 l 543 882 l 409 882 l 243 100 l 609 100 l 644 264 l 766 264 l 710 0 l -25 0 z "},"Ⅽ":{"ha":939,"x_min":81,"x_max":1017,"o":"m 478 -16 q 315 13 389 -16 q 190 97 242 41 q 109 231 138 152 q 81 411 81 311 q 114 623 81 519 q 212 810 148 726 q 370 943 277 893 q 585 993 464 993 q 747 955 675 993 q 863 849 818 918 q 917 688 907 781 l 826 656 q 760 823 817 756 q 586 890 702 890 q 420 844 490 890 q 303 727 349 799 q 235 571 257 654 q 212 411 212 488 q 246 241 212 315 q 341 127 280 168 q 486 87 403 87 q 654 145 581 87 q 773 328 728 203 l 865 290 q 702 59 798 134 q 478 -16 606 -16 m 703 0 l 773 328 l 895 328 l 825 0 l 703 0 m 826 656 l 895 977 l 1017 977 l 948 656 l 826 656 z "},"Ⅾ":{"ha":1023,"x_min":-25,"x_max":994,"o":"m -25 0 l -4 98 l 121 98 l 286 879 l 161 879 l 182 977 l 614 977 q 783 947 711 977 q 901 864 854 918 q 971 735 948 810 q 994 570 994 661 q 973 401 994 484 q 911 246 953 319 q 808 118 870 174 q 662 32 745 63 q 472 0 578 0 l -25 0 m 243 103 l 471 103 q 650 145 576 103 q 771 257 724 188 q 841 408 819 326 q 863 568 863 490 q 835 724 863 654 q 744 833 807 793 q 576 873 681 873 l 408 873 l 243 103 z "},"Ⅿ":{"ha":1369,"x_min":-25,"x_max":1445,"o":"m -25 0 l -5 95 l 143 95 l 351 882 l 162 882 l 182 977 l 569 977 l 641 142 l 1065 977 l 1445 977 l 1425 882 l 1257 882 l 1133 95 l 1258 95 l 1238 0 l 857 0 l 877 95 l 1015 95 l 1139 873 l 686 0 l 552 0 l 465 865 l 263 95 l 376 95 l 356 0 l -25 0 z "},"⓪":{"ha":1357,"x_min":80,"x_max":1331,"o":"m 663 -112 q 436 -77 542 -112 q 250 24 330 -43 q 125 188 170 91 q 80 410 80 286 q 126 664 80 542 q 259 883 172 786 q 470 1037 347 981 q 749 1094 594 1094 q 977 1059 871 1094 q 1162 957 1082 1024 q 1286 793 1242 890 q 1331 572 1331 696 q 1284 318 1331 441 q 1151 99 1238 196 q 941 -55 1064 2 q 663 -112 818 -112 m 669 -19 q 901 28 797 -19 q 1079 157 1004 75 q 1194 342 1154 239 q 1234 560 1234 446 q 1168 799 1234 701 q 991 949 1102 897 q 743 1001 880 1001 q 511 954 615 1001 q 332 825 407 907 q 217 640 257 744 q 177 422 177 536 q 243 184 177 283 q 420 33 309 85 q 669 -19 532 -19 m 662 188 q 524 246 575 188 q 473 411 473 304 q 487 528 473 463 q 532 654 500 593 q 615 754 563 715 q 743 794 667 794 q 882 736 830 794 q 934 572 934 677 q 920 455 934 520 q 873 328 905 389 q 790 228 842 267 q 662 188 738 188 m 665 266 q 746 301 713 266 q 798 390 779 337 q 827 495 818 443 q 836 581 836 548 q 810 680 836 644 q 738 716 784 716 q 659 681 690 716 q 608 592 627 645 q 580 487 589 540 q 572 401 572 435 q 596 302 572 339 q 665 266 620 266 z "},"①":{"ha":1357,"x_min":80,"x_max":1331,"o":"m 663 -112 q 436 -77 542 -112 q 250 24 330 -43 q 125 188 170 91 q 80 410 80 286 q 126 664 80 542 q 259 883 172 786 q 470 1037 347 981 q 749 1094 594 1094 q 977 1059 871 1094 q 1162 957 1082 1024 q 1286 793 1242 890 q 1331 572 1331 696 q 1284 318 1331 441 q 1151 99 1238 196 q 941 -55 1064 2 q 663 -112 818 -112 m 669 -19 q 901 28 797 -19 q 1079 157 1004 75 q 1194 342 1154 239 q 1234 560 1234 446 q 1168 799 1234 701 q 991 949 1102 897 q 743 1001 880 1001 q 511 954 615 1001 q 332 825 407 907 q 217 640 257 744 q 177 422 177 536 q 243 184 177 283 q 420 33 309 85 q 669 -19 532 -19 m 613 198 l 706 639 q 632 594 665 610 q 565 570 600 578 l 585 665 q 660 698 618 675 q 766 784 701 720 l 832 784 l 709 198 l 613 198 z "},"②":{"ha":1357,"x_min":80,"x_max":1331,"o":"m 663 -112 q 436 -77 542 -112 q 250 24 330 -43 q 125 188 170 91 q 80 410 80 286 q 126 664 80 542 q 259 883 172 786 q 470 1037 347 981 q 749 1094 594 1094 q 977 1059 871 1094 q 1162 957 1082 1024 q 1286 793 1242 890 q 1331 572 1331 696 q 1284 318 1331 441 q 1151 99 1238 196 q 941 -55 1064 2 q 663 -112 818 -112 m 669 -19 q 901 28 797 -19 q 1079 157 1004 75 q 1194 342 1154 239 q 1234 560 1234 446 q 1168 799 1234 701 q 991 949 1102 897 q 743 1001 880 1001 q 511 954 615 1001 q 332 825 407 907 q 217 640 257 744 q 177 422 177 536 q 243 184 177 283 q 420 33 309 85 q 669 -19 532 -19 m 440 198 l 457 276 l 696 433 q 801 522 761 475 q 840 629 840 569 q 811 697 840 679 q 747 715 783 715 q 688 702 713 715 q 647 661 663 688 q 619 597 630 635 l 525 627 q 610 747 547 700 q 753 794 673 794 q 841 777 798 794 q 913 723 884 759 q 941 630 941 686 q 913 528 941 574 q 840 443 885 481 q 741 374 794 405 l 553 263 l 539 279 l 878 279 l 861 198 l 440 198 z "},"③":{"ha":1357,"x_min":80,"x_max":1331,"o":"m 663 -112 q 436 -77 542 -112 q 250 24 330 -43 q 125 188 170 91 q 80 410 80 286 q 126 664 80 542 q 259 883 172 786 q 470 1037 347 981 q 749 1094 594 1094 q 977 1059 871 1094 q 1162 957 1082 1024 q 1286 793 1242 890 q 1331 572 1331 696 q 1284 318 1331 441 q 1151 99 1238 196 q 941 -55 1064 2 q 663 -112 818 -112 m 669 -19 q 901 28 797 -19 q 1079 157 1004 75 q 1194 342 1154 239 q 1234 560 1234 446 q 1168 799 1234 701 q 991 949 1102 897 q 743 1001 880 1001 q 511 954 615 1001 q 332 825 407 907 q 217 640 257 744 q 177 422 177 536 q 243 184 177 283 q 420 33 309 85 q 669 -19 532 -19 m 681 188 q 572 210 619 188 q 498 274 525 233 q 471 373 472 315 l 572 403 q 581 331 570 361 q 617 283 592 300 q 680 266 642 266 q 770 304 742 266 q 798 382 798 342 q 774 447 798 418 q 688 476 750 476 l 646 476 l 661 550 l 735 550 q 807 575 780 550 q 835 637 835 600 q 809 695 835 674 q 742 716 783 716 q 672 691 696 716 q 632 625 648 665 l 544 659 q 590 727 560 696 q 661 776 619 758 q 753 794 703 794 q 846 775 806 794 q 910 723 886 756 q 933 647 933 690 q 916 579 933 610 q 868 529 899 549 q 795 507 837 510 q 872 453 847 492 q 897 371 897 415 q 873 286 897 328 q 802 216 850 244 q 681 188 753 188 z "},"④":{"ha":1357,"x_min":80,"x_max":1331,"o":"m 663 -112 q 436 -77 542 -112 q 250 24 330 -43 q 125 188 170 91 q 80 410 80 286 q 126 664 80 542 q 259 883 172 786 q 470 1037 347 981 q 749 1094 594 1094 q 977 1059 871 1094 q 1162 957 1082 1024 q 1286 793 1242 890 q 1331 572 1331 696 q 1284 318 1331 441 q 1151 99 1238 196 q 941 -55 1064 2 q 663 -112 818 -112 m 669 -19 q 901 28 797 -19 q 1079 157 1004 75 q 1194 342 1154 239 q 1234 560 1234 446 q 1168 799 1234 701 q 991 949 1102 897 q 743 1001 880 1001 q 511 954 615 1001 q 332 825 407 907 q 217 640 257 744 q 177 422 177 536 q 243 184 177 283 q 420 33 309 85 q 669 -19 532 -19 m 683 198 l 720 370 l 727 392 l 797 720 l 812 686 l 511 391 l 494 421 l 899 421 l 882 340 l 431 340 l 451 431 l 817 784 l 902 784 l 779 198 l 683 198 z "},"⑤":{"ha":1357,"x_min":80,"x_max":1331,"o":"m 663 -112 q 436 -77 542 -112 q 250 24 330 -43 q 125 188 170 91 q 80 410 80 286 q 126 664 80 542 q 259 883 172 786 q 470 1037 347 981 q 749 1094 594 1094 q 977 1059 871 1094 q 1162 957 1082 1024 q 1286 793 1242 890 q 1331 572 1331 696 q 1284 318 1331 441 q 1151 99 1238 196 q 941 -55 1064 2 q 663 -112 818 -112 m 669 -19 q 901 28 797 -19 q 1079 157 1004 75 q 1194 342 1154 239 q 1234 560 1234 446 q 1168 799 1234 701 q 991 949 1102 897 q 743 1001 880 1001 q 511 954 615 1001 q 332 825 407 907 q 217 640 257 744 q 177 422 177 536 q 243 184 177 283 q 420 33 309 85 q 669 -19 532 -19 m 673 188 q 567 212 614 188 q 495 278 521 237 q 473 372 469 320 l 576 397 q 592 302 568 339 q 673 266 617 266 q 747 289 718 266 q 791 346 777 311 q 806 414 806 380 q 775 493 806 469 q 705 517 744 517 q 646 500 670 517 q 607 458 623 484 l 515 482 l 604 784 l 943 784 l 926 703 l 667 703 l 607 503 l 591 509 q 629 554 606 535 q 680 582 652 572 q 740 592 709 592 q 857 548 808 592 q 905 421 905 504 q 876 307 905 360 q 794 221 847 254 q 673 188 742 188 z "},"⑥":{"ha":1357,"x_min":80,"x_max":1331,"o":"m 663 -112 q 436 -77 542 -112 q 250 24 330 -43 q 125 188 170 91 q 80 410 80 286 q 126 664 80 542 q 259 883 172 786 q 470 1037 347 981 q 749 1094 594 1094 q 977 1059 871 1094 q 1162 957 1082 1024 q 1286 793 1242 890 q 1331 572 1331 696 q 1284 318 1331 441 q 1151 99 1238 196 q 941 -55 1064 2 q 663 -112 818 -112 m 669 -19 q 901 28 797 -19 q 1079 157 1004 75 q 1194 342 1154 239 q 1234 560 1234 446 q 1168 799 1234 701 q 991 949 1102 897 q 743 1001 880 1001 q 511 954 615 1001 q 332 825 407 907 q 217 640 257 744 q 177 422 177 536 q 243 184 177 283 q 420 33 309 85 q 669 -19 532 -19 m 675 188 q 575 212 618 188 q 510 284 533 237 q 486 399 486 332 q 501 520 486 452 q 547 650 515 587 q 631 753 579 712 q 758 794 683 794 q 853 771 812 794 q 918 713 894 749 q 945 639 943 677 l 849 614 q 827 686 848 653 q 756 718 805 718 q 685 694 713 718 q 637 632 656 669 q 607 554 618 595 q 589 482 596 514 l 574 490 q 646 558 604 535 q 738 582 688 582 q 815 564 777 582 q 878 510 852 547 q 903 416 903 473 q 875 307 903 359 q 797 221 848 254 q 675 188 746 188 m 682 264 q 752 288 726 264 q 792 346 779 311 q 805 412 805 380 q 777 483 805 460 q 706 506 749 506 q 613 462 647 506 q 578 362 578 418 q 608 289 578 314 q 682 264 638 264 z "},"⑦":{"ha":1357,"x_min":80,"x_max":1331,"o":"m 663 -112 q 436 -77 542 -112 q 250 24 330 -43 q 125 188 170 91 q 80 410 80 286 q 126 664 80 542 q 259 883 172 786 q 470 1037 347 981 q 749 1094 594 1094 q 977 1059 871 1094 q 1162 957 1082 1024 q 1286 793 1242 890 q 1331 572 1331 696 q 1284 318 1331 441 q 1151 99 1238 196 q 941 -55 1064 2 q 663 -112 818 -112 m 669 -19 q 901 28 797 -19 q 1079 157 1004 75 q 1194 342 1154 239 q 1234 560 1234 446 q 1168 799 1234 701 q 991 949 1102 897 q 743 1001 880 1001 q 511 954 615 1001 q 332 825 407 907 q 217 640 257 744 q 177 422 177 536 q 243 184 177 283 q 420 33 309 85 q 669 -19 532 -19 m 512 198 q 666 481 583 363 q 865 703 750 600 l 547 703 l 564 784 l 974 784 l 960 715 q 850 591 900 652 q 760 467 801 530 q 685 337 718 404 q 623 198 651 271 l 512 198 z "},"⑧":{"ha":1357,"x_min":80,"x_max":1331,"o":"m 663 -112 q 436 -77 542 -112 q 250 24 330 -43 q 125 188 170 91 q 80 410 80 286 q 126 664 80 542 q 259 883 172 786 q 470 1037 347 981 q 749 1094 594 1094 q 977 1059 871 1094 q 1162 957 1082 1024 q 1286 793 1242 890 q 1331 572 1331 696 q 1284 318 1331 441 q 1151 99 1238 196 q 941 -55 1064 2 q 663 -112 818 -112 m 669 -19 q 901 28 797 -19 q 1079 157 1004 75 q 1194 342 1154 239 q 1234 560 1234 446 q 1168 799 1234 701 q 991 949 1102 897 q 743 1001 880 1001 q 511 954 615 1001 q 332 825 407 907 q 217 640 257 744 q 177 422 177 536 q 243 184 177 283 q 420 33 309 85 q 669 -19 532 -19 m 673 188 q 529 228 583 188 q 474 337 474 267 q 496 420 474 381 q 555 485 517 458 q 640 517 593 511 q 573 555 596 527 q 550 626 550 584 q 578 713 550 675 q 654 773 607 751 q 758 794 701 794 q 845 779 802 794 q 915 731 887 763 q 942 651 943 699 q 902 554 941 593 q 800 507 863 514 q 876 460 850 494 q 902 376 902 427 q 878 287 902 330 q 803 216 853 243 q 673 188 752 188 m 680 269 q 772 303 741 269 q 803 382 803 336 q 775 452 803 426 q 701 477 748 477 q 608 439 639 477 q 576 358 576 401 q 603 294 576 319 q 680 269 629 269 m 741 549 q 819 577 795 549 q 842 640 842 605 q 817 701 842 680 q 753 722 791 722 q 675 694 705 722 q 646 627 646 666 q 670 571 646 593 q 741 549 694 549 z "},"⑨":{"ha":1357,"x_min":80,"x_max":1331,"o":"m 663 -112 q 436 -77 542 -112 q 250 24 330 -43 q 125 188 170 91 q 80 410 80 286 q 126 664 80 542 q 259 883 172 786 q 470 1037 347 981 q 749 1094 594 1094 q 977 1059 871 1094 q 1162 957 1082 1024 q 1286 793 1242 890 q 1331 572 1331 696 q 1284 318 1331 441 q 1151 99 1238 196 q 941 -55 1064 2 q 663 -112 818 -112 m 669 -19 q 901 28 797 -19 q 1079 157 1004 75 q 1194 342 1154 239 q 1234 560 1234 446 q 1168 799 1234 701 q 991 949 1102 897 q 743 1001 880 1001 q 511 954 615 1001 q 332 825 407 907 q 217 640 257 744 q 177 422 177 536 q 243 184 177 283 q 420 33 309 85 q 669 -19 532 -19 m 673 188 q 575 211 618 188 q 508 270 532 235 q 480 342 483 305 l 575 366 q 600 294 572 322 q 675 265 629 265 q 750 290 721 265 q 798 352 780 314 q 825 430 815 389 q 842 504 835 471 l 855 498 q 789 423 829 452 q 692 394 749 394 q 577 438 628 394 q 527 566 527 481 q 554 676 527 624 q 633 761 582 728 q 757 794 685 794 q 857 770 815 794 q 921 699 899 746 q 943 584 943 652 q 930 463 943 531 q 886 333 917 395 q 804 229 856 270 q 673 188 751 188 m 724 475 q 815 519 782 475 q 849 618 849 563 q 820 691 849 667 q 747 716 790 716 q 678 693 705 716 q 638 635 651 669 q 626 569 626 601 q 654 498 626 522 q 724 475 682 475 z "},"⁄":{"ha":202,"x_min":-296,"x_max":556,"o":"m -232 -27 l -296 24 l 492 1001 l 556 949 l -232 -27 z "},"½":{"ha":1150,"x_min":118,"x_max":1110,"o":"m 180 391 l 273 831 q 200 787 232 802 q 132 762 168 771 l 153 858 q 227 890 186 868 q 333 977 268 913 l 399 977 l 276 391 l 180 391 m 182 -27 l 118 24 l 906 1001 l 970 949 l 182 -27 m 609 0 l 626 78 l 865 235 q 969 324 930 277 q 1009 431 1009 371 q 980 499 1009 481 q 916 517 951 517 q 857 504 882 517 q 815 463 832 490 q 788 399 799 437 l 694 429 q 779 549 716 502 q 922 596 842 596 q 1010 578 966 596 q 1082 525 1053 561 q 1110 432 1110 488 q 1082 330 1110 376 q 1008 245 1054 283 q 910 176 963 207 l 722 65 l 708 81 l 1047 81 l 1030 0 l 609 0 z "},"¼":{"ha":1092,"x_min":118,"x_max":1031,"o":"m 180 391 l 273 831 q 200 787 232 802 q 132 762 168 771 l 153 858 q 227 890 186 868 q 333 977 268 913 l 399 977 l 276 391 l 180 391 m 182 -27 l 118 24 l 906 1001 l 970 949 l 182 -27 m 812 0 l 849 172 l 857 194 l 926 522 l 942 488 l 641 193 l 624 223 l 1029 223 l 1012 142 l 561 142 l 581 233 l 946 586 l 1031 586 l 908 0 l 812 0 z "},"¾":{"ha":1223,"x_min":77,"x_max":1163,"o":"m 288 380 q 179 403 226 380 q 105 467 132 425 q 77 566 79 508 l 179 595 q 188 523 176 554 q 223 475 199 492 q 286 458 248 458 q 377 497 349 458 q 405 575 405 535 q 381 640 405 611 q 294 669 357 669 l 252 669 l 267 743 l 342 743 q 414 767 387 743 q 441 830 441 792 q 416 888 441 867 q 349 909 390 909 q 279 883 303 909 q 239 818 254 858 l 151 852 q 196 920 167 889 q 268 968 226 950 q 360 987 309 987 q 453 968 412 987 q 516 916 493 949 q 540 840 540 882 q 523 772 540 803 q 474 722 505 741 q 401 699 444 703 q 479 646 454 684 q 504 564 504 608 q 480 479 504 521 q 408 409 456 437 q 288 380 360 380 m 313 -27 l 250 24 l 1038 1001 l 1101 949 l 313 -27 m 944 0 l 981 172 l 988 194 l 1058 522 l 1074 488 l 772 193 l 755 223 l 1160 223 l 1143 142 l 692 142 l 712 233 l 1078 586 l 1163 586 l 1040 0 l 944 0 z "},"⁰":{"ha":514,"x_min":115,"x_max":576,"o":"m 304 478 q 166 536 218 478 q 115 701 115 595 q 129 818 115 753 q 174 944 143 884 q 257 1045 205 1005 q 385 1084 309 1084 q 525 1026 473 1084 q 576 862 576 968 q 562 745 576 810 q 516 618 548 680 q 432 518 484 557 q 304 478 380 478 m 308 556 q 389 592 356 556 q 441 680 421 627 q 469 786 460 733 q 478 871 478 838 q 452 970 478 934 q 380 1006 427 1006 q 301 971 333 1006 q 250 883 269 935 q 223 778 231 830 q 214 691 214 725 q 238 593 214 629 q 308 556 262 556 z "},"¹":{"ha":328,"x_min":153,"x_max":420,"o":"m 201 488 l 294 929 q 221 884 253 900 q 153 860 189 869 l 174 956 q 248 988 207 966 q 354 1074 289 1010 l 420 1074 l 297 488 l 201 488 z "},"²":{"ha":507,"x_min":70,"x_max":571,"o":"m 70 488 l 87 566 l 326 723 q 430 812 391 765 q 470 919 470 859 q 441 987 470 969 q 376 1006 412 1006 q 318 992 342 1006 q 276 951 293 978 q 249 888 260 925 l 155 918 q 240 1037 177 990 q 382 1084 303 1084 q 471 1067 427 1084 q 543 1013 514 1049 q 571 920 571 977 q 543 818 571 865 q 469 733 515 771 q 371 664 424 695 l 183 553 l 169 570 l 508 570 l 491 488 l 70 488 z "},"³":{"ha":503,"x_min":98,"x_max":561,"o":"m 309 478 q 200 500 247 478 q 126 564 153 523 q 98 663 100 606 l 200 693 q 209 621 197 652 q 244 573 220 590 q 307 556 269 556 q 398 594 370 556 q 426 673 426 633 q 402 738 426 709 q 315 766 378 766 l 273 766 l 288 840 l 363 840 q 435 865 408 840 q 463 928 463 890 q 437 985 463 964 q 370 1006 411 1006 q 300 981 324 1006 q 260 916 275 956 l 172 949 q 217 1017 188 987 q 289 1066 247 1048 q 381 1084 330 1084 q 474 1065 433 1084 q 537 1013 514 1046 q 561 937 561 980 q 544 870 561 901 q 495 820 526 839 q 422 797 465 800 q 500 744 475 782 q 525 661 525 705 q 501 576 525 618 q 429 506 477 534 q 309 478 381 478 z "},"⁴":{"ha":517,"x_min":90,"x_max":560,"o":"m 341 488 l 378 660 l 385 682 l 455 1010 l 471 977 l 170 681 l 153 711 l 557 711 l 541 630 l 90 630 l 109 722 l 475 1074 l 560 1074 l 437 488 l 341 488 z "},"⁵":{"ha":506,"x_min":99,"x_max":573,"o":"m 302 478 q 197 503 243 478 q 125 569 151 527 q 103 662 99 610 l 206 687 q 222 593 197 629 q 302 556 247 556 q 377 579 348 556 q 421 636 406 602 q 435 704 435 670 q 405 783 435 759 q 334 807 374 807 q 276 791 300 807 q 237 749 252 774 l 145 772 l 233 1074 l 573 1074 l 555 993 l 296 993 l 237 793 l 221 799 q 259 844 236 825 q 310 872 281 863 q 370 882 338 882 q 487 838 438 882 q 535 711 535 794 q 506 597 535 650 q 424 511 477 544 q 302 478 372 478 z "},"⁶":{"ha":516,"x_min":125,"x_max":583,"o":"m 313 478 q 214 503 256 478 q 148 574 172 527 q 125 690 125 622 q 139 810 125 743 q 186 940 154 878 q 270 1043 218 1002 q 397 1084 321 1084 q 491 1062 450 1084 q 557 1003 532 1039 q 583 929 581 968 l 488 904 q 465 976 487 943 q 395 1008 444 1008 q 323 984 352 1008 q 276 922 294 960 q 246 845 257 885 q 227 772 235 804 l 213 780 q 284 849 243 825 q 376 872 326 872 q 453 854 416 872 q 516 800 491 837 q 541 706 541 764 q 514 597 541 649 q 435 511 486 545 q 313 478 385 478 m 321 554 q 391 578 364 554 q 431 636 418 602 q 444 702 444 670 q 415 773 444 750 q 345 796 387 796 q 251 752 286 796 q 217 652 217 708 q 247 579 217 604 q 321 554 277 554 z "},"⁷":{"ha":469,"x_min":128,"x_max":590,"o":"m 128 488 q 282 771 199 653 q 481 993 366 890 l 163 993 l 180 1074 l 590 1074 l 576 1005 q 467 881 516 943 q 376 757 417 820 q 301 627 334 694 q 239 488 267 561 l 128 488 z "},"⁸":{"ha":511,"x_min":101,"x_max":570,"o":"m 300 478 q 156 518 210 478 q 101 627 101 557 q 123 710 101 671 q 182 775 144 749 q 267 808 220 802 q 200 846 223 817 q 177 916 177 874 q 205 1004 177 966 q 281 1063 234 1042 q 385 1084 328 1084 q 472 1069 429 1084 q 542 1021 514 1053 q 569 941 570 989 q 529 844 568 884 q 427 797 490 804 q 503 751 477 785 q 529 667 529 717 q 505 577 529 620 q 430 506 480 534 q 300 478 379 478 m 307 559 q 399 593 368 559 q 430 672 430 627 q 402 742 430 716 q 328 768 375 768 q 235 730 266 768 q 203 648 203 692 q 230 584 203 609 q 307 559 256 559 m 368 840 q 446 867 422 840 q 469 930 469 895 q 444 991 469 970 q 380 1012 418 1012 q 302 984 332 1012 q 273 918 273 956 q 297 861 273 883 q 368 840 321 840 z "},"⁹":{"ha":519,"x_min":106,"x_max":570,"o":"m 300 478 q 201 502 244 478 q 134 560 159 525 q 106 632 109 595 l 201 656 q 227 584 198 612 q 301 555 255 555 q 377 580 347 555 q 424 642 406 604 q 451 721 441 680 q 469 794 461 762 l 481 789 q 415 713 456 743 q 319 684 375 684 q 204 728 254 684 q 153 856 153 772 q 181 966 153 914 q 260 1052 208 1019 q 383 1084 311 1084 q 483 1060 441 1084 q 547 989 525 1036 q 570 874 570 943 q 556 753 570 821 q 513 623 543 686 q 430 519 482 560 q 300 478 378 478 m 350 765 q 442 809 408 765 q 475 909 475 853 q 446 982 475 957 q 373 1006 416 1006 q 304 983 331 1006 q 265 925 277 960 q 252 859 252 891 q 280 788 252 812 q 350 765 308 765 z "},"\r":{"ha":339,"x_min":0,"x_max":0,"o":""}," ":{"ha":339,"x_min":0,"x_max":0,"o":""}," ":{"ha":339,"x_min":0,"x_max":0,"o":""},".":{"ha":376,"x_min":26,"x_max":229,"o":"m 127 -16 q 56 13 85 -16 q 26 85 26 43 q 56 158 26 128 q 127 187 85 187 q 199 158 170 187 q 229 85 229 128 q 199 13 229 43 q 127 -16 170 -16 z "},",":{"ha":356,"x_min":-27,"x_max":216,"o":"m 7 -216 l -27 -154 l -3 -140 q 58 -91 37 -116 q 83 -31 80 -66 l 87 1 l 100 -24 q 34 9 58 -20 q 9 74 9 39 q 40 149 9 119 q 111 178 71 178 q 158 167 134 178 q 199 131 182 156 q 216 61 216 105 q 168 -83 216 -15 q 45 -194 120 -151 l 7 -216 z "},":":{"ha":376,"x_min":27,"x_max":347,"o":"m 128 -16 q 56 13 85 -16 q 27 85 27 43 q 56 158 27 128 q 128 187 85 187 q 200 158 171 187 q 229 85 229 128 q 200 13 229 43 q 128 -16 171 -16 m 246 540 q 174 569 203 540 q 145 641 145 599 q 174 714 145 684 q 246 743 203 743 q 318 714 289 743 q 347 641 347 684 q 318 569 347 599 q 246 540 289 540 z "},";":{"ha":363,"x_min":-27,"x_max":349,"o":"m 7 -216 l -27 -154 l -3 -140 q 58 -91 37 -116 q 83 -31 80 -66 l 87 1 l 100 -24 q 34 9 58 -20 q 9 74 9 39 q 40 149 9 119 q 111 178 71 178 q 158 167 134 178 q 199 131 182 156 q 216 61 216 105 q 168 -83 216 -15 q 45 -194 120 -151 l 7 -216 m 248 540 q 176 569 205 540 q 147 641 147 599 q 176 714 147 684 q 248 743 205 743 q 320 714 291 743 q 349 641 349 684 q 320 569 349 599 q 248 540 291 540 z "},"…":{"ha":998,"x_min":26,"x_max":851,"o":"m 127 -16 q 56 13 85 -16 q 26 85 26 43 q 56 158 26 128 q 127 187 85 187 q 199 158 170 187 q 229 85 229 128 q 199 13 229 43 q 127 -16 170 -16 m 435 -16 q 363 13 393 -16 q 334 85 334 43 q 363 158 334 128 q 435 187 393 187 q 507 158 478 187 q 536 85 536 128 q 507 13 536 43 q 435 -16 478 -16 m 750 -16 q 678 13 707 -16 q 649 85 649 43 q 678 158 649 128 q 750 187 707 187 q 822 158 793 187 q 851 85 851 128 q 822 13 851 43 q 750 -16 793 -16 z "},"!":{"ha":321,"x_min":2,"x_max":350,"o":"m 94 271 l 222 977 l 350 977 l 177 271 q 136 271 157 271 q 94 271 115 271 m 90 -15 q 27 10 52 -15 q 2 71 2 35 q 17 123 2 99 q 56 162 31 147 q 110 178 81 178 q 173 152 148 178 q 197 91 197 127 q 183 39 197 63 q 144 0 168 14 q 90 -15 120 -15 z "},"¡":{"ha":321,"x_min":-29,"x_max":319,"o":"m 227 462 l 98 -244 l -29 -244 l 144 462 q 185 461 164 462 q 227 462 205 461 m 231 747 q 294 723 269 747 q 319 661 319 698 q 304 610 319 634 q 265 570 290 585 q 211 555 241 555 q 148 580 173 555 q 123 642 123 606 q 138 694 123 670 q 177 733 153 718 q 231 747 201 747 z "},"?":{"ha":745,"x_min":109,"x_max":778,"o":"m 317 271 l 331 340 q 371 440 343 402 q 434 503 399 479 q 507 546 470 527 q 576 586 545 564 q 627 643 608 608 q 647 734 647 677 q 622 829 647 795 q 556 877 597 863 q 467 890 515 890 q 362 865 405 890 q 289 789 319 840 q 237 663 259 739 l 109 707 q 182 851 128 787 q 314 955 237 916 q 479 993 391 993 q 590 976 536 993 q 686 924 643 958 q 753 840 728 890 q 778 723 778 789 q 754 614 778 659 q 692 538 730 570 q 611 484 654 507 q 526 440 567 461 q 456 396 486 420 q 419 339 427 372 l 402 271 q 360 271 381 271 q 317 271 338 271 m 323 -15 q 260 10 285 -15 q 235 71 235 35 q 249 123 235 99 q 289 162 264 147 q 342 178 313 178 q 406 152 380 178 q 431 90 431 127 q 416 38 431 62 q 377 0 401 14 q 323 -15 353 -15 z "},"¿":{"ha":745,"x_min":-33,"x_max":636,"o":"m 428 462 l 414 393 q 374 292 402 330 q 311 230 347 254 q 238 187 275 205 q 169 146 201 168 q 118 90 138 124 q 98 -2 98 55 q 123 -97 98 -62 q 190 -144 149 -131 q 278 -158 231 -158 q 384 -133 340 -158 q 456 -57 427 -107 q 509 70 486 -6 l 636 26 q 563 -119 617 -54 q 432 -222 509 -184 q 266 -260 355 -260 q 156 -243 209 -260 q 60 -192 102 -226 q -8 -107 17 -158 q -33 9 -33 -57 q -9 118 -33 74 q 53 194 15 163 q 135 248 91 225 q 219 292 178 271 q 289 337 260 313 q 326 393 318 361 l 343 462 q 386 462 365 462 q 428 462 407 462 m 422 747 q 486 723 460 747 q 511 661 511 698 q 496 610 511 634 q 457 570 481 585 q 403 555 433 555 q 340 580 365 555 q 315 642 315 606 q 329 694 315 670 q 369 733 344 718 q 422 747 393 747 z "},"·":{"ha":376,"x_min":102,"x_max":304,"o":"m 203 338 q 131 367 160 338 q 102 439 102 397 q 131 512 102 482 q 203 541 160 541 q 275 512 245 541 q 304 439 304 482 q 275 367 304 397 q 203 338 245 338 z "},"•":{"ha":882,"x_min":277,"x_max":633,"o":"m 455 254 q 329 306 380 254 q 277 432 277 357 q 329 560 277 508 q 455 612 380 612 q 581 560 530 612 q 633 432 633 508 q 581 306 633 357 q 455 254 530 254 z "},"*":{"ha":612,"x_min":130,"x_max":646,"o":"m 280 495 l 199 553 l 322 703 l 130 753 l 161 849 l 351 775 l 338 977 l 437 977 l 425 775 l 616 849 l 646 753 l 454 703 l 577 553 l 497 495 l 389 662 l 280 495 z "},"#":{"ha":871,"x_min":23,"x_max":897,"o":"m 374 0 l 749 977 l 850 977 l 476 0 l 374 0 m 23 290 l 44 387 l 786 387 l 766 290 l 23 290 m 68 0 l 443 977 l 545 977 l 170 0 l 68 0 m 130 585 l 151 682 l 897 682 l 877 585 l 130 585 z "},"/":{"ha":608,"x_min":-89,"x_max":732,"o":"m -89 -177 l 616 1076 l 732 1076 l 28 -177 l -89 -177 z "},"\\":{"ha":583,"x_min":178,"x_max":441,"o":"m 338 -177 l 178 1076 l 281 1076 l 441 -177 l 338 -177 z "},"-":{"ha":667,"x_min":108,"x_max":585,"o":"m 108 374 l 129 480 l 585 480 l 564 374 l 108 374 z "},"–":{"ha":694,"x_min":77,"x_max":631,"o":"m 77 373 l 99 481 l 631 481 l 608 373 l 77 373 z "},"—":{"ha":1389,"x_min":84,"x_max":1331,"o":"m 84 373 l 106 481 l 1331 481 l 1309 373 l 84 373 z "},"_":{"ha":694,"x_min":-18,"x_max":535,"o":"m -18 -109 l 3 0 l 535 0 l 512 -109 l -18 -109 z "},"(":{"ha":421,"x_min":30,"x_max":518,"o":"m 136 -229 q 56 -16 83 -124 q 30 203 30 92 q 72 495 30 350 q 195 773 113 640 q 394 1017 276 906 l 518 1017 q 226 620 323 831 q 130 202 130 409 q 159 -16 130 88 q 248 -229 189 -121 l 136 -229 z "},")":{"ha":443,"x_min":-87,"x_max":427,"o":"m -87 -229 q 216 168 116 -43 q 317 588 317 379 q 288 804 317 700 q 201 1017 259 909 l 317 1017 q 400 805 373 913 q 427 585 427 696 q 384 294 427 439 q 256 16 340 149 q 48 -229 172 -117 l -87 -229 z "},"{":{"ha":432,"x_min":16,"x_max":533,"o":"m 110 -229 q 41 -200 66 -229 q 25 -125 16 -171 l 117 312 q 96 345 123 345 l 28 345 l 50 443 l 117 443 q 151 476 145 443 l 243 913 q 291 988 253 959 q 372 1017 328 1017 l 533 1017 l 513 920 l 379 920 q 351 913 359 920 q 338 883 344 905 l 258 498 q 225 436 250 463 q 157 394 200 410 q 208 352 193 378 q 214 290 222 326 l 133 -95 q 133 -125 128 -117 q 157 -132 137 -132 l 291 -132 l 271 -229 l 110 -229 z "},"}":{"ha":432,"x_min":-90,"x_max":428,"o":"m 334 1017 q 402 988 377 1017 q 418 913 428 959 l 327 476 q 347 443 320 443 l 415 443 l 394 345 l 326 345 q 292 312 298 345 l 200 -125 q 153 -200 191 -171 q 72 -229 115 -229 l -90 -229 l -69 -132 l 64 -132 q 93 -125 85 -132 q 105 -95 100 -117 l 186 290 q 218 352 193 326 q 286 394 243 378 q 237 436 251 410 q 229 498 222 463 l 311 883 q 311 913 315 905 q 286 920 307 920 l 153 920 l 172 1017 l 334 1017 z "},"[":{"ha":414,"x_min":-53,"x_max":478,"o":"m -53 -229 l 209 1017 l 478 1017 l 458 920 l 290 920 l 69 -132 l 236 -132 l 216 -229 l -53 -229 z "},"]":{"ha":414,"x_min":-53,"x_max":478,"o":"m 478 1017 l 216 -229 l -53 -229 l -33 -132 l 135 -132 l 356 920 l 189 920 l 209 1017 l 478 1017 z "},"‚":{"ha":356,"x_min":-27,"x_max":216,"o":"m 7 -216 l -27 -154 l -3 -140 q 58 -91 37 -116 q 83 -31 80 -66 l 87 1 l 100 -24 q 34 9 58 -20 q 9 74 9 39 q 40 149 9 119 q 111 178 71 178 q 158 167 134 178 q 199 131 182 156 q 216 61 216 105 q 168 -83 216 -15 q 45 -194 120 -151 l 7 -216 z "},"„":{"ha":593,"x_min":-27,"x_max":453,"o":"m 7 -216 l -27 -154 l -3 -140 q 58 -91 37 -116 q 83 -31 80 -66 l 87 1 l 100 -24 q 34 9 58 -20 q 9 74 9 39 q 40 149 9 119 q 111 178 71 178 q 158 167 134 178 q 199 131 182 156 q 216 61 216 105 q 168 -83 216 -15 q 45 -194 120 -151 l 7 -216 m 243 -216 l 210 -154 l 233 -140 q 295 -91 273 -116 q 320 -31 317 -66 l 323 1 l 337 -24 q 271 9 295 -20 q 246 74 246 39 q 277 149 246 119 q 347 178 307 178 q 395 167 370 178 q 436 131 419 156 q 453 61 453 105 q 405 -83 453 -15 q 282 -194 357 -151 l 243 -216 z "},"“":{"ha":593,"x_min":149,"x_max":629,"o":"m 359 993 l 393 930 l 369 916 q 307 867 329 892 q 282 807 286 842 l 279 775 l 265 801 q 332 767 307 797 q 356 703 356 737 q 326 628 356 657 q 255 598 295 598 q 208 609 232 598 q 166 646 183 621 q 149 715 149 672 q 198 860 149 792 q 320 970 246 927 l 359 993 m 595 993 l 629 930 l 606 916 q 544 867 566 892 q 519 807 522 842 l 515 775 l 502 801 q 568 767 544 797 q 593 703 593 737 q 562 628 593 657 q 492 598 532 598 q 444 609 469 598 q 403 646 420 621 q 386 715 386 672 q 434 860 386 792 q 557 970 483 927 l 595 993 z "},"”":{"ha":593,"x_min":144,"x_max":624,"o":"m 178 587 l 144 649 l 168 663 q 229 712 208 687 q 254 772 251 737 l 258 804 l 271 779 q 205 812 229 783 q 180 877 180 842 q 211 952 180 922 q 281 981 241 981 q 329 970 304 981 q 370 933 353 959 q 387 864 387 908 q 339 720 387 788 q 216 609 291 652 l 178 587 m 414 587 l 380 649 l 404 663 q 466 712 444 687 q 491 772 488 737 l 494 804 l 508 779 q 441 812 466 783 q 417 877 417 842 q 448 952 417 922 q 518 981 478 981 q 566 970 541 981 q 607 933 590 959 q 624 864 624 908 q 576 720 624 788 q 453 609 528 652 l 414 587 z "},"‘":{"ha":356,"x_min":149,"x_max":393,"o":"m 359 993 l 393 930 l 369 916 q 307 867 329 892 q 282 807 286 842 l 279 775 l 265 801 q 332 767 307 797 q 356 703 356 737 q 326 628 356 657 q 255 598 295 598 q 208 609 232 598 q 166 646 183 621 q 149 715 149 672 q 198 860 149 792 q 320 970 246 927 l 359 993 z "},"’":{"ha":356,"x_min":144,"x_max":387,"o":"m 178 587 l 144 649 l 168 663 q 229 712 208 687 q 254 772 251 737 l 258 804 l 271 779 q 205 812 229 783 q 180 877 180 842 q 211 952 180 922 q 281 981 241 981 q 329 970 304 981 q 370 933 353 959 q 387 864 387 908 q 339 720 387 788 q 216 609 291 652 l 178 587 z "},"«":{"ha":665,"x_min":48,"x_max":701,"o":"m 219 153 l 48 427 l 324 702 l 452 702 l 165 416 l 330 153 l 219 153 m 468 153 l 297 427 l 573 702 l 701 702 l 414 416 l 578 153 l 468 153 z "},"»":{"ha":665,"x_min":-10,"x_max":642,"o":"m -10 153 l 277 438 l 112 702 l 222 702 l 393 428 l 118 153 l -10 153 m 239 153 l 526 438 l 361 702 l 471 702 l 642 428 l 367 153 l 239 153 z "},"‹":{"ha":416,"x_min":48,"x_max":452,"o":"m 219 153 l 48 427 l 324 702 l 452 702 l 165 416 l 330 153 l 219 153 z "},"›":{"ha":416,"x_min":-10,"x_max":393,"o":"m -10 153 l 277 438 l 112 702 l 222 702 l 393 428 l 118 153 l -10 153 z "},"\"":{"ha":474,"x_min":121,"x_max":534,"o":"m 121 612 l 199 977 l 333 977 l 218 612 l 121 612 m 323 612 l 400 977 l 534 977 l 420 612 l 323 612 z "},"'":{"ha":273,"x_min":121,"x_max":333,"o":"m 121 612 l 199 977 l 333 977 l 218 612 l 121 612 z "},"ƒ":{"ha":808,"x_min":-47,"x_max":907,"o":"m -47 0 l -26 97 l 171 97 q 212 131 198 97 l 510 840 q 582 944 541 912 q 688 977 623 977 l 907 977 l 886 880 l 667 880 q 644 871 653 880 q 627 846 634 863 l 329 137 q 258 33 299 65 q 151 0 216 0 l -47 0 m 155 465 l 172 547 l 745 547 l 727 465 l 155 465 z "},"฿":{"ha":785,"x_min":-1,"x_max":760,"o":"m -1 39 l 190 937 l 520 937 q 696 891 631 937 q 760 758 760 846 q 730 651 760 702 q 649 567 701 601 q 528 526 597 533 l 530 528 q 654 462 608 513 q 700 322 701 411 q 653 169 700 233 q 528 72 606 106 q 353 39 450 39 l -1 39 m 131 134 l 370 134 q 500 165 452 134 q 570 242 549 197 q 591 328 591 287 q 569 412 591 378 q 505 462 547 446 q 406 479 464 479 l 203 479 l 131 134 m 216 -95 l 465 1072 l 542 1072 l 294 -95 l 216 -95 m 223 574 l 437 574 q 580 614 522 574 q 638 729 638 655 q 606 811 638 780 q 499 842 574 842 l 279 842 l 223 574 z "},"@":{"ha":1238,"x_min":76,"x_max":1192,"o":"m 654 -145 q 347 -77 477 -145 q 146 114 217 -9 q 76 404 76 237 q 148 705 76 576 q 348 905 220 834 q 645 977 476 977 q 925 915 802 977 q 1121 737 1049 852 q 1192 462 1192 622 q 1166 298 1192 361 q 1100 199 1141 235 q 1016 148 1060 163 q 933 130 971 133 q 873 127 895 127 l 816 127 q 753 148 777 127 q 730 203 730 168 q 730 214 730 209 q 732 224 731 218 l 736 247 l 749 237 q 663 143 713 172 q 557 115 612 115 q 415 178 465 115 q 364 338 364 241 q 380 452 364 391 q 430 567 397 513 q 514 654 463 621 q 635 688 566 688 q 748 655 699 688 q 810 564 797 623 l 803 554 l 829 676 l 929 676 l 836 237 q 833 224 833 227 q 854 210 833 210 l 924 210 q 959 214 933 210 q 1014 239 985 218 q 1063 310 1042 260 q 1084 448 1084 359 q 1023 691 1084 595 q 863 834 962 787 q 646 882 763 882 q 402 820 505 882 q 241 650 298 758 q 184 400 184 541 q 242 161 184 262 q 406 5 300 60 q 655 -50 512 -50 l 1078 -50 l 1078 -145 l 654 -145 m 594 201 q 677 228 643 201 q 733 294 712 254 q 765 378 755 334 q 775 458 775 422 q 741 565 775 529 q 657 602 707 602 q 577 575 610 602 q 522 509 543 549 q 491 422 501 468 q 481 339 481 377 q 511 236 481 270 q 594 201 542 201 z "},"&":{"ha":943,"x_min":11,"x_max":880,"o":"m 330 -16 q 201 -1 260 -16 q 100 44 142 14 q 34 116 58 73 q 11 214 11 159 q 84 395 11 315 q 271 522 157 474 l 408 579 q 474 610 437 591 q 544 654 510 629 q 599 711 577 679 q 621 782 621 743 q 587 861 621 827 q 491 895 554 895 q 403 870 437 895 q 353 809 369 846 q 336 736 336 773 q 346 675 336 712 q 398 582 356 638 l 733 131 q 759 106 747 113 q 800 99 772 99 l 848 99 l 826 -1 l 756 0 q 693 11 715 1 q 656 40 671 20 q 618 91 641 60 l 302 524 q 232 647 246 600 q 217 726 217 693 q 254 862 217 802 q 354 958 291 922 q 497 993 418 993 q 617 969 562 993 q 706 901 672 945 q 739 796 739 857 q 713 697 739 743 q 646 614 687 651 q 559 548 606 576 q 472 502 513 520 l 328 437 q 192 352 246 399 q 138 236 138 304 q 164 157 138 190 q 236 106 190 123 q 342 88 282 88 q 508 128 437 88 q 629 233 579 168 q 710 376 678 298 q 759 528 742 453 l 763 545 l 880 545 l 876 527 q 807 317 850 415 q 699 143 764 218 q 542 26 633 68 q 330 -16 451 -16 z "},"¶":{"ha":905,"x_min":116,"x_max":960,"o":"m 375 -264 l 522 431 l 430 431 q 186 503 256 431 q 143 704 116 574 q 271 907 171 837 q 542 977 371 977 l 747 977 l 487 -264 l 375 -264 m 589 -264 l 849 977 l 960 977 l 700 -264 l 589 -264 z "},"§":{"ha":844,"x_min":-18,"x_max":865,"o":"m 304 -261 q 133 -212 205 -250 q 21 -107 60 -174 q -16 56 -18 -40 l 115 66 q 163 -97 103 -39 q 323 -165 223 -154 q 498 -136 426 -176 q 586 -26 571 -96 q 560 70 599 32 q 450 127 522 107 l 334 160 q 244 192 288 173 q 165 241 199 212 q 116 314 131 271 q 113 415 100 356 q 186 538 129 492 q 327 604 243 585 l 313 577 q 213 660 251 609 q 192 790 175 710 q 268 918 210 872 q 408 981 327 964 q 574 988 490 997 q 737 942 673 978 q 833 850 802 907 q 865 720 865 794 l 724 709 q 712 801 729 763 q 654 863 694 840 q 548 892 614 886 q 440 889 492 899 q 353 855 389 880 q 308 786 317 829 q 333 700 297 734 q 459 637 368 665 l 575 600 q 696 549 642 580 q 778 468 751 517 q 789 343 805 419 q 729 224 774 275 q 614 144 684 172 l 627 164 q 700 85 675 133 q 709 -33 724 37 q 635 -170 692 -115 q 493 -248 578 -224 q 304 -261 408 -272 m 512 220 q 614 270 570 229 q 667 357 658 311 q 641 445 678 407 q 524 505 604 482 l 402 539 q 333 524 371 538 q 266 481 296 509 q 227 409 235 452 q 234 348 221 374 q 283 300 247 321 q 380 260 319 279 l 512 220 z "},"©":{"ha":1171,"x_min":79,"x_max":1143,"o":"m 587 235 q 479 260 526 235 q 405 332 432 285 q 378 448 378 380 q 395 553 378 501 q 446 648 412 606 q 527 716 479 690 q 637 741 575 741 q 734 721 691 741 q 803 665 777 701 q 835 582 830 629 l 740 559 q 710 633 738 605 q 635 662 683 662 q 544 627 579 662 q 492 542 509 591 q 475 450 475 492 q 507 351 475 388 q 591 314 538 314 q 662 338 631 314 q 714 414 693 362 l 808 391 q 716 273 772 311 q 587 235 659 235 m 573 -12 q 382 18 471 -12 q 225 104 293 47 q 118 244 157 161 q 79 435 79 327 q 119 640 79 541 q 232 818 158 739 q 411 942 306 897 q 649 988 517 988 q 840 959 751 988 q 998 873 930 930 q 1105 733 1066 816 q 1143 542 1143 650 q 1104 336 1143 435 q 990 159 1065 237 q 810 34 916 80 q 573 -12 705 -12 m 577 75 q 767 113 682 75 q 913 215 852 151 q 1007 363 974 280 q 1040 535 1040 446 q 986 735 1040 654 q 843 859 932 817 q 646 901 754 901 q 456 864 541 901 q 310 761 371 826 q 216 614 249 696 q 183 442 183 532 q 237 242 183 323 q 380 118 290 160 q 577 75 469 75 z "},"®":{"ha":1171,"x_min":79,"x_max":1143,"o":"m 383 244 l 486 732 l 653 732 q 764 716 724 732 q 820 673 804 701 q 836 610 836 646 q 818 536 836 571 q 758 478 799 500 q 650 456 717 456 l 518 456 l 473 244 l 383 244 m 666 244 l 587 481 l 681 481 l 761 244 l 666 244 m 534 529 l 661 529 q 721 548 698 529 q 744 598 744 566 q 724 641 744 624 q 653 659 705 659 l 562 659 l 534 529 m 573 -12 q 382 18 471 -12 q 225 104 293 47 q 118 244 157 161 q 79 435 79 327 q 119 640 79 541 q 232 818 158 739 q 411 942 306 897 q 649 988 517 988 q 840 959 751 988 q 998 873 930 930 q 1105 733 1066 816 q 1143 542 1143 650 q 1104 336 1143 435 q 990 159 1065 237 q 810 34 916 80 q 573 -12 705 -12 m 577 75 q 767 113 682 75 q 913 215 852 151 q 1007 363 974 280 q 1040 535 1040 446 q 986 735 1040 654 q 843 859 932 817 q 646 901 754 901 q 456 864 541 901 q 310 761 371 826 q 216 614 249 696 q 183 442 183 532 q 237 242 183 323 q 380 118 290 160 q 577 75 469 75 z "},"™":{"ha":1133,"x_min":179,"x_max":1168,"o":"m 258 488 l 361 977 l 452 977 l 349 488 l 258 488 m 179 898 l 195 977 l 618 977 l 602 898 l 179 898 m 550 488 l 679 977 l 824 977 l 843 552 l 821 552 l 1019 977 l 1168 977 l 1093 488 l 1004 488 l 1071 909 l 1074 909 l 874 488 l 770 488 l 747 909 l 751 909 l 640 488 l 550 488 z "},"°":{"ha":584,"x_min":151,"x_max":599,"o":"m 354 532 q 252 554 298 532 q 179 618 206 576 q 151 723 151 661 q 182 851 151 791 q 268 946 213 910 q 396 983 323 983 q 498 961 452 983 q 571 896 544 939 q 599 791 599 853 q 569 666 599 726 q 484 569 539 607 q 354 532 429 532 m 362 627 q 459 673 421 627 q 498 780 497 718 q 468 858 498 828 q 388 887 439 887 q 315 864 346 887 q 269 807 285 842 q 252 734 252 772 q 281 657 252 687 q 362 627 311 627 z "},"′":{"ha":328,"x_min":151,"x_max":363,"o":"m 151 612 l 229 977 l 363 977 l 248 612 l 151 612 z "},"″":{"ha":529,"x_min":151,"x_max":564,"o":"m 151 612 l 229 977 l 363 977 l 248 612 l 151 612 m 353 612 l 430 977 l 564 977 l 450 612 l 353 612 z "},"|":{"ha":322,"x_min":-23,"x_max":345,"o":"m -23 -246 l 234 977 l 345 977 l 87 -246 l -23 -246 z "},"¦":{"ha":295,"x_min":-37,"x_max":331,"o":"m -37 -246 l 62 227 l 174 227 l 74 -246 l -37 -246 m 121 505 l 220 977 l 331 977 l 232 505 l 121 505 z "},"†":{"ha":705,"x_min":83,"x_max":741,"o":"m 215 0 l 420 977 l 542 977 l 337 0 l 215 0 m 83 591 l 106 698 l 741 698 l 718 591 l 83 591 z "},"ℓ":{"ha":549,"x_min":41,"x_max":593,"o":"m 182 0 q 114 29 140 0 q 98 102 88 58 l 242 791 q 264 863 251 831 q 296 919 278 895 q 338 959 315 943 q 390 982 362 975 q 452 990 418 990 q 524 980 494 990 q 570 947 553 969 q 590 888 587 924 q 581 798 593 851 l 494 385 q 448 311 486 340 q 368 282 410 282 l 41 282 l 60 377 l 349 377 q 377 385 370 377 q 389 414 385 392 l 471 806 q 474 878 483 858 q 435 897 465 897 q 384 872 401 897 q 355 798 366 847 l 216 132 q 215 102 211 110 q 240 95 219 95 l 410 95 l 391 0 l 182 0 z "},"‡":{"ha":715,"x_min":28,"x_max":741,"o":"m 222 0 l 427 977 l 545 977 l 339 0 l 222 0 m 108 627 l 130 733 l 741 733 l 718 627 l 108 627 m 28 243 l 50 350 l 660 350 l 637 243 l 28 243 z "},"℮":{"ha":1072,"x_min":47,"x_max":1093,"o":"m 485 -16 q 222 46 324 -16 q 84 222 121 109 q 79 488 47 335 q 195 755 111 642 q 400 930 278 868 q 669 993 522 993 q 994 853 896 993 q 1036 446 1093 713 l 260 446 l 207 195 q 324 100 249 134 q 502 66 399 66 q 743 123 629 66 q 962 308 857 181 l 938 193 q 736 35 852 86 q 485 -16 620 -16 m 277 531 l 866 531 l 920 785 q 810 878 878 845 q 652 911 743 911 q 479 878 561 911 q 330 785 397 845 l 277 531 z "},"№":{"ha":1594,"x_min":28,"x_max":1609,"o":"m 28 0 l 235 977 l 413 977 l 722 81 l 699 79 l 890 977 l 1008 977 l 800 0 l 635 0 l 315 901 l 337 903 l 144 0 l 28 0 m 1329 446 q 1219 473 1267 446 q 1142 550 1171 499 q 1114 671 1114 600 q 1148 821 1114 749 q 1245 937 1183 892 q 1392 982 1308 982 q 1503 956 1454 982 q 1580 879 1552 929 q 1609 757 1609 828 q 1574 608 1609 679 q 1476 491 1539 536 q 1329 446 1413 446 m 1034 290 l 1052 375 l 1538 375 l 1520 290 l 1034 290 m 1333 527 q 1410 551 1377 527 q 1462 611 1442 574 q 1493 689 1483 648 q 1503 765 1503 730 q 1473 864 1503 827 q 1389 901 1443 901 q 1313 878 1345 901 q 1260 818 1280 854 q 1229 740 1239 781 q 1219 663 1219 699 q 1249 564 1219 600 q 1333 527 1279 527 z "},"₿":{"ha":788,"x_min":0,"x_max":763,"o":"m 0 39 l 191 937 l 504 937 q 634 917 575 937 q 728 856 692 897 q 763 749 763 814 q 732 636 763 688 q 648 552 701 585 q 528 515 595 519 l 530 518 q 655 454 608 501 q 701 317 701 407 q 668 182 701 245 q 569 78 635 118 q 403 39 503 39 l 0 39 m 98 -95 l 138 98 l 220 98 l 179 -95 l 98 -95 m 274 -95 l 315 98 l 396 98 l 355 -95 l 274 -95 m 132 134 l 406 134 q 512 166 471 134 q 572 245 553 199 q 591 334 591 292 q 542 442 591 406 q 406 479 493 479 l 205 479 l 132 134 m 225 574 l 475 574 q 568 597 531 574 q 624 656 606 621 q 643 731 643 692 q 602 817 643 791 q 500 842 562 842 l 282 842 l 225 574 m 302 878 l 343 1071 l 425 1071 l 384 878 l 302 878 m 479 878 l 519 1071 l 601 1071 l 560 878 l 479 878 z "},"¢":{"ha":680,"x_min":69,"x_max":674,"o":"m 340 152 q 202 183 264 152 q 105 276 141 215 q 69 427 69 337 q 90 570 69 495 q 153 709 111 644 q 261 815 195 774 q 416 857 327 857 q 546 829 489 857 q 636 751 602 801 q 674 633 671 701 l 567 604 q 549 688 568 651 q 496 745 531 724 q 412 766 462 766 q 306 731 349 766 q 235 641 262 695 q 195 527 208 586 q 182 422 182 469 q 224 290 182 338 q 344 241 267 241 q 452 282 404 241 q 528 401 499 323 l 636 369 q 557 247 604 295 q 456 175 511 199 q 340 152 400 152 m 225 0 l 430 977 l 507 977 l 302 0 l 225 0 z "},"¤":{"ha":881,"x_min":35,"x_max":900,"o":"m 431 119 q 270 159 342 119 q 157 269 199 199 q 115 426 115 338 q 146 570 115 502 q 232 691 178 638 q 355 773 286 743 q 503 804 425 804 q 663 763 591 804 q 776 653 734 723 q 818 496 818 584 q 787 352 818 420 q 702 232 755 284 q 578 149 648 179 q 431 119 508 119 m 111 85 l 35 177 l 217 329 l 293 237 l 111 85 m 441 217 q 579 254 516 217 q 680 353 642 292 q 718 486 718 414 q 688 598 718 549 q 607 676 658 648 q 492 705 555 705 q 355 668 418 705 q 254 569 292 631 q 216 436 216 508 q 245 324 216 374 q 327 246 275 275 q 441 217 378 217 m 700 62 l 589 204 l 682 277 l 793 136 l 700 62 m 252 635 l 129 791 l 222 864 l 345 708 l 252 635 m 720 602 l 644 694 l 824 844 l 900 751 l 720 602 z "},"$":{"ha":751,"x_min":31,"x_max":771,"o":"m 368 24 q 235 44 295 24 q 130 102 174 64 q 60 195 85 140 q 31 317 34 249 l 168 345 q 178 228 156 279 q 250 148 201 177 q 370 119 300 119 q 489 149 444 119 q 555 221 534 178 q 576 309 576 265 q 549 388 576 356 q 457 442 522 419 l 351 479 q 292 502 326 489 q 227 536 258 514 q 176 595 196 558 q 155 688 155 631 q 192 820 155 760 q 299 916 229 880 q 468 952 369 952 q 590 935 536 952 q 684 884 644 917 q 745 807 723 852 q 771 709 768 763 l 640 680 q 627 764 646 724 q 565 830 608 804 q 456 857 522 857 q 360 838 403 857 q 292 787 317 820 q 267 709 267 753 q 301 633 267 661 q 410 578 335 604 l 488 552 q 590 504 544 533 q 665 429 637 474 q 692 317 692 384 q 675 217 692 268 q 619 122 657 165 q 519 51 581 78 q 368 24 457 24 m 254 -95 l 499 1072 l 576 1072 l 331 -95 l 254 -95 z "},"€":{"ha":895,"x_min":43,"x_max":895,"o":"m 461 -16 q 289 32 363 -16 q 174 171 215 81 q 133 389 133 262 q 164 610 133 503 q 254 805 195 718 q 396 942 313 891 q 583 993 479 993 q 739 956 671 993 q 848 850 807 918 q 895 689 889 782 l 771 659 q 723 828 769 760 q 583 895 677 895 q 443 848 503 895 q 340 724 382 801 q 278 558 299 648 q 257 385 257 469 q 314 165 257 248 q 468 81 370 81 q 609 141 547 81 q 713 327 671 200 l 837 290 q 676 58 770 133 q 461 -16 582 -16 m 43 372 l 60 454 l 523 454 l 489 372 l 43 372 m 80 548 l 97 629 l 597 629 l 563 548 l 80 548 z "}}}
